<?xml version="1.0" encoding="UTF-8" standalone="no"?>
<svg width="723px" height="456px" viewBox="0 0 723 456" version="1.1" xmlns="http://www.w3.org/2000/svg" xmlns:xlink="http://www.w3.org/1999/xlink">
    <!-- Generator: Sketch 40.3 (33839) - http://www.bohemiancoding.com/sketch -->
    <title>Group 2</title>
    <desc>Created with Sketch.</desc>
    <defs>
        <text id="text-1" font-family="Circular-Bold, Circular" font-size="23" font-weight="bold" letter-spacing="-0.315068513" fill="#FFFFFF">
            <tspan x="257" y="36">“The Second Brain”: Our digestive system is </tspan>
            <tspan x="257" y="65">the second largest part of our neurological </tspan>
            <tspan x="257" y="94">system, most illnesses originate in the gut.</tspan>
            <tspan x="257" y="165">Appetite: Probiotics are the fastest growing </tspan>
            <tspan x="257" y="194">functional food on the market with a growth </tspan>
            <tspan x="257" y="223">rate of 7% year over year. †</tspan>
            <tspan x="257" y="294">Need: More than 20 million Canadians suffer </tspan>
            <tspan x="257" y="323">from digestive disorders every year. ††</tspan>
            <tspan x="257" y="394">Reality: 80 percent of your entire immune </tspan>
            <tspan x="257" y="423">system is located in your digestive tract.</tspan>
        </text>
        <filter x="-50%" y="-50%" width="200%" height="200%" filterUnits="objectBoundingBox" id="filter-2">
            <feOffset dx="0" dy="2" in="SourceAlpha" result="shadowOffsetOuter1"></feOffset>
            <feGaussianBlur stdDeviation="2" in="shadowOffsetOuter1" result="shadowBlurOuter1"></feGaussianBlur>
            <feColorMatrix values="0 0 0 0 0   0 0 0 0 0   0 0 0 0 0  0 0 0 0.5 0" type="matrix" in="shadowBlurOuter1"></feColorMatrix>
        </filter>
    </defs>
    <g id="Products" stroke="none" stroke-width="1" fill="none" fill-rule="evenodd">
        <g id="Desktop-HD" transform="translate(-542.000000, -1423.000000)">
            <g id="We-Love-your-Guts" transform="translate(0.000000, 1327.000000)">
                <g id="Group" transform="translate(542.000000, 95.000000)">
                    <g id="Group-2">
                        <g id="“The-Second-Brain”:" fill-opacity="1" fill="#FFFFFF">
                            <use filter="url(#filter-2)" xlink:href="#text-1"></use>
                            <use xlink:href="#text-1"></use>
                        </g>
                        <g id="Digestive-System" transform="translate(114.000000, 229.000000) rotate(-360.000000) translate(-114.000000, -229.000000) ">
                            <g id="Group-23" transform="translate(0.000000, 0.327223)" fill="#FEFEFE">
                                <path d="M98.6858713,152.000322 C96.2973132,152.000322 94.3604016,150.065047 94.3604016,147.678508 L94.3604016,107.513704 C94.3604016,105.127165 96.2973132,103.19189 98.6858713,103.19189 C101.074429,103.19189 103.011341,105.127165 103.011341,107.513704 L103.011341,147.678508 C103.011341,150.065047 101.074429,152.000322 98.6858713,152.000322" id="Fill-1"></path>
                                <path d="M143.097547,206.983222 C139.670876,201.428849 134.082594,195.420967 128.16625,189.058359 C116.376256,176.378045 103.011116,162.009418 103.011116,147.678957 L98.6856466,147.678957 L98.6856466,147.678957 L98.6856466,147.678957 L94.3601769,147.678957 C94.3601769,164.514947 97.7935887,178.535584 100.550654,189.801486 C103.496468,201.835212 105.626621,210.530476 101.916829,215.251918 C97.6542748,220.67832 84.4104732,223.2063 60.237277,223.2063 L55.9118073,223.2063 L55.9118073,227.528114 C55.9118073,239.741447 60.8170023,268.148673 106.253533,268.148673 C121.097197,268.148673 133.372543,260.807202 140.821339,247.47581 C148.328556,234.038898 149.285777,217.009829 143.097547,206.983222" id="Fill-3"></path>
                                <path d="M38.6094793,419.608824 L29.9585399,419.608824 C29.9585399,411.400745 36.6411097,404.723824 44.8561316,404.723824 L133.403551,404.723824 C139.367082,404.723824 144.218349,399.876657 144.218349,393.918167 C144.218349,387.959676 139.367082,383.114755 133.403551,383.114755 L45.0988073,383.114755 C34.3649015,383.114755 25.6330703,374.388059 25.6330703,363.665471 C25.6330703,352.942882 34.3649015,344.216186 45.0988073,344.216186 L118.265531,344.216186 C132.574409,344.216186 144.218349,332.584333 144.218349,318.285304 C144.218349,303.98852 132.574409,292.354422 118.265531,292.354422 L60.2368276,292.354422 C41.1575741,292.354422 25.6330703,276.845284 25.6330703,257.779912 C25.6330703,238.716784 41.1575741,223.205402 60.2368276,223.205402 L60.2368276,231.849029 C45.9257022,231.849029 34.2840096,243.480882 34.2840096,257.779912 C34.2840096,272.078941 45.9257022,283.710794 60.2368276,283.710794 L118.265531,283.710794 C137.344784,283.710794 152.869288,299.222176 152.869288,318.285304 C152.869288,337.350676 137.344784,352.859814 118.265531,352.859814 L45.0988073,352.859814 C39.1352766,352.859814 34.2840096,357.70698 34.2840096,363.665471 C34.2840096,369.623961 39.1352766,374.471127 45.0988073,374.471127 L133.403551,374.471127 C144.137457,374.471127 152.869288,383.195578 152.869288,393.918167 C152.869288,404.643 144.137457,413.367451 133.403551,413.367451 L44.8561316,413.367451 C41.4114848,413.367451 38.6094793,416.167088 38.6094793,419.608824" id="Fill-5"></path>
                                <path d="M40.2540565,313.83552 L40.2675385,313.833275 C40.3709004,313.804088 40.4068524,313.792863 40.2540565,313.83552" id="Fill-7"></path>
                                <path d="M2.66448931,350.734604 L2.6712303,350.712153 C2.69819427,350.622349 2.70718226,350.595408 2.66448931,350.734604" id="Fill-9"></path>
                                <g id="Group-13" transform="translate(0.000000, 307.578431)">
                                    <path d="M175.50082,64.2425824 C175.482844,63.800298 175.449139,63.3557686 175.397458,62.9134843 C175.145794,61.234151 174.593033,59.8466804 174.044766,58.7757686 C173.496498,57.731798 172.914526,56.8315137 172.411199,56.128798 C172.141559,55.7359059 171.921353,55.4462882 171.671936,55.1027882 L171.036036,54.2361804 C170.620342,53.6793961 170.346208,53.2573176 170.141731,52.9205529 L170.121508,52.8868765 C170.233858,52.4333667 170.602366,51.4140922 171.101199,50.1994941 C171.388815,49.463102 171.710135,48.6818078 172.031456,47.655798 C172.190993,47.1910627 172.346036,46.5691706 172.485349,45.9944255 C172.613428,45.3231412 172.737013,44.6855333 172.777459,43.8458667 L172.80667,43.2531608 C172.802176,42.961298 172.786447,42.6424941 172.76173,42.3394059 C172.737013,42.0318275 172.701061,41.724249 172.653874,41.4211608 L172.584217,41.0013275 L172.552759,40.8643765 L172.49209,40.5904745 L172.460632,40.4535235 C172.586464,40.8980529 172.262897,39.7148863 172.240427,39.6901902 C172.069655,39.2321902 171.876413,38.7741902 171.667442,38.3296608 C170.791114,36.6233863 169.669862,35.4402196 168.68343,34.5601412 C166.724049,32.907749 165.133174,32.0972686 163.971477,31.372102 C163.389505,31.0196216 162.897412,30.7075529 162.616538,30.4875333 C162.551375,30.4426314 162.508682,30.4067098 162.470483,30.3752784 C162.398579,30.0968863 162.297464,29.6635824 162.205337,29.0237294 L161.861547,26.7449549 C161.722233,25.8805922 161.526744,24.8500922 161.178459,23.6803961 L160.884103,22.7733765 L160.472902,21.778798 C160.349317,21.4667294 160.126865,21.0760824 159.93587,20.7280922 L159.630278,20.2004941 C159.513434,20.0096608 159.302217,19.7222882 159.131445,19.4932882 C158.949438,19.2530627 158.758443,19.0173275 158.560708,18.7883275 L158.25961,18.4515627 C158.127037,18.3056314 158.14726,18.3348176 158.097826,18.2854255 L157.69112,17.8880431 C157.781,17.9576412 156.747381,17.0618471 157.019268,17.3177882 L156.682218,17.0775627 C156.457518,16.9181608 156.226077,16.7654941 155.99239,16.6195627 C155.513779,16.3142294 155.107073,16.1548275 154.644191,15.9415431 C152.889287,15.2208667 151.44222,15.045749 150.296252,14.9492098 C149.172753,14.8706314 148.188568,14.8751216 147.388637,14.8885922 C146.577471,14.9020627 145.860679,14.9222686 145.301177,14.9110431 C144.802344,14.9110431 144.431589,14.8796118 144.177678,14.8459353 C143.966461,14.6012196 143.649634,14.1791412 143.269891,13.6403176 C142.876667,13.0902686 142.400304,12.3987784 141.836307,11.6489157 C141.283546,10.9057882 140.56226,10.0324451 139.672449,9.14787647 C139.171369,8.68314118 138.695005,8.23636667 138.038882,7.77612157 C137.616446,7.41017059 136.266001,6.65581765 135.479552,6.34150392 L134.951508,6.1372 C134.668386,6.04290588 135.396413,6.27639608 134.28415,5.9126902 L133.893172,5.81839608 C133.630273,5.75777843 133.365128,5.70389608 133.099982,5.65674902 C132.542727,5.54449412 132.100068,5.53102353 131.628199,5.51081765 L130.922642,5.49959216 L130.320446,5.53775882 C129.471081,5.59613137 128.839675,5.72859216 128.172317,5.86329804 C127.608321,6.00473922 127.001632,6.15965098 126.547738,6.31231765 C124.595098,6.94543529 123.305321,7.5067098 122.339112,7.78959216 C122.186316,7.83224902 122.047003,7.86817059 121.918924,7.89960196 C121.629061,7.67509216 121.258307,7.37200392 120.804413,6.97462157 C120.267381,6.50988627 119.694397,5.99126863 118.95064,5.38509216 C118.615838,5.09996471 118.170932,4.7676902 117.766473,4.46011176 L117.056422,3.97068039 L116.694655,3.7282098 L116.274467,3.47900392 C115.986851,3.31511176 115.726199,3.1557098 115.407126,2.99630784 C115.076817,2.83690588 114.742015,2.68199412 114.402718,2.53381765 L114.144313,2.42380784 L113.75783,2.28910196 C113.499425,2.20154314 113.238774,2.12071961 112.975875,2.04663137 C112.712976,1.97254314 112.44783,1.9051902 112.182685,1.84457255 C112.007419,1.80416078 112.045618,1.81763137 111.975961,1.80416078 L111.838894,1.7817098 L111.564761,1.73456275 L111.427694,1.70986667 C111.868105,1.76374902 110.69742,1.61108235 110.65248,1.62006275 C110.142411,1.59312157 109.625602,1.59087647 109.113287,1.61108235 C108.201006,1.68741569 107.284231,1.84906275 106.601144,2.05785686 C105.140596,2.4732 104.089001,2.98732745 103.230648,3.43185686 C102.33859,3.89210196 101.651009,4.3029549 101.024097,4.65992549 C100.289328,5.09771961 99.6444403,5.43223922 99.2264988,5.62531765 C98.9905641,5.48612157 98.7007014,5.30651373 98.3434289,5.06179804 L96.4986442,3.81576863 C95.784099,3.34429804 94.9324871,2.8167 93.9145974,2.30032745 C93.6651807,2.17235686 93.355095,2.03989608 93.0742204,1.91641569 C92.7933457,1.7906902 92.5057301,1.6672098 92.1529515,1.55046471 C91.8091609,1.43371961 91.4923343,1.3282 91.1238268,1.22043529 C90.6115114,1.09246471 90.0879611,0.989190196 89.5621637,0.912856863 C88.8835706,0.816317647 88.8992995,0.841013725 88.6813408,0.820807843 L88.4139481,0.802847059 C88.6768468,0.811827451 87.9241027,0.775905882 87.8679278,0.784886275 L87.5533482,0.793866667 C87.1309127,0.809582353 86.7084772,0.838768627 86.2905358,0.879180392 C85.8928172,0.930817647 85.5265567,1.00715098 85.1468142,1.08348431 L84.5850649,1.2092098 L84.0929725,1.35738627 C83.7694049,1.46066078 83.4346023,1.56618039 83.1245167,1.68068039 C82.5807433,1.9051902 81.9605721,2.15439608 81.5134196,2.39462157 C79.572014,3.37797451 78.2530267,4.34336667 77.2216549,4.9944451 C76.7565265,5.29977843 76.4082419,5.49959216 76.1183793,5.66123922 C76.0689454,5.64327843 76.0217584,5.62980784 75.9453605,5.59164118 C75.2600264,5.30651373 74.2421366,4.72952353 72.8602333,3.97966078 C72.5007138,3.78882745 72.1659112,3.60697451 71.7389817,3.40042549 L71.1165635,3.09958235 L70.4110063,2.78975882 C70.1908006,2.69097451 69.91442,2.5854549 69.6312983,2.48667059 C69.3481767,2.38564118 69.092019,2.28910196 68.7819334,2.19480784 C68.0831172,2.0174451 67.6292238,1.84008235 66.3933753,1.70762157 C66.1282296,1.68068039 65.860837,1.65822941 65.5934443,1.64475882 L65.2563947,1.63353333 L65.1283159,1.63577843 L64.6227415,1.64251373 C63.4408209,1.70986667 64.1261551,1.68292549 63.7868585,1.70986667 L63.4925019,1.75252353 L62.9082826,1.85355294 C62.5128111,1.92090588 62.1353156,2.00846471 61.80276,2.11847451 C61.4544754,2.22399412 61.1106848,2.33849412 60.7691412,2.45748431 C60.4545616,2.58096471 60.169193,2.71118039 59.8703423,2.84588627 C59.2456771,3.11754314 58.7985247,3.39818039 58.2862093,3.69004314 C56.4077196,4.85075882 55.2257991,5.94861176 54.2124033,6.80174902 C53.5248222,7.41017059 52.9203799,7.89286667 52.5765893,8.13982745 C52.1474129,8.06798431 51.3407409,7.83673922 50.385767,7.5134451 C49.2465395,7.14749412 47.8983411,6.62887647 45.9412065,6.21353333 C45.6985308,6.16189608 45.4041742,6.11923922 45.1367815,6.07658235 C44.8491659,6.03841569 44.6199722,5.98902353 44.2739346,5.96881765 L43.3077258,5.91493529 L43.0650501,5.9082 L42.6830605,5.91942549 C42.4291499,5.93065098 42.1729922,5.95085686 41.9190815,5.97555294 C41.6651708,6.00024902 41.4112601,6.03392549 41.1618434,6.07209216 L40.8180528,6.13046471 L40.705703,6.15516078 L40.2675385,6.2539451 C40.0495798,6.31456275 39.5035595,6.46498431 39.5215354,6.46049412 L39.2653778,6.55478824 L38.7598034,6.75235686 C38.4317418,6.88930784 38.0789632,7.02625882 37.7823596,7.18790588 C35.3039217,8.49230784 33.8591024,10.1402098 32.7985197,11.4333863 C31.751419,12.7579941 31.0413679,13.8872784 30.4459136,14.7449059 L30.0414541,15.3263863 L29.7133925,15.7574451 L29.5898077,15.9056216 L29.5830667,15.914602 C29.5403738,15.9258275 29.4976808,15.939298 29.4437529,15.9505235 C28.9516605,16.0560431 28.0933075,16.1368667 27.0394658,16.1929941 C25.9698952,16.2625922 24.7093297,16.2962686 23.0780097,16.5409843 C22.6375983,16.6218078 22.2331388,16.6846706 21.7657634,16.7946804 L21.0332423,16.9900039 C20.7905666,17.0551118 20.5546318,17.1202196 20.2647692,17.2324745 C19.6805499,17.4659647 19.3008074,17.5602588 18.3795385,18.0833667 C17.98182,18.3078765 17.5953365,18.5548373 17.2290759,18.8152686 L16.8807914,19.0869255 L16.7257486,19.2104059 C16.4920609,19.4124647 17.1391961,18.8467 16.1797282,19.6796314 L16.0067095,19.8592392 C15.7752687,20.0994647 15.548322,20.3464255 15.3303633,20.6001216 C14.8674819,21.1097588 14.5708782,21.6149059 14.2315816,22.144749 C13.8900381,22.6813275 13.7057843,23.1460627 13.4608616,23.6601902 C13.2361619,24.1653373 13.112577,24.5896608 12.9507932,25.0611314 C12.4182549,26.839249 12.2789411,28.2289647 12.1553562,29.4053961 C12.0677233,30.3730333 11.9823374,31.3294451 11.8991985,32.2701412 L11.8385296,32.7663078 L11.7756137,33.1434843 C11.7598847,33.2063471 11.7486497,33.2602294 11.7374147,33.318602 C11.7261797,33.3275824 11.7261797,33.3298275 11.7149447,33.3410529 C11.2183584,33.868651 9.77353914,34.8407784 8.09053822,36.113749 C7.25690225,36.753602 6.27496446,37.5708176 5.28628568,38.6709157 C4.78969929,39.2074941 4.2953599,39.8765333 3.8077615,40.6421118 C3.49767589,41.1742 3.21680123,41.7332294 2.97861953,42.2945039 L2.89098663,42.5055431 L2.86177567,42.5886118 L2.81234173,42.7300529 L2.71347385,43.0151804 L2.6730279,43.1341706 C2.61685297,43.3182686 2.47304515,43.7874941 2.47753914,43.7740235 L2.43709319,43.9626118 C2.38316526,44.2163078 2.33373132,44.472249 2.29328537,44.7281902 C2.25059242,44.9818863 2.21239347,45.2378275 2.18318251,45.4915235 L2.15397154,46.1807686 C2.11352559,47.1484059 2.21913446,47.8937784 2.32474333,48.6638471 C2.58090102,50.0580529 2.94491457,51.1357 3.27971715,52.0404745 C3.96280431,53.8118569 4.5425296,55.0174745 4.89306116,55.9244941 C4.96496508,56.1220627 5.03911598,56.3173863 5.1087729,56.5104647 C5.14023086,56.6429255 5.20988777,56.8202882 5.22336976,56.9011118 C5.22561675,56.9100922 5.22786375,56.9258078 5.23235775,56.9392784 C5.20314678,56.9954059 5.17393582,57.0537784 5.14472485,57.1099059 C4.88632017,57.592602 4.40770976,58.2908275 3.92011136,59.0025235 C3.43251297,59.7142196 2.90446862,60.479798 2.41012923,61.2947686 C2.28654438,61.4990725 2.16745353,61.6988863 2.05285667,61.8919647 C1.93376581,62.1119843 1.81692196,62.3252686 1.70681909,62.5318176 C1.48886036,62.9202196 1.27988962,63.3916902 1.09788285,63.8070333 C0.913629073,64.1954353 0.756339267,64.6893569 0.621519433,65.0844941 C0.587814475,65.1877686 0.556356514,65.288798 0.524898553,65.3853373 L0.479958608,65.5290235 L0.426030674,65.7378176 C0.390078719,65.883749 0.365361749,66.0162098 0.336150785,66.1554059 C0.0620171235,66.9771118 -0.0548267324,67.8661706 0.0260651678,68.7821706 C0.0260651678,68.7821706 0.0283121651,68.8203373 0.0350531568,68.8832 C0.0440411457,69.2356804 0.0844870958,69.5814255 0.147403018,69.9204353 C0.181107977,70.1561706 0.226047921,70.4233373 0.293457838,70.7017294 C0.560850508,71.8624451 1.19225673,73.3284941 2.0236457,74.538602 C2.84155269,75.7644255 3.81450249,76.7881902 4.68184342,77.6817392 C5.03911598,78.0521804 5.41885852,78.4450725 5.82107102,78.8626608 L6.02554777,79.0781902 C6.07048771,79.1253373 6.09745168,79.1522784 6.13340363,79.1859549 C6.08621669,79.3094353 6.03004176,79.4418961 5.96487884,79.5833373 C5.69748617,80.1940039 5.28628568,80.9214157 4.80093428,81.8284353 C4.32906486,82.7623961 3.71114062,83.790651 3.21680123,85.5957098 L3.13366233,85.9369647 L3.09321638,86.1075922 L3.04602944,86.3747588 C2.98760751,86.7519353 2.94940856,87.1380922 2.93367958,87.5197588 L2.92469159,87.8048863 L2.92469159,87.9373471 L2.92918559,87.982249 L2.94716156,88.1618569 L3.04153545,89.0486706 C3.1583793,89.5470824 3.27522316,90.0769255 3.44824195,90.5371706 C3.63249572,90.9772098 3.82124349,91.4711314 4.04819021,91.8438176 C4.95373009,93.4445725 6.01655978,94.4503765 6.94232264,95.2720824 C7.87932048,96.0825627 8.74890841,96.7111902 9.43424256,97.2477686 C9.60726135,97.3824745 9.77353914,97.5104451 9.89937099,97.6204549 L10.1038477,97.7933275 L10.2499026,97.9302784 C10.3779814,98.0380431 10.3824754,98.0672294 10.4521323,98.1166216 C10.4835903,98.1480529 10.4498853,98.1053961 10.4206743,98.0604941 C10.3959574,98.0178373 10.3757344,97.9729353 10.3577584,97.9280333 C10.3307945,97.8674157 10.2768665,97.6249451 10.3600054,97.8404745 C10.4386503,97.8606804 10.5712232,98.3590922 10.5554942,98.9877196 C10.5487532,99.6365529 10.4319093,100.464994 10.2656315,101.4012 C10.1060947,102.353122 9.84319606,103.370151 9.71062322,104.757622 C9.6477073,105.453602 9.60501435,106.246122 9.81847909,107.402347 C9.91060597,107.797484 10.0364378,108.194867 10.1892336,108.567553 L10.3015835,108.830229 L10.3442764,108.908808 L10.4296623,109.06821 L10.5172952,109.225367 L10.5285302,109.245573 C11.0026466,110.038092 10.674585,109.483553 10.7869349,109.669896 L10.8386158,109.735004 L10.9419777,109.867465 L11.3711542,110.383837 C11.9576204,111.050631 12.7036235,111.650073 13.4743436,112.076641 C14.2450636,112.51219 15.0405006,112.781602 15.7662808,112.949984 C17.2335699,113.277769 18.4514424,113.250827 19.4962962,113.201435 C20.5389029,113.143063 21.4354548,113.053259 22.1522469,113.001622 C22.4937905,112.976925 22.839828,112.97019 22.9881298,112.972435 C22.9836358,112.97468 22.9791419,112.97468 22.9768949,112.97019 C22.9768949,112.97019 22.9319549,112.945494 23.0712687,112.97019 L23.2779925,113.001622 L23.3521434,113.024073 C24.464407,113.333896 25.5991406,113.780671 26.6350063,114.272347 C27.756258,114.815661 28.7337018,115.291622 29.5381268,115.682269 C30.4616426,116.102102 31.2997726,116.499484 32.4682111,116.719504 C32.5333741,116.732975 32.598537,116.7442 32.6614529,116.755425 C32.7333568,116.768896 32.9288456,116.784612 33.0524304,116.789102 C33.3310581,116.804818 33.5939568,116.800327 33.8366325,116.784612 C34.0793082,116.766651 34.2995139,116.73971 34.4972496,116.706033 C34.5399426,116.699298 34.5758945,116.694808 34.6118465,116.690318 C34.7331844,116.672357 34.7961003,116.663376 34.7961003,116.663376 C35.027541,116.6297 35.2836987,116.575818 35.5151394,116.503975 C37.8205585,115.776563 39.101347,113.322671 38.3755669,111.0192 C37.6655157,108.762876 35.2949337,107.503376 33.0344545,108.129759 C32.9176106,108.096082 32.7917787,108.057916 32.6547119,108.010769 C31.9109558,107.779524 30.9020541,107.373161 29.6504766,106.924141 C28.3988992,106.475122 26.911387,105.927318 25.0531203,105.545651 L24.8823485,105.507484 L24.5924859,105.455847 L24.5565339,105.449112 L24.486877,105.440131 L24.1992613,105.40421 C24.1453334,105.392984 23.9026577,105.372778 23.709416,105.361553 L23.1072207,105.336857 C22.4623325,105.341347 22.0016981,105.379514 21.5230877,105.424416 C20.6040658,105.509729 19.8131228,105.624229 19.1098126,105.657906 C18.4154905,105.691582 17.8222832,105.653416 17.4987156,105.568102 C17.4784926,105.561367 17.4695047,105.559122 17.4515287,105.552386 C17.5391616,104.988867 17.7571203,104.093073 18.017772,103.105229 C18.2784237,102.090445 18.5660393,100.93871 18.7076001,99.5714451 C18.826691,98.1952 18.8626429,96.6056706 18.1750618,94.7422392 C18.1795558,94.7108078 17.970585,94.2662784 17.8177892,93.9856412 L17.5548905,93.5276412 C17.4605167,93.3727294 17.3616488,93.2200627 17.3099678,93.1549549 C17.0605512,92.8137 16.7729355,92.425298 16.5370008,92.1738471 L16.1639993,91.7585039 L15.8179617,91.4060235 C15.582027,91.1613078 15.3708092,90.9547588 15.1618385,90.7549451 C14.3282025,89.9579353 13.6226454,89.3225725 13.105836,88.761298 C12.8766423,88.5165824 12.6991295,88.2943176 12.5620627,88.1012392 C12.7103645,87.8834647 12.9822512,87.4456706 13.3193008,86.9899157 C13.7866762,86.332102 14.3506725,85.555298 14.9438798,84.6482784 C15.528099,83.7412588 16.1639993,82.6523863 16.6291277,81.1975627 C16.7504655,80.8652882 16.8425924,80.4409647 16.9257313,80.0368471 C16.9639303,79.8325431 17.0066232,79.6372196 17.0358342,79.4261804 L17.0897621,78.7481608 L17.1144791,78.0723863 L17.0470692,77.2102686 L17.0245992,76.920651 C17.0268462,76.9161608 17.0133642,76.8353373 16.9976352,76.7567588 L16.9504483,76.5277588 L16.8448394,76.0764941 C16.7684415,75.775651 16.6808086,75.479298 16.5819407,75.1896804 C16.5235188,75.0190529 16.5010488,74.9696608 16.4628499,74.8753667 L16.359488,74.6171804 C16.2201742,74.287151 16.0606374,73.9099745 15.9235706,73.6675039 C15.7865037,73.4025824 15.6382019,73.1197 15.5011351,72.8817196 C15.3663152,72.6617 15.2359894,72.4439255 15.1056636,72.2283961 C14.6068302,71.4381216 14.1596777,70.8005137 13.8226281,70.2998569 C13.4765906,69.7902196 13.2136919,69.3658961 13.0271911,69.0291314 C13.0316851,69.0156608 13.0339321,69.0044353 13.0564021,68.9685137 C13.101342,68.8899353 13.117071,68.8225824 13.2159389,68.6676706 C13.2541379,68.6003176 13.2945838,68.5284745 13.3350298,68.4543863 C13.3934517,68.3623373 13.4541206,68.2680431 13.5170365,68.1692588 C13.7687002,67.7718765 14.1484427,67.2375431 14.6652521,66.5191118 C15.1730735,65.7939451 15.8179617,64.945298 16.5841877,63.638651 C16.7751825,63.3086216 16.9751653,62.9247098 17.168407,62.5542686 C17.3661428,62.1434157 17.5661255,61.6764353 17.7526263,61.2139451 C17.9368801,60.6526706 18.1211338,60.1520137 18.2559537,59.4942 C18.3211166,59.1619255 18.3795385,58.8251608 18.4289725,58.486151 L18.4649244,58.2302098 L18.5008764,57.6442392 L18.5098644,57.4242196 L18.5233464,56.9662196 C18.5166054,56.586798 18.4963824,56.2028863 18.4626774,55.8167294 C18.3907735,54.9321608 18.2851646,54.5527392 18.1795558,53.9869745 C18.0694529,53.4548863 17.9346331,53.0283176 17.7998132,52.5343961 C17.6627464,52.1168078 17.5166916,51.663298 17.3706368,51.2681608 C16.7931585,49.6898569 16.1729872,48.365249 15.8247027,47.3908765 C15.8022327,47.3302588 15.7842567,47.2786216 15.7662808,47.2224941 C15.9100886,47.1012588 16.0763664,46.9643078 16.2920781,46.8093961 C17.3391788,45.9764647 18.9727458,45.0694451 21.1568271,43.0398765 C21.4421957,42.7502588 21.7006004,42.5167686 21.9972041,42.1687784 C22.2960547,41.8140529 22.5746824,41.5019843 22.866792,41.0911314 L23.2982155,40.442298 L23.5071862,40.1100235 L23.6083011,39.9438863 L23.8532238,39.4724157 L24.0060196,39.1513667 L24.0846645,38.9919647 L24.1228634,38.9111412 L24.2060023,38.7158176 C24.4262081,38.1837294 24.6576488,37.5438765 24.7947156,37.0634255 C24.8913365,36.6727784 24.9879574,36.2821314 25.0845783,35.8892392 L25.275573,34.8340431 L25.4081459,33.8753863 C25.5564477,32.6585431 25.6283516,31.6325333 25.7204785,30.7951118 C25.7496894,30.5189647 25.7811474,30.2720039 25.8170994,30.045249 C26.3361557,30.0048373 26.9967729,29.9734059 27.760752,29.9397294 C28.9291905,29.8768667 30.3245758,29.8229843 32.0704926,29.5019353 C32.5153981,29.4121314 32.9917615,29.2953863 33.4501489,29.1831314 C33.9579703,29.0282196 34.4590507,28.8710627 34.9758601,28.671249 L35.793767,28.3075431 L36.1982265,28.1144647 C35.8724119,28.3097882 36.8768197,27.7350431 36.7959278,27.7754549 L36.8880547,27.7193275 L37.2543152,27.4858373 L37.3644181,27.4162392 L37.6160818,27.2366314 L38.1081742,26.8639451 L38.5867846,26.4710529 C38.7395804,26.3408373 38.9215872,26.1814353 38.9889971,26.1095922 L39.5462524,25.5483176 L39.8203861,25.2631902 L40.0450858,25.0050039 L40.4877443,24.4841412 C40.7663719,24.1451314 40.9865776,23.8465333 41.2359943,23.5209941 L41.8561656,22.6588765 C42.6111566,21.5744941 43.2021169,20.6966608 43.6627513,20.1398765 C43.6964563,20.0972196 43.7256673,20.0635431 43.7571252,20.0253765 C44.3053925,20.1847784 45.0693716,20.4384745 45.9546885,20.7415627 C47.2489589,21.1613961 48.781411,21.7181804 50.9857153,22.0122882 C51.5564526,22.075151 52.0957319,22.1425039 52.7630901,22.1357686 C53.0844107,22.1357686 53.3922493,22.1402588 53.7270519,22.122298 C54.0775835,22.0931118 54.4303621,22.0549451 54.7808936,22.0100431 L55.304444,21.9359549 C56.3919906,21.6934843 55.6751985,21.8506412 55.9470852,21.7877784 L56.063929,21.7563471 L56.2998638,21.6934843 L56.4167076,21.6620529 L56.6189374,21.6014353 C57.4975133,21.3275333 58.569331,20.8493275 58.9603085,20.6068569 C61.1264138,19.3945039 62.2948524,18.2652196 63.3262241,17.4143275 C64.1351431,16.716102 64.8182302,16.1548275 65.2721237,15.8405137 L65.5080584,15.9595039 C65.6968062,16.0470627 65.9597048,16.190749 66.2046275,16.3209647 C67.2337523,16.8687686 68.5886916,17.6972098 70.4492053,18.5032 C70.8783818,18.7052588 71.471589,18.9028275 71.9861514,19.0891706 C72.273767,19.1812196 72.5905937,19.2665333 72.8939383,19.3473569 C73.1995299,19.4304255 73.5028745,19.511249 73.8713821,19.5696216 C74.2219136,19.6302392 74.5769392,19.6863667 74.9297178,19.7335137 C75.3072133,19.7716804 75.7139198,19.785151 76.1071443,19.7963765 L76.7003516,19.8031118 C77.8418262,19.7222882 77.0913291,19.7716804 77.3811917,19.7492294 L77.5092706,19.7357588 L77.7699223,19.7043275 C77.8777781,19.6908569 77.8642962,19.7020824 78.1968517,19.6414647 C78.7091671,19.5516608 79.2214825,19.4349157 79.7248099,19.2934745 C80.0146725,19.2148961 80.1405043,19.1632588 80.3000411,19.1071314 L80.7719106,18.9297686 C81.4460097,18.6850529 81.8931622,18.4425824 82.4369355,18.182151 C83.3582044,17.6927196 84.1850994,17.1875725 84.8254936,16.7654941 C86.1602099,15.8899059 87.1646177,15.2141314 87.7690599,14.9222686 C87.7915299,14.908798 87.8005179,14.9065529 87.8207409,14.8975725 C88.0768986,15.0345235 88.4027132,15.2208667 88.8229016,15.5015039 L90.5778065,16.6801804 C91.2406706,17.1247098 92.0810476,17.6612882 93.0966904,18.1978667 C94.1145801,18.7254647 95.5009774,19.3361314 97.3390211,19.625749 L98.0625542,19.7110627 L98.4265678,19.740249 C98.1164822,19.7537196 99.2759327,19.7559647 99.1860528,19.7492294 L99.7343202,19.7267784 C100.226413,19.7155529 101.868968,19.4730824 102.33859,19.2979647 C105.057457,18.5234059 106.659566,17.4749451 108.00327,16.7295725 C108.652652,16.3546412 109.234624,16.0133863 109.654813,15.7978569 C109.661554,15.7933667 109.668295,15.7911216 109.675036,15.7866314 C109.816597,15.8966412 109.955911,15.9954255 110.140164,16.1525824 C110.553612,16.4848569 111.092891,16.9653078 111.683851,17.4749451 C112.297282,18.0047882 113.018568,18.6109647 113.926355,19.2710235 C114.888069,19.9355725 116.063249,20.7056412 117.833883,21.296102 C118.312493,21.4375431 118.797845,21.5587784 119.285443,21.6575627 C120.341532,21.8102294 119.658445,21.7092 119.930331,21.7451216 L120.069645,21.7585922 L120.35052,21.7855333 L120.489834,21.7990039 L120.763967,21.8147196 C121.013384,21.8259451 121.267295,21.8304353 121.518958,21.8304353 C121.990828,21.8304353 122.619987,21.8057392 122.885133,21.7608373 C124.323211,21.6126608 125.40177,21.3005922 126.424153,21.0019941 C128.223998,20.4250039 129.635112,19.8165824 130.563122,19.5090039 C130.668731,19.6324843 130.778834,19.7694353 130.906913,19.9378176 C131.257444,20.3935725 131.643928,20.9436216 132.13602,21.6238863 C132.612384,22.2817 133.174133,23.0562588 133.96957,23.954298 C134.33583,24.3831118 134.857134,24.8949941 135.382931,25.3732 C135.697511,25.6358765 136.032313,25.8963078 136.367116,26.1432686 C136.683943,26.3879843 137.171541,26.6641314 137.580494,26.8953765 L137.906309,27.0704941 C137.955743,27.1041706 138.823084,27.4835922 138.510751,27.3443961 L138.775897,27.4476706 C138.980374,27.526249 139.005091,27.5554353 139.578075,27.7395333 C140.029721,27.8832196 140.488109,28.0111902 140.948743,28.1212 L141.919446,28.2940725 C143.171024,28.4826608 144.267558,28.5253176 145.191074,28.5253176 C146.150542,28.5298078 146.948226,28.4961314 147.653783,28.4804157 C147.950387,28.4714353 148.208791,28.4691902 148.446973,28.4691902 C148.478431,28.624102 148.509889,28.7924843 148.5391,28.9788275 L148.891879,31.1857588 C149.026698,32.0186902 149.224434,33.0604157 149.565978,34.2368471 L149.871569,35.1685627 C150.008636,35.5165529 150.159185,35.8712784 150.314228,36.2170235 C150.444554,36.5403176 150.702958,36.9736216 150.916423,37.3418176 L151.087195,37.6269451 C151.253473,37.8671706 150.961363,37.4832588 151.507383,38.2376118 L151.680402,38.4598765 L151.855668,38.6821412 L151.972512,38.8258275 L152.21294,39.0997294 C152.534261,39.4589451 152.884793,39.8181608 153.221842,40.1369647 C153.707194,40.556798 154.230744,40.9968373 154.671155,41.2999255 C155.603659,41.9801902 156.40359,42.4494157 157.118135,42.869249 C158.001205,43.3743961 158.747208,43.8144353 159.268512,44.1467098 C159.144927,44.5081706 158.980896,44.9459647 158.80563,45.4107 C158.306797,46.7914353 157.547312,48.4236216 157.111394,51.0503863 C157.055219,51.3534745 157.019268,51.7261608 156.994551,52.0988471 C156.974328,52.4827588 156.933882,52.8060529 156.956352,53.2460922 C156.972081,53.6636804 156.996798,54.0812686 157.034996,54.4966118 C157.199027,55.5293569 157.097912,54.8625627 157.140605,55.1274843 L157.169816,55.2644353 L157.225991,55.5360922 C157.300142,55.9806216 157.848409,57.6711804 158.066368,58.0012098 C158.205682,58.2975627 158.360725,58.6410627 158.504533,58.8880235 L158.944944,59.653602 C159.515681,60.5740922 160.086419,61.3666118 160.560535,61.9862588 L161.812113,63.6498765 C162.173879,64.1348176 162.376109,64.4828078 162.524411,64.7297686 L162.486212,64.8801902 C162.409814,65.0373471 162.394085,65.1563373 162.29297,65.356151 C161.964908,66.090298 161.340243,67.1185529 160.553794,68.3600922 C159.769592,69.6420431 158.769678,71.1193176 157.902337,73.4317686 C157.796729,73.7393471 157.697861,74.0716216 157.605734,74.3926706 L157.470914,74.8798569 L157.365305,75.4388863 L157.270931,76.0024059 L157.230485,76.2852882 C157.239473,76.0630235 157.169816,76.920651 157.178804,76.8667686 L157.158581,77.401102 L157.149593,77.6682686 L157.158581,78.1936216 C157.169816,78.5640627 157.190039,78.9345039 157.21925,79.3049451 C157.232732,79.5070039 157.250708,79.6484451 157.270931,79.7764157 L157.3316,80.1850235 L157.461926,80.9910137 C157.875373,83.0340529 158.477569,84.6348078 158.965167,85.9908471 C159.45726,87.3244353 159.86846,88.4806608 159.969575,89.0554059 L160.014515,89.2574647 C160.012268,89.2709353 160.016762,89.2821608 160.016762,89.2933863 L160.021256,89.286651 L160.021256,89.2888961 L160.016762,89.2956314 L160.016762,89.3023667 L159.947105,89.5223863 C159.924635,89.5425922 159.949352,89.4191118 159.967328,89.3809451 C159.971822,89.3697196 159.978563,89.3607392 159.983057,89.3495137 C159.971822,89.3697196 159.95834,89.3899255 159.947105,89.4123765 C159.924635,89.4887098 159.792062,89.6166804 159.73364,89.7266902 L159.383109,90.1397882 C159.219078,90.2991902 159.090999,90.4473667 158.902251,90.6224843 C158.185459,91.3139745 157.19678,92.1087392 156.028342,93.112298 C155.450863,93.6062196 154.796987,94.2079059 154.129629,94.8881706 C153.43306,95.6515039 152.709527,96.4372882 152.010711,97.6631118 L151.759047,98.103151 C151.833198,97.9347686 151.511877,98.5903373 151.534347,98.5544157 L151.484913,98.6689157 L151.284931,99.1269157 L151.170334,99.3963275 L151.004056,99.8408569 L150.696217,100.736651 C150.52994,101.284455 150.442307,101.686327 150.318722,102.166778 L150.071552,103.45771 C149.801912,105.110102 149.700798,106.524514 149.574966,107.70319 C149.462616,108.868396 149.294091,109.811337 149.172753,110.175043 C149.161518,110.2177 149.154777,110.240151 149.145789,110.255867 C149.080626,110.285053 148.992993,110.311994 148.930077,110.352406 C148.806493,110.399553 148.626733,110.44221 148.480678,110.496092 L147.894212,110.633043 C147.026871,110.812651 145.901125,110.938376 144.604608,111.097778 C143.301349,111.268406 141.816084,111.443524 140.013992,111.989082 C139.101712,112.28319 138.148985,112.640161 137.106378,113.271033 C136.901901,113.358592 135.254852,114.499102 134.85264,114.941386 C133.567357,116.104347 132.6753,117.199955 131.888851,118.160857 C131.111389,119.117269 130.466501,119.965916 129.902505,120.612504 C129.34525,121.263582 128.866639,121.683416 128.664409,121.820367 C128.626211,121.829347 128.57453,121.90119 128.563295,121.894455 C128.556554,121.894455 128.55206,121.898945 128.547566,121.910171 L128.543072,121.925886 L128.318372,121.977524 L128.250962,121.990994 C128.25995,121.993239 128.266691,121.995484 128.275679,121.997729 C128.271185,121.999975 128.248715,121.997729 128.228492,121.997729 L128.118389,122.022425 C128.104907,122.02018 128.136365,122.00671 128.145353,122.00222 C128.154341,121.995484 128.165576,121.997729 128.176811,121.995484 C127.788081,122.017935 127.111734,121.941602 126.293827,121.737298 C125.455697,121.537484 124.498477,121.252357 123.440141,120.949269 C122.384052,120.648425 121.206626,120.320641 119.815734,120.102867 C119.487673,120.042249 119.103436,120.004082 118.728188,119.972651 L118.164191,119.927749 L117.54402,119.925504 C117.135067,119.925504 116.72836,119.929994 116.267726,119.995102 L115.600368,120.084906 L115.43409,120.109602 C115.43409,120.105112 114.780214,120.244308 115.018395,120.197161 L114.840883,120.246553 L114.485857,120.345337 C114.364519,120.381259 114.288121,120.396975 114.011741,120.491269 C113.557847,120.64618 113.09946,120.819053 112.670283,121.003151 C112.01416,121.326445 111.373766,121.665455 110.83898,122.02018 C109.751434,122.727386 108.845894,123.457043 108.084162,124.123837 C106.553957,125.459671 105.342825,126.631612 104.428297,127.266975 C103.987886,127.579043 103.648589,127.74518 103.51377,127.814778 C103.96991,127.72722 103.596908,127.801308 103.680047,127.785592 L103.603649,127.801308 L103.450854,127.834984 L103.147509,127.900092 L102.855399,127.962955 L102.752037,127.96969 C102.682381,127.976425 102.623959,127.992141 102.54082,128.007857 L102.127372,128.030308 C101.008368,128.097661 99.5950063,127.938259 98.1209762,127.781102 C96.619982,127.637416 95.0583189,127.421886 93.1528653,127.563327 C92.6607729,127.614965 92.2046325,127.644151 91.6676001,127.774367 C91.4069484,127.834984 91.1597787,127.884376 90.8968801,127.96071 C90.6249934,128.052759 90.3553537,128.151543 90.0902081,128.252573 C89.5711517,128.425445 89.0228844,128.784661 88.533039,129.076524 C88.551015,129.058563 87.9892657,129.464925 88.2094714,129.310014 L88.1667784,129.345935 L88.0813925,129.422269 L87.9106208,129.570445 L87.739849,129.716376 L87.6567101,129.790465 L87.4859383,129.954357 C87.2544976,130.185602 87.0320448,130.425827 86.8208271,130.670543 C86.7174652,130.789533 86.6073624,130.919749 86.5219765,131.034249 L86.3174997,131.344073 C86.0478601,131.759416 85.7961964,132.174759 85.6344126,132.572141 C85.5445327,132.7742 85.4568998,132.974014 85.3692669,133.171582 C85.306351,133.362416 85.243435,133.551004 85.1805191,133.737347 C85.1220972,133.92369 85.0636753,134.107788 85.0075003,134.291886 C84.9670544,134.464759 84.9288554,134.635386 84.8906565,134.803769 C84.5962998,136.157563 84.5154079,137.275622 84.477209,138.223053 C84.441257,139.174975 84.43901,139.9877 84.4300221,140.67919 C84.4165401,142.066661 84.3738471,143.023073 84.3131782,143.638229 C84.2435213,144.235425 84.2075693,144.543004 84.2075693,144.543004 L84.1828524,144.736082 C84.0075866,146.220092 84.9355964,147.652465 86.4208616,148.063318 C88.0611696,148.519073 89.7598995,147.558171 90.2160399,145.919249 C90.2160399,145.919249 90.3396248,145.476965 90.5238785,144.639543 C90.7081323,143.806612 90.8946331,142.594259 91.0743929,141.143925 C91.1665197,140.418759 91.2586466,139.646445 91.3799845,138.858416 C91.4968283,138.070386 91.6496241,137.284602 91.8675829,136.642504 L91.9484748,136.400033 L92.0428487,136.206955 L92.1282346,136.011631 L92.2271024,135.872435 C92.3259703,135.659151 92.543929,135.558122 92.3529343,135.708543 C92.8337917,135.322386 92.6652669,135.510975 92.8090747,135.468318 C92.8427797,135.470563 92.8742376,135.466073 92.9012016,135.454847 L93.0742204,135.452602 C93.1663473,135.432396 93.368577,135.448112 93.5371018,135.443622 C94.2898459,135.445867 95.5144594,135.661396 96.9120917,135.933053 C98.3366879,136.193484 99.9635139,136.56168 102.048727,136.653729 L102.841917,136.67618 C103.160991,136.6672 103.507029,136.646994 103.844078,136.624543 L104.351899,136.584131 L104.668726,136.54372 L104.976565,136.503308 L105.129361,136.483102 L105.208005,136.471876 C105.340578,136.444935 105.019258,136.516778 105.524832,136.411259 C107.012344,136.083475 108.207747,135.486278 109.232377,134.889082 C111.241193,133.669994 112.663542,132.390288 114.002753,131.402445 C114.667864,130.892808 115.272306,130.499916 115.807091,130.208053 C116.078978,130.050896 116.305925,129.974563 116.521636,129.878024 C116.546353,129.889249 116.544106,129.895984 116.546353,129.880269 C116.496919,129.878024 116.658703,129.846592 116.775547,129.824141 L117.135067,129.747808 L117.317073,129.711886 C117.330555,129.709641 117.335049,129.707396 117.344037,129.705151 C117.242923,129.727602 117.04294,129.770259 117.078892,129.763524 L117.099115,129.770259 C117.121585,129.776994 117.146302,129.779239 117.168772,129.781484 C117.195736,129.770259 117.287863,129.78822 117.375495,129.80169 L117.503574,129.808425 L117.687828,129.846592 C117.811413,129.869043 117.928257,129.880269 118.094535,129.927416 C118.694483,130.055386 119.487673,130.304592 120.408942,130.627886 C121.330211,130.944445 122.366076,131.321622 123.579455,131.687573 C124.788339,132.044543 126.22417,132.412739 128.019521,132.484582 L128.358818,132.498053 L128.810464,132.482337 C129.111562,132.468867 129.414907,132.446416 129.716004,132.417229 L130.154169,132.370082 L130.356398,132.336406 L130.763105,132.266808 L130.86422,132.251092 C131.068697,132.203945 130.554134,132.331916 131.345077,132.141082 L131.731561,132.024337 L132.500034,131.763906 C133.014596,131.584298 133.432538,131.348563 133.897666,131.121808 C135.641336,130.165396 136.838985,129.036112 137.834405,128.030308 C138.823084,127.015524 139.620768,126.070337 140.335313,125.253122 C141.047611,124.440396 141.694746,123.760131 142.191333,123.362749 L142.368846,123.214573 C142.377834,123.221308 142.380081,123.219063 142.380081,123.219063 L142.377834,123.210082 C142.391316,123.201102 142.337388,123.219063 142.434009,123.167425 L142.822739,122.947406 C142.802516,122.963122 142.984523,122.898014 143.222705,122.835151 C143.737267,122.700445 144.681006,122.57921 145.813492,122.489406 C146.954967,122.388376 148.298671,122.312043 149.889545,122.065082 L151.141123,121.829347 C151.597263,121.714847 152.030934,121.616063 152.50505,121.470131 C152.999389,121.297259 153.45553,121.169288 153.97908,120.929063 C154.520607,120.670876 154.927313,120.52719 155.666575,120.044494 C155.996884,119.83121 156.322698,119.6067 156.635031,119.37321 L156.787827,119.256465 L156.879954,119.180131 L157.06196,119.027465 L157.246214,118.874798 L157.338341,118.798465 C157.28666,118.854592 158.032663,118.151876 157.807964,118.349445 C158.052886,118.086769 158.291068,117.812867 158.520262,117.534475 C158.996625,116.9732 159.295476,116.423151 159.646007,115.839425 C159.897671,115.316318 160.189781,114.723612 160.358305,114.22969 C161.09532,112.166445 161.288562,110.527524 161.488545,109.110867 C161.668305,107.700945 161.798631,106.502063 161.982884,105.550141 L162.126692,104.896818 L162.272747,104.407386 C162.281735,104.393916 162.288476,104.3782 162.288476,104.362484 L162.283982,104.335543 C162.279488,104.331053 162.344651,104.203082 162.369368,104.14471 L162.51767,103.828151 C162.519917,103.821416 162.522164,103.819171 162.526658,103.807945 C162.531152,103.812435 162.533399,103.819171 162.533399,103.819171 C162.483965,103.870808 162.679454,103.659769 162.890671,103.435259 C163.178287,103.168092 163.517583,102.858269 163.980465,102.483337 C164.877017,101.742455 166.047702,100.866867 167.339726,99.6994157 C167.658799,99.4142882 168.00259,99.0685431 168.330652,98.7497392 C168.672195,98.3882784 169.013739,98.0223275 169.353035,97.6249451 C169.694579,97.1781706 170.033875,96.7942588 170.35969,96.2756412 L170.842794,95.516798 L170.959638,95.3237196 L171.098952,95.0565529 L171.366345,94.5109941 C171.530376,94.1607588 171.714629,93.7297 171.826979,93.431102 L171.993257,92.9394255 L172.078643,92.6947098 C171.984269,93.0269843 172.249415,92.1177196 172.247168,92.0885333 L172.310084,91.7944255 C172.388729,91.4015333 172.453891,91.004151 172.507819,90.6090137 C172.541524,90.2385725 172.552759,89.8860922 172.563994,89.5246314 L172.570735,88.9835627 L172.539277,88.507602 L172.453891,87.5579255 L172.314578,86.7294843 C171.896636,84.5562294 171.298935,83.0767098 170.856276,81.7565922 C170.400136,80.4634157 170.058592,79.3812784 169.92602,78.6314157 L169.872092,78.2070922 C169.878833,78.2205627 169.876586,78.2362784 169.867598,78.249749 C169.863104,78.2430137 169.849622,78.294651 169.849622,78.2407686 L169.863104,77.973602 L169.869845,77.8231804 C169.872092,77.8209353 169.876586,77.8164451 169.876586,77.8142 C169.890068,77.7939941 169.887821,77.7782784 169.894562,77.7468471 C170.038369,77.3719157 170.588884,76.3975431 171.350616,75.2480529 C172.114595,74.058151 173.07631,72.6482294 173.98185,70.7466314 C174.43799,69.7610333 174.840203,68.7731902 175.172758,67.3228569 C175.258144,66.9052686 175.330048,66.4854353 175.38847,66.065602 L175.428916,65.7490431 L175.440151,65.607602 L175.460374,65.3337 L175.480597,65.0620431 L175.491832,64.9250922 C175.494079,64.9991804 175.516549,63.9754157 175.50082,64.2425824 L175.50082,64.2425824 Z M33.396221,108.185886 C33.4681249,108.190376 33.6074387,108.208337 33.6254147,108.212827 L33.6478847,108.219563 C33.7984335,108.282425 33.6141797,108.27569 33.2591542,108.190376 C33.3063411,108.190376 33.3490341,108.183641 33.396221,108.185886 L33.396221,108.185886 Z M17.186383,105.372778 C17.206606,105.40421 17.220088,105.440131 17.2380639,105.473808 C17.2290759,105.469318 17.213347,105.464827 17.206606,105.460337 L17.161666,105.366043 L17.1212201,105.28522 C17.1302081,105.28971 17.16616,105.343592 17.186383,105.372778 L17.186383,105.372778 Z M11.8587526,33.0828667 C11.8654936,33.0761314 11.8834695,33.0491902 11.8812225,33.0559255 L11.8430236,33.136749 L11.7801077,33.2714549 C11.7688727,33.2826804 11.7598847,33.2939059 11.7441557,33.3096216 C11.7688727,33.2400235 11.8093186,33.136749 11.8587526,33.0828667 L11.8587526,33.0828667 Z M5.32448463,56.7282392 C5.34470761,56.6676216 5.32897863,56.6743569 5.36043659,56.6474157 C5.34470761,56.6743569 5.33571962,56.6990529 5.32448463,56.7282392 L5.32448463,56.7282392 Z M5.24583973,56.9011118 C5.24359273,56.8180431 5.25258072,56.7349745 5.27505069,56.654151 L5.2728037,56.8562098 C5.26381571,56.8741706 5.25482772,56.8898863 5.24583973,56.9078471 L5.24583973,56.9011118 L5.24583973,56.9011118 Z M6.15587361,78.8402098 C6.14688562,78.7795922 6.14014463,78.7189745 6.13789763,78.6583569 L6.13789763,78.5685529 C6.13789763,78.5326314 6.13789763,78.4989549 6.14463862,78.5438569 L6.21204854,78.8267392 L6.22777752,78.9008275 C6.21878953,78.9345039 6.20755454,78.9681804 6.19407256,79.0018569 C6.18283757,78.9479745 6.1626146,78.8963373 6.15587361,78.8402098 L6.15587361,78.8402098 Z M6.2435065,78.8559255 L6.21429553,78.5550824 L6.21204854,78.5438569 C6.21204854,78.5146706 6.21654253,78.4877294 6.22328352,78.4585431 C6.23227151,78.431602 6.2457535,78.4024157 6.26372947,78.3777196 C6.27047047,78.364249 6.26822347,78.364249 6.27721146,78.3597588 C6.28844644,78.3530235 6.33113939,78.3328176 6.31541041,78.3911902 C6.33563338,78.4607882 6.31091642,78.6269255 6.2435065,78.8559255 L6.2435065,78.8559255 Z M12.305905,87.5534353 C12.314893,87.5579255 12.3665739,87.6005824 12.36208,87.6342588 L12.36208,87.638749 C12.3688209,87.7128373 12.3733149,87.7577392 12.3778089,87.8138667 C12.323881,87.7150824 12.287929,87.6320137 12.285682,87.5893569 C12.2587181,87.5422098 12.319387,87.5579255 12.305905,87.5534353 L12.305905,87.5534353 Z M12.4115139,87.867749 L12.4137609,87.798151 L12.4182549,87.6185431 L12.4205019,87.5736412 C12.4205019,87.5736412 12.4272429,87.6028275 12.4317369,87.6140529 L12.4497128,87.7240627 C12.4587008,87.7914157 12.4474658,87.8587686 12.4452188,87.9261216 C12.4339839,87.9059157 12.4227489,87.8879549 12.4115139,87.867749 L12.4115139,87.867749 Z M13.0474141,68.8315627 C13.0429201,68.8854451 13.0271911,68.9438176 13.0137091,68.9999451 C13.0114621,68.9977 13.0092152,68.9954549 13.0069682,68.9909647 C13.0092152,68.9909647 13.0092152,68.9909647 13.0092152,68.9887196 C13.0159561,68.8966706 13.0271911,68.7799255 13.0384261,68.6429745 L13.0474141,68.5374549 L13.0564021,68.6295039 C13.0586491,68.6923667 13.0564021,68.7597196 13.0474141,68.8315627 L13.0474141,68.8315627 Z M15.543828,46.4501804 C15.559557,46.4569157 15.555063,46.4524255 15.55731,46.5018176 C15.552816,46.486102 15.548322,46.4614059 15.543828,46.4501804 L15.543828,46.4501804 Z M26.0148351,29.0888373 C26.0283171,29.0618961 26.0328111,29.0214843 26.0328111,29.0484255 C26.0328111,29.0753667 26.0260701,29.0776118 26.0148351,29.0888373 L26.0148351,29.0888373 Z M29.7987784,15.8562294 C29.8077664,15.8517392 29.8100134,15.8494941 29.8190014,15.8450039 C29.8234954,15.8450039 29.8279894,15.8405137 29.8324834,15.8427588 C29.8279894,15.8427588 29.8100134,15.8539843 29.7987784,15.8562294 L29.7987784,15.8562294 Z M29.7897905,15.8584745 L29.8010254,15.847249 C29.8055194,15.8450039 29.8100134,15.8450039 29.8145074,15.8450039 C29.8032724,15.8517392 29.8032724,15.8517392 29.7897905,15.8584745 L29.7897905,15.8584745 Z M29.8392244,15.8045922 L29.7133925,15.8854157 C29.6954166,15.8899059 29.6774406,15.8943961 29.6594646,15.8988863 C29.6617116,15.8966412 29.6639586,15.892151 29.6684526,15.8899059 C29.7178865,15.8562294 29.7718145,15.824798 29.8257424,15.7956118 L29.9111283,15.7574451 C29.9201163,15.7552 29.8594474,15.7911216 29.8392244,15.8045922 L29.8392244,15.8045922 Z M43.0133691,19.8457686 C43.0088751,19.8457686 43.0066281,19.8480137 43.0021342,19.8457686 C42.9841582,19.8390333 42.9953932,19.8412784 43.0133691,19.8457686 L43.0133691,19.8457686 Z M52.866452,8.14656275 C52.9361089,8.13309216 52.87544,8.14880784 52.834994,8.16003333 L52.8035361,8.16901373 C52.7855601,8.16676863 52.7675841,8.16452353 52.7518551,8.16452353 C52.7496081,8.16452353 52.7496081,8.16227843 52.7473611,8.16227843 C52.7878071,8.15329804 52.828253,8.14880784 52.866452,8.14656275 L52.866452,8.14656275 Z M64.6968924,15.5980431 L64.7148684,15.6047784 C64.6744224,15.6002882 64.7171154,15.6070235 64.6968924,15.5980431 L64.6968924,15.5980431 Z M76.34982,5.75104314 C76.34982,5.75104314 76.34982,5.75104314 76.347573,5.75104314 C76.343079,5.74879804 76.340832,5.74879804 76.338585,5.74655294 C76.363302,5.74655294 76.367796,5.74879804 76.34982,5.75104314 L76.34982,5.75104314 Z M76.4711579,5.78471961 C76.4734049,5.78471961 76.4756519,5.78247451 76.4778989,5.78471961 C76.4936278,5.7937 76.4846399,5.7914549 76.4711579,5.78471961 L76.4711579,5.78471961 Z M88.0027476,14.8100137 C88.0117356,14.8055235 88.0207236,14.8010333 88.0297116,14.7965431 C88.1173445,14.8032784 88.1510495,14.8100137 88.0027476,14.8100137 L88.0027476,14.8100137 Z M148.15711,27.3915431 C148.161604,27.4095039 148.168345,27.4252196 148.184074,27.4409353 L148.186321,27.4454255 C148.17958,27.4409353 148.175086,27.4364451 148.170592,27.4297098 C148.163851,27.4252196 148.159357,27.4050137 148.15711,27.3915431 L148.15711,27.3915431 Z M159.533657,43.1723373 C159.533657,43.1678471 159.53141,43.165602 159.53141,43.1611118 C159.547139,43.1027392 159.540398,43.1296804 159.533657,43.1723373 L159.533657,43.1723373 Z M149.258139,110.195249 C149.255892,110.195249 149.253645,110.197494 149.251398,110.199739 L149.253645,110.197494 C149.255892,110.195249 149.255892,110.195249 149.258139,110.195249 L149.258139,110.195249 Z M149.249151,110.199739 C149.246904,110.199739 149.244657,110.201984 149.24241,110.204229 C149.235669,110.20872 149.228928,110.21321 149.224434,110.2177 C149.226681,110.21321 149.233422,110.20872 149.237916,110.204229 C149.24241,110.201984 149.244657,110.201984 149.249151,110.199739 L149.249151,110.199739 Z M149.204211,110.22219 C149.21994,110.21321 149.21994,110.21321 149.231175,110.206475 L149.215446,110.22219 C149.210952,110.22668 149.195223,110.231171 149.188482,110.235661 C149.195223,110.231171 149.199717,110.224435 149.204211,110.22219 L149.204211,110.22219 Z M149.035686,110.377102 C149.06265,110.34118 149.098602,110.316484 149.134554,110.287298 C149.132307,110.289543 149.13006,110.294033 149.13006,110.298524 L149.071638,110.352406 C149.037933,110.383837 149.006475,110.410778 149.035686,110.377102 L149.035686,110.377102 Z M160.02575,89.3742098 C160.023503,89.3742098 160.02575,89.3719647 160.02575,89.3697196 L160.032491,89.3944157 C160.027997,89.3876804 160.02575,89.3809451 160.02575,89.3742098 L160.02575,89.3742098 Z M162.537893,64.7567098 C162.542387,64.7656902 162.544634,64.7701804 162.549128,64.7791608 L162.542387,64.898151 L162.531152,64.853249 C162.526658,64.8195725 162.535646,64.7881412 162.537893,64.7567098 L162.537893,64.7567098 Z M162.542387,64.669151 L162.542387,64.669151 C162.546881,64.6579255 162.546881,64.6579255 162.549128,64.6511902 C162.546881,64.6556804 162.544634,64.6624157 162.542387,64.669151 L162.542387,64.669151 Z M162.553622,30.5369255 C162.573845,30.5728471 162.513176,30.4897784 162.4952,30.4650824 C162.490706,30.4538569 162.488459,30.4426314 162.483965,30.4291608 C162.492953,30.4426314 162.504188,30.4538569 162.513176,30.4673275 L162.553622,30.5369255 Z M162.51767,30.5548863 L162.51767,30.5503961 C162.51767,30.548151 162.51767,30.5503961 162.51767,30.5503961 C162.526658,30.548151 162.526658,30.5571314 162.51767,30.5548863 L162.51767,30.5548863 Z M169.874339,77.8097098 C169.874339,77.8119549 169.872092,77.8119549 169.872092,77.8142 L169.874339,77.7648078 L169.876586,77.7737882 C169.876586,77.7850137 169.876586,77.7984843 169.874339,77.8097098 L169.874339,77.8097098 Z M170.09005,53.0575039 L170.09005,53.0552588 C170.09005,53.0485235 170.092297,53.0395431 170.094544,53.0350529 L170.099038,53.1113863 L170.09005,53.0575039 Z" id="Fill-11"></path>
                                </g>
                                <path d="M160.016312,396.873614 L160.016312,396.873614 L160.009571,396.880349 C160.000583,396.896065 159.991595,396.91178 159.984854,396.929741 C159.993842,396.909535 160.00283,396.891575 160.016312,396.873614 L160.016312,396.873614 Z" id="Fill-14"></path>
                                <path d="M128.228941,429.575038 L128.251411,429.570548 C128.24467,429.568303 128.237929,429.566058 128.231188,429.566058 C128.213212,429.563813 128.195236,429.570548 128.17726,429.575038 C128.186248,429.572793 128.197483,429.575038 128.206471,429.575038 L128.228941,429.575038" id="Fill-16"></path>
                                <path d="M133.766441,52.7328627 C121.922519,48.0338725 103.247725,49.9466961 92.9834417,56.9065 C86.8850912,61.0419706 85.6065498,65.6848333 85.6065498,68.8504216 C85.6065498,71.5894412 87.2535988,73.3046961 88.5793271,74.6831863 C90.7409385,76.9327745 94.360851,80.6955588 94.360851,93.9169412 C94.360851,96.3034804 96.2977626,98.2387549 98.6863207,98.2387549 C101.074879,98.2387549 103.01179,96.3034804 103.01179,93.9169412 C103.01179,82.9922941 116.936432,75.6979706 127.104095,70.372598 C134.955103,66.2595784 139.691773,63.7787451 139.442356,59.0101569 C139.298549,56.2823627 137.390848,54.1697255 133.766441,52.7328627" id="Fill-18"></path>
                                <g id="Group-22" transform="translate(42.692947, -0.000000)">
                                    <path d="M97.3361,22.6218324 C90.2153658,10.6891363 71.5563008,-1.25478529 40.5657151,1.00153824 C23.5289821,2.24307745 4.16885396,8.92673431 0.917448968,23.964401 C-0.819479889,31.9951167 3.12624724,39.97195 11.2693652,45.261401 C13.7298272,42.8501657 17.118299,39.9135775 21.4212987,37.0510775 C17.8328441,34.4916657 13.4264825,33.3646265 13.3792956,33.353401 C11.7524696,32.9582637 10.7570498,31.3215873 11.1525213,29.6983814 C11.5457459,28.0729304 13.1905478,27.0805971 14.8083858,27.4734892 C15.0982485,27.5430873 21.940355,29.2448716 26.834315,33.6385284 C26.870267,33.6699598 26.8949839,33.7081265 26.9286889,33.7418029 C37.7524745,27.9314892 54.362278,22.8643029 75.7177397,27.971901 C77.3445657,28.3603029 78.3467265,29.9924892 77.9602429,31.6179402 C77.5692654,33.2433912 75.9356984,34.2447049 74.3088724,33.8563029 C57.4002183,29.8151265 41.6937077,31.9771559 27.629752,40.2885088 C21.7448663,43.7639206 17.3924326,47.6479402 14.669072,50.4296167 C16.0082824,54.7985775 18.9608367,58.9026167 29.3464579,58.9026167 C35.9863347,58.9026167 41.3544111,56.3476951 47.0393141,53.6401069 C55.5059996,49.6079108 65.1051718,45.0368912 82.8227449,46.8801167 C92.5477489,47.8904108 96.8867006,43.52145 98.6079005,40.8273324 C101.713251,35.9689402 101.239134,29.164048 97.3361,22.6218324" id="Fill-20"></path>
                                </g>
                            </g>
                            <path d="M162.806184,33.7482015 L223.441404,33.6359466" id="Stroke-24" stroke="#B355A0"></path>
                            <path d="M223.441404,38.1261426 C225.924336,38.1261426 227.935399,36.1145348 227.935399,33.6359466 C227.935399,31.1551132 225.924336,29.1457505 223.441404,29.1457505 C220.958472,29.1457505 218.94741,31.1551132 218.94741,33.6359466 C218.94741,36.1145348 220.958472,38.1261426 223.441404,38.1261426" id="Fill-25" fill="#B355A0"></path>
                            <path d="M162.806184,169.163984 L223.441404,169.051729" id="Stroke-27" stroke="#B355A0"></path>
                            <path d="M223.441404,173.5417 C225.924336,173.5417 227.935399,171.530093 227.935399,169.051504 C227.935399,166.570671 225.924336,164.561308 223.441404,164.561308 C220.958472,164.561308 218.94741,166.570671 218.94741,169.051504 C218.94741,171.530093 220.958472,173.5417 223.441404,173.5417" id="Fill-28" fill="#B355A0"></path>
                            <path d="M162.806184,306.250793 L223.441404,306.138538" id="Stroke-30" stroke="#B355A0"></path>
                            <path d="M223.441404,310.628734 C225.924336,310.628734 227.935399,308.617126 227.935399,306.138538 C227.935399,303.657704 225.924336,301.648342 223.441404,301.648342 C220.958472,301.648342 218.94741,303.657704 218.94741,306.138538 C218.94741,308.617126 220.958472,310.628734 223.441404,310.628734" id="Fill-31" fill="#B355A0"></path>
                            <path d="M162.806184,401.936198 L223.441404,401.823943" id="Stroke-33" stroke="#B355A0"></path>
                            <path d="M223.441404,406.313914 C225.924336,406.313914 227.935399,404.302306 227.935399,401.823718 C227.935399,399.342885 225.924336,397.333522 223.441404,397.333522 C220.958472,397.333522 218.94741,399.342885 218.94741,401.823718 C218.94741,404.302306 220.958472,406.313914 223.441404,406.313914" id="Fill-34" fill="#B355A0"></path>
                        </g>
                    </g>
                </g>
            </g>
        </g>
    </g>
</svg>