<?xml version="1.0" encoding="UTF-8" standalone="no"?>
<svg width="568px" height="520px" viewBox="0 0 568 520" version="1.1" xmlns="http://www.w3.org/2000/svg" xmlns:xlink="http://www.w3.org/1999/xlink">
    <!-- Generator: Sketch 41 (35326) - http://www.bohemiancoding.com/sketch -->
    <title>Group</title>
    <desc>Created with Sketch.</desc>
    <defs></defs>
    <g id="Products" stroke="none" stroke-width="1" fill="none" fill-rule="evenodd">
        <g id="Mobile-Portrait" transform="translate(0.000000, -1228.000000)">
            <g id="We-Love-your-Guts" transform="translate(-330.000000, 1097.000000)">
                <g id="Group" transform="translate(300.000000, 128.000000)">
                    <text id="“The-Second-Brain”:" font-family="Circular-Medium, Circular" font-size="24" font-weight="400" line-spacing="29" letter-spacing="-0.129999995" fill="#FFFFFF">
                        <tspan x="269.566837" y="24.1943843">“The Second Brain”: Our </tspan>
                        <tspan x="269.566837" y="53.1943843">digestive system is the second </tspan>
                        <tspan x="269.566837" y="82.1943843">largest part of our </tspan>
                        <tspan x="269.566837" y="111.194384">neurological system, most </tspan>
                        <tspan x="269.566837" y="140.194384">illnesses originate in the gut.</tspan>
                        <tspan x="269.566837" y="179.194384">Appetite: Probiotics are the </tspan>
                        <tspan x="269.566837" y="208.194384">fastest growing functional </tspan>
                        <tspan x="269.566837" y="237.194384">food on the market with a </tspan>
                        <tspan x="269.566837" y="266.194384">growth rate of 7% year over </tspan>
                        <tspan x="269.566837" y="295.194384">year. †</tspan>
                        <tspan x="269.566837" y="334.194384">Need: More than 20 million </tspan>
                        <tspan x="269.566837" y="363.194384">Canadians suffer from </tspan>
                        <tspan x="269.566837" y="392.194384">digestive disorders every year. </tspan>
                        <tspan x="269.566837" y="421.194384">††</tspan>
                        <tspan x="269.566837" y="460.194384">Reality: 80 percent of your </tspan>
                        <tspan x="269.566837" y="489.194384">entire immune system is </tspan>
                        <tspan x="269.566837" y="518.194384">located in your digestive tract</tspan>
                        <tspan x="592.872838" y="518.194384">.</tspan>
                    </text>
                    <g id="Digestive-System" transform="translate(122.977933, 259.273655) rotate(-360.000000) translate(-122.977933, -259.273655) translate(0.977933, 2.773655)">
                        <g id="Group-23" transform="translate(-0.000000, 0.367018)" fill="#FEFEFE">
                            <path d="M113.352297,170.485734 C110.608758,170.485734 108.383987,168.315103 108.383987,165.638326 L108.383987,120.588908 C108.383987,117.912131 110.608758,115.7415 113.352297,115.7415 C116.095836,115.7415 118.320606,117.912131 118.320606,120.588908 L118.320606,165.638326 C118.320606,168.315103 116.095836,170.485734 113.352297,170.485734" id="Fill-1"></path>
                            <path d="M164.364314,232.155341 C160.428381,225.925478 154.009584,219.186951 147.213969,212.050559 C133.671778,197.828138 118.320348,181.71208 118.320348,165.63883 L113.352039,165.63883 L113.352039,165.63883 L113.352039,165.63883 L108.383729,165.63883 C108.383729,184.522317 112.327405,200.248065 115.494219,212.884061 C118.877831,226.38126 121.324562,236.133993 117.06343,241.429629 C112.167387,247.515959 96.9553277,250.351378 69.189577,250.351378 L64.2212678,250.351378 L64.2212678,255.198786 C64.2212678,268.897436 69.8554595,300.759386 122.044644,300.759386 C139.094332,300.759386 153.194007,292.525088 161.749822,277.572407 C170.372742,262.501375 171.472223,243.401328 164.364314,232.155341" id="Fill-3"></path>
                            <path d="M44.3475149,470.639257 L34.4108965,470.639257 C34.4108965,461.432959 42.0866116,453.944029 51.5225276,453.944029 L153.229624,453.944029 C160.079438,453.944029 165.651687,448.507377 165.651687,441.824249 C165.651687,435.141121 160.079438,429.706988 153.229624,429.706988 L51.8012691,429.706988 C39.4721196,429.706988 29.4425874,419.919001 29.4425874,407.892393 C29.4425874,395.865784 39.4721196,386.077797 51.8012691,386.077797 L135.841832,386.077797 C152.277257,386.077797 165.651687,373.031345 165.651687,356.993349 C165.651687,340.957871 152.277257,327.9089 135.841832,327.9089 L69.1890608,327.9089 C47.2743007,327.9089 29.4425874,310.51363 29.4425874,289.129636 C29.4425874,267.748159 47.2743007,250.350371 69.1890608,250.350371 L69.1890608,260.045187 C52.751055,260.045187 39.3792057,273.09164 39.3792057,289.129636 C39.3792057,305.167631 52.751055,318.214084 69.1890608,318.214084 L135.841832,318.214084 C157.756592,318.214084 175.588305,335.611872 175.588305,356.993349 C175.588305,378.377343 157.756592,395.772613 135.841832,395.772613 L51.8012691,395.772613 C44.9514548,395.772613 39.3792057,401.209265 39.3792057,407.892393 C39.3792057,414.57552 44.9514548,420.012172 51.8012691,420.012172 L153.229624,420.012172 C165.558773,420.012172 175.588305,429.797641 175.588305,441.824249 C175.588305,453.853376 165.558773,463.638845 153.229624,463.638845 L51.5225276,463.638845 C47.5659469,463.638845 44.3475149,466.778958 44.3475149,470.639257" id="Fill-5"></path>
                            <path d="M46.2365048,352.002407 L46.2519904,351.999889 C46.3707136,351.967153 46.4120087,351.954562 46.2365048,352.002407" id="Fill-7"></path>
                            <g id="Group-13" transform="translate(0.000000, 344.984367)">
                                <path d="M201.583273,72.0553991 C201.562626,71.5593267 201.523912,71.0607362 201.46455,70.5646637 C201.175485,68.6810995 200.540574,67.1248926 199.910824,65.9237427 C199.281075,64.7528103 198.612612,63.7430386 198.034481,62.9548626 C197.724768,62.5141891 197.471836,62.1893498 197.185352,61.8040753 L196.454946,60.8320756 C195.977472,60.2075783 195.662597,59.7341691 195.427732,59.356449 L195.404503,59.318677 C195.53355,58.8100139 195.956825,57.666781 196.529793,56.3044705 C196.860154,55.4785225 197.229228,54.6022119 197.598302,53.4514246 C197.781549,52.9301709 197.959634,52.2326477 198.119652,51.5880054 C198.266766,50.8350833 198.408717,50.1199332 198.455174,49.1781511 L198.488727,48.5133637 C198.483565,48.1860063 198.465498,47.8284312 198.437108,47.4884831 C198.408717,47.1434988 198.367422,46.7985144 198.313223,46.4585663 L198.233214,45.9876752 L198.19708,45.8340691 L198.127395,45.5268567 L198.091262,45.3732505 C198.235794,45.8718411 197.864139,44.5447844 197.83833,44.5170849 C197.642178,44.0033856 197.420217,43.4896862 197.18019,42.9910957 C196.173624,41.0773138 194.885735,39.7502571 193.752702,38.7631486 C191.502122,36.9098019 189.674817,36.0007555 188.340471,35.1873982 C187.672008,34.7920512 187.106782,34.4420305 186.784164,34.1952534 C186.709317,34.1448907 186.660279,34.1046006 186.616403,34.0693467 C186.533813,33.7570981 186.417671,33.2710982 186.311852,32.55343 L185.916969,29.9975239 C185.75695,29.0280423 185.532409,27.8722187 185.132363,26.5602709 L184.79426,25.5429447 L184.321948,24.4274113 C184.179996,24.0773907 183.924483,23.6392354 183.705103,23.2489246 L183.354095,22.6571631 C183.219886,22.4431217 182.977278,22.1208005 182.781127,21.8639509 C182.572071,21.5945105 182.352691,21.3301064 182.125568,21.0732568 L181.779722,20.6955367 C181.627447,20.5318579 181.650675,20.5645937 181.593894,20.5091947 L181.126744,20.063485 C181.229982,20.1415472 180.04275,19.1368117 180.355043,19.4238789 L179.967902,19.1544386 C179.709808,18.9756511 179.443972,18.804418 179.175554,18.6407393 C178.625814,18.298273 178.158663,18.1194855 177.62699,17.8802628 C175.611276,17.0719417 173.949151,16.8755273 172.632871,16.7672475 C171.342401,16.6791128 170.21195,16.6841491 169.293135,16.6992579 C168.361416,16.7143667 167.538096,16.7370299 166.895442,16.7244392 C166.322473,16.7244392 165.896618,16.6891854 165.604972,16.6514133 C165.362364,16.3769367 164.998451,15.9035275 164.562272,15.2991753 C164.110608,14.6822325 163.563449,13.9066472 162.915633,13.0655904 C162.280722,12.2320881 161.45224,11.2525339 160.430188,10.2603891 C159.854638,9.73913532 159.307479,9.23802664 158.553844,8.72180916 C158.068628,8.31135331 156.517483,7.46526026 155.614154,7.11272149 L155.007633,6.88357129 C154.682435,6.77780966 155.518659,7.0396956 154.241094,6.63175788 L153.79201,6.52599625 C153.490041,6.45800663 153.18549,6.39757141 152.880939,6.3446906 C152.240866,6.2187839 151.732421,6.20367509 151.190423,6.18101188 L150.380008,6.16842121 L149.688316,6.21122949 C148.712721,6.27670098 147.987477,6.42527089 147.220938,6.57635893 C146.573122,6.73500138 145.876268,6.90875263 145.354918,7.07998575 C143.112081,7.79009955 141.630622,8.41963307 140.520818,8.73691796 C140.345314,8.78476251 140.185296,8.82505266 140.038182,8.86030653 C139.705241,8.60849313 139.279386,8.26854503 138.758036,7.8228353 C138.141191,7.30158154 137.483052,6.71989257 136.628761,6.03999638 C136.244201,5.72019335 135.733174,5.34750951 135.268605,5.00252514 L134.453028,4.45357191 L134.037497,4.18161343 L133.554861,3.90210055 C133.224501,3.71827677 132.925112,3.53948925 132.558618,3.36070173 C132.17922,3.18191421 131.79466,3.00816296 131.404938,2.84196611 L131.10813,2.71857754 L130.664209,2.5674895 C130.367401,2.46928227 130.068012,2.37862944 129.766042,2.29553102 C129.464072,2.21243259 129.159521,2.13688857 128.85497,2.06889895 C128.653657,2.02357254 128.697532,2.03868134 128.617523,2.02357254 L128.460086,1.9983912 L128.145211,1.94551038 L127.987774,1.91781091 C128.493638,1.97824612 127.148969,1.80701301 127.09735,1.81708554 C126.511476,1.78686793 125.91786,1.7843498 125.329406,1.80701301 C124.281544,1.89262957 123.228521,2.07393522 122.443915,2.30812169 C120.766304,2.77397649 119.558425,3.35062919 118.572506,3.84921974 C117.547872,4.36543722 116.758105,4.82625576 116.038023,5.22663907 C115.194055,5.71767522 114.453326,6.09287719 113.973271,6.30943672 C113.702272,6.15331241 113.369331,5.95186168 112.958961,5.67738507 L110.84001,4.27982066 C110.019271,3.75101251 109.041095,3.159251 107.871929,2.58008017 C107.585445,2.43654652 107.229275,2.28797661 106.906657,2.14947924 C106.58404,2.00846373 106.25368,1.86996636 105.848472,1.73902339 C105.453588,1.60808042 105.089676,1.48972811 104.666402,1.36885768 C104.077947,1.22532404 103.476588,1.10948987 102.872648,1.02387331 C102.093205,0.915593547 102.111271,0.943293022 101.86092,0.920629815 L101.553788,0.900484743 C101.855758,0.910557279 100.991143,0.870267134 100.92662,0.88033967 L100.565288,0.890412207 C100.080072,0.908039145 99.5948549,0.940774888 99.1148001,0.986101301 C98.6579737,1.04401838 98.2372806,1.12963494 97.8011017,1.2152515 L97.1558668,1.35626701 L96.5906409,1.52246386 C96.2189856,1.63829802 95.8344256,1.75665033 95.4782559,1.88507516 C94.8536684,2.13688857 94.141329,2.41640145 93.627722,2.6858418 C91.39779,3.78878452 89.8827783,4.87158217 88.6981269,5.60184105 C88.1638724,5.94430728 87.7638267,6.16842121 87.4308855,6.34972687 C87.3741048,6.32958179 87.3199051,6.31447299 87.2321531,6.27166471 C86.4449665,5.95186168 85.2758007,5.30470123 83.6885227,4.46364445 C83.2755723,4.24960305 82.8910123,4.04563419 82.4006337,3.81396586 L81.6857134,3.47653589 L80.8752983,3.12903339 C80.6223662,3.01823549 80.3049106,2.89988319 79.9797122,2.78908529 C79.6545137,2.67576926 79.3602866,2.5674895 79.0041169,2.46172787 C78.2014446,2.26279527 77.6800948,2.06386268 76.2605779,1.91529277 C75.956027,1.88507516 75.6488951,1.85989382 75.3417633,1.84478502 L74.9546223,1.83219435 L74.8075087,1.83471248 L74.2267973,1.84226688 C72.8692229,1.91781091 73.6564096,1.8875933 73.2666877,1.91781091 L72.9285845,1.96565545 L72.2575402,2.07897149 C71.8032948,2.15451551 71.3696969,2.25272274 70.9877178,2.37611131 C70.5876721,2.49446361 70.1927883,2.62288845 69.8004855,2.75634955 C69.4391539,2.89484692 69.1113745,3.0408987 68.7681095,3.19198675 C68.0506082,3.49668097 67.5370012,3.81144773 66.9485469,4.13880515 C64.7908812,5.44068047 63.4333069,6.67204803 62.269303,7.62893897 C61.4795354,8.31135331 60.7852626,8.85275213 60.3903788,9.12974688 C59.8974193,9.04916659 58.9708619,8.78979878 57.8739625,8.42718747 C56.565426,8.01673162 55.0168621,7.43504265 52.7688635,6.96918785 C52.490122,6.91127076 52.1520189,6.86342622 51.844887,6.81558167 C51.5145267,6.77277339 51.2512709,6.71737444 50.8538061,6.69471123 L49.744002,6.63427602 L49.4652605,6.62672161 L49.0265007,6.63931228 C48.7348545,6.65190295 48.4406274,6.67456616 48.1489812,6.70226564 C47.857335,6.72996511 47.5656888,6.76773712 47.2792045,6.8105454 L46.8843207,6.87601689 L46.7552737,6.90371636 L46.2519904,7.01451426 C46.0016392,7.08250388 45.3744709,7.25121886 45.3951184,7.2461826 L45.1008912,7.35194423 L44.5201798,7.57354002 C44.1433626,7.7271462 43.738155,7.88075238 43.3974709,8.06205803 C40.5506943,9.52509393 38.89115,11.3734043 37.6729464,12.8238496 C36.4702284,14.3095487 35.6546514,15.5761701 34.9707024,16.5380973 L34.5061332,17.190294 L34.129316,17.6737758 L33.9873643,17.8399726 L33.9796215,17.8500452 C33.9305836,17.8626358 33.8815458,17.8777446 33.8196032,17.8903353 C33.2543774,18.0086876 32.2684584,18.0993404 31.0579976,18.1622938 C29.8294702,18.2403559 28.381563,18.2781279 26.5078007,18.5526046 C26.0019365,18.6432574 25.5373673,18.7137651 25.0005318,18.8371537 L24.1591454,19.0562314 C23.8804039,19.1292573 23.6094052,19.2022832 23.276464,19.3281899 C22.6054196,19.5900758 22.1692408,19.6958374 21.1110555,20.2825627 C20.6542291,20.5343761 20.2103075,20.8113708 19.7896143,21.1034744 L19.3895686,21.4081686 L19.2114838,21.546666 C18.943066,21.773298 19.6863767,21.1387283 18.5843154,22.072956 L18.385583,22.2744067 C18.1197462,22.5438471 17.8590713,22.8208418 17.6087201,23.105391 C17.0770465,23.6770074 16.7363625,24.2435876 16.3466405,24.8378672 C15.9543377,25.4397012 15.7427006,25.960955 15.4613782,26.5376077 C15.2032842,27.1041879 15.0613325,27.5801152 14.8755048,28.1089234 C14.2638221,30.1032855 14.1038038,31.6620105 13.9618521,32.9815128 C13.8611955,34.0668286 13.7631198,35.1395537 13.667625,36.1946518 L13.5979396,36.7511595 L13.5256733,37.174206 C13.5076067,37.2447138 13.494702,37.305149 13.4817973,37.3706205 C13.4688926,37.380693 13.4688926,37.3832111 13.4559879,37.3958018 C12.8856002,37.9875633 11.2260559,39.0779154 9.29293197,40.5056974 C8.33540329,41.2233656 7.20753258,42.1399664 6.07191906,43.3738521 C5.50153135,43.9756861 4.93372459,44.7260901 4.37366064,45.5847738 C4.01749095,46.1815716 3.69487347,46.8085869 3.42129384,47.4381205 L3.32063719,47.6748251 L3.28708497,47.767996 L3.2303043,47.9266385 L3.11674294,48.2464415 L3.07028603,48.3799026 C3.00576253,48.5863896 2.84058238,49.1126796 2.84574426,49.0975708 L2.79928734,49.3090941 C2.73734479,49.5936432 2.68056411,49.8807105 2.6341072,50.1677778 C2.58506934,50.4523269 2.54119336,50.7393942 2.50764114,51.0239434 L2.47408893,51.7970105 C2.42763201,52.8823263 2.54893618,53.7183468 2.67024035,54.5820668 C2.96446749,56.1458281 3.38257975,57.3545324 3.76713978,58.3693405 C4.55174549,60.3561482 5.21762797,61.7083862 5.62025458,62.7257124 C5.70284466,62.9473082 5.78801567,63.1663859 5.86802481,63.3829454 C5.90415797,63.5315153 5.9841671,63.7304479 5.99965274,63.8211007 C6.00223368,63.8311732 6.00481462,63.8488002 6.0099765,63.863909 C5.97642428,63.9268623 5.94287206,63.9923338 5.90931985,64.0552872 C5.61251176,64.596686 5.06277158,65.3798257 4.50270764,66.1780742 C3.94264369,66.9763227 3.33612283,67.8350064 2.76831607,68.7490891 C2.62636438,68.9782393 2.48957456,69.2023532 2.35794663,69.4189127 C2.22115682,69.6656899 2.08694795,69.9049126 1.9604819,70.136581 C1.71013073,70.5722181 1.47010333,71.1010263 1.2610472,71.5668811 C1.04941014,72.0025183 0.868744348,72.5565078 0.713887958,72.9996994 C0.675173861,73.1155336 0.639040703,73.2288496 0.602907545,73.3371294 L0.551288749,73.4982899 L0.489346193,73.7324764 C0.448051155,73.8961551 0.419660817,74.044725 0.386108599,74.2008493 C0.0712339394,75.1224864 -0.062974932,76.1196675 0.0299389021,77.1470662 C0.0299389021,77.1470662 0.0325198419,77.1898745 0.0402626614,77.2603822 C0.0505864208,77.6557293 0.0970433378,78.0435219 0.169309653,78.4237602 C0.208023751,78.6881642 0.259642547,78.9878222 0.337070742,79.3000708 C0.644202583,80.6019461 1.36944668,82.2462877 2.32439442,83.603562 C3.26385652,84.9784632 4.38140346,86.1267323 5.37764624,87.1289496 C5.78801567,87.5444418 6.22419451,87.9851152 6.68618274,88.4534882 L6.92104826,88.695229 C6.97266706,88.7481099 7.00363834,88.7783275 7.04493337,88.8160995 C6.99073364,88.9545968 6.92621014,89.1031668 6.85136289,89.2618092 C6.54423105,89.9467417 6.07191906,90.7626171 5.51443605,91.7799433 C4.97243869,92.827487 4.26268023,93.9807924 3.69487347,96.0053722 L3.59937869,96.3881286 L3.55292178,96.5795068 L3.49872204,96.8791648 C3.4316176,97.3022113 3.38774163,97.7353303 3.36967505,98.1634131 L3.35935129,98.4832162 L3.35935129,98.6317861 L3.36451317,98.6821488 L3.38516069,98.8835995 L3.49356016,99.8782624 C3.62776903,100.437288 3.7619779,101.031568 3.96071027,101.547785 C4.17234734,102.04134 4.38914628,102.595329 4.64982121,103.013339 C5.68993996,104.808769 6.9107245,105.936893 7.97407171,106.85853 C9.05032362,107.767576 10.0491473,108.472654 10.836334,109.074488 C11.0350664,109.225576 11.2260559,109.36911 11.3705885,109.492498 L11.6054541,109.686395 L11.7732152,109.840001 C11.9203287,109.960871 11.9254906,109.993607 12.0054997,110.049006 C12.0416329,110.08426 12.0029188,110.036415 11.9693666,109.986053 C11.9409762,109.938208 11.9177478,109.887845 11.8971003,109.837483 C11.866129,109.769493 11.8041864,109.497535 11.8996812,109.739275 C11.9900141,109.761939 12.1422895,110.320964 12.124223,111.026042 C12.1164801,111.753783 11.9822713,112.682974 11.7912817,113.733036 C11.608035,114.800725 11.306065,115.94144 11.1537896,117.497647 C11.0815233,118.278268 11.0324854,119.167169 11.2776747,120.464008 C11.3834932,120.9072 11.5280259,121.35291 11.7035298,121.77092 L11.8325768,122.065542 L11.8816146,122.153676 L11.9796903,122.332464 L12.080347,122.508733 L12.0932517,122.531397 C12.63783,123.420298 12.2610128,122.798319 12.3900598,123.007324 L12.4494214,123.08035 L12.5681446,123.22892 L13.0611041,123.80809 C13.7347294,124.555976 14.5916014,125.228318 15.4768638,125.706764 C16.3621262,126.195282 17.2757789,126.497458 18.1094224,126.686318 C19.7947762,127.053965 21.1936455,127.023748 22.3937826,126.968349 C23.5913387,126.902877 24.6211336,126.802152 25.4444535,126.744235 C25.8367563,126.716535 26.234221,126.708981 26.4045631,126.711499 C26.3994012,126.714017 26.3942393,126.714017 26.3916584,126.708981 C26.3916584,126.708981 26.3400396,126.681281 26.5000578,126.708981 L26.7375043,126.744235 L26.8226753,126.769416 C28.1002405,127.116919 29.4036152,127.618027 30.5934284,128.169499 C31.8813174,128.778887 33.0040262,129.312732 33.9280027,129.750887 C34.988769,130.221778 35.9514595,130.667488 37.2935482,130.914265 C37.3683955,130.929374 37.4432427,130.941964 37.5155091,130.954555 C37.5980991,130.969664 37.8226409,130.987291 37.9645926,130.992327 C38.2846291,131.009954 38.5865991,131.004918 38.8653406,130.987291 C39.1440821,130.967146 39.3970142,130.936928 39.6241369,130.899156 C39.6731748,130.891602 39.7144698,130.886565 39.7557648,130.881529 C39.8951356,130.861384 39.9674019,130.851311 39.9674019,130.851311 C40.2332387,130.813539 40.5274658,130.753104 40.7933027,130.672524 C43.4413469,129.856649 44.9124826,127.104328 44.0788391,124.520722 C43.2632621,121.989998 40.5403705,120.577324 37.9439451,121.279884 C37.8097362,121.242112 37.6652036,121.199304 37.5077662,121.146423 C36.6534752,120.887055 35.4946332,120.431273 34.0570497,119.927646 C32.6194662,119.424019 30.910884,118.809594 28.7764468,118.381512 L28.5802954,118.338703 L28.2473541,118.280786 L28.2060591,118.273232 L28.1260499,118.263159 L27.7956896,118.222869 C27.7337471,118.210278 27.4550056,118.187615 27.2330448,118.175025 L26.5413529,118.147325 C25.8006232,118.152361 25.2715305,118.19517 24.7217903,118.245532 C23.6661859,118.341221 22.7576951,118.469646 21.9498609,118.507418 C21.1523505,118.54519 20.4709824,118.502382 20.0993271,118.406693 C20.0760986,118.399139 20.0657748,118.39662 20.0451273,118.389066 C20.145784,117.757014 20.3961351,116.752279 20.6955242,115.6443 C20.9949132,114.506103 21.3252735,113.2143 21.4878727,111.680757 C21.6246625,110.137141 21.6659575,108.354302 20.8761899,106.26425 C20.8813518,106.228997 20.6413244,105.730406 20.4658205,105.415639 L20.1638506,104.90194 C20.0554511,104.728189 19.9418897,104.556956 19.8825281,104.48393 C19.5960438,104.101173 19.2656835,103.665536 18.9946848,103.383505 L18.5662488,102.91765 L18.1687841,102.522303 C17.8977854,102.247827 17.655177,102.016158 17.4151496,101.792044 C16.457621,100.898107 15.6472058,100.185475 15.0535897,99.5559413 C14.7903338,99.2814647 14.5864396,99.0321694 14.4290022,98.8156099 C14.5993443,98.5713509 14.911638,98.0803147 15.298779,97.5691335 C15.8356145,96.8313202 16.4834303,95.9600458 17.1647985,94.9427197 C17.8358428,93.9253935 18.5662488,92.7040985 19.1005033,91.0723476 C19.2398741,90.6996638 19.3456926,90.2237364 19.4411874,89.7704723 C19.4850634,89.5413221 19.5341012,89.3222444 19.5676535,89.0855398 L19.629596,88.3250633 L19.6579863,87.567105 L19.5805582,86.6001415 L19.5547488,86.2753022 C19.5573297,86.2702659 19.5418441,86.1796131 19.5237775,86.0914784 L19.4695777,85.8346287 L19.3482736,85.3284838 C19.2605216,84.9910538 19.159865,84.6586601 19.0463036,84.3338208 C18.9791992,84.1424426 18.9533898,84.0870437 18.9095138,83.9812821 L18.7907906,83.6916966 C18.6307723,83.3215309 18.4475256,82.8984844 18.2900882,82.6265259 C18.1326509,82.3293861 17.9623089,82.0121012 17.8048715,81.745179 C17.6500152,81.4984019 17.5003206,81.2541429 17.3506261,81.012402 C16.7776575,80.1260188 16.2640505,79.4108687 15.8769095,78.8493248 C15.4794448,78.2777084 15.1774748,77.8017811 14.9632568,77.4240609 C14.9684187,77.4089521 14.9709996,77.3963615 14.996809,77.3560713 C15.0484278,77.2679366 15.0664944,77.1923926 15.1800557,77.0186414 C15.2239317,76.9430973 15.2703886,76.862517 15.3168455,76.7794186 C15.38395,76.6761751 15.4536354,76.5704135 15.5259017,76.4596156 C15.8149669,76.0139059 16.2511458,75.41459 16.8447619,74.6087871 C17.4280543,73.7954298 18.1687841,72.8435751 19.0488845,71.378021 C19.2682644,71.0078553 19.4979681,70.5772544 19.7199289,70.1617623 C19.9470516,69.7009438 20.1767553,69.1771719 20.3909733,68.6584363 C20.6026103,68.0289027 20.8142474,67.4673588 20.9691038,66.7295456 C21.043951,66.3568617 21.1110555,65.9791416 21.1678361,65.5989034 L21.2091312,65.3118361 L21.2504262,64.6546031 L21.26075,64.4078259 L21.2762356,63.8941266 C21.2684928,63.4685619 21.2452643,63.037961 21.2065502,62.604842 C21.1239602,61.6126971 21.002656,61.1871325 20.8813518,60.5525627 C20.7548858,59.9557649 20.6000294,59.4773194 20.445173,58.9233299 C20.2877357,58.454957 20.1199746,57.9462939 19.9522135,57.5031023 C19.2889119,55.7328541 18.5765726,54.247155 18.1765269,53.1542848 C18.1507175,53.0862952 18.13007,53.0283781 18.1094224,52.9654247 C18.2746026,52.8294455 18.4655921,52.6758393 18.7133624,52.5020881 C19.9160803,51.5678603 21.7924236,50.5505342 24.3010971,48.274141 C24.6288765,47.9493017 24.9256845,47.6874157 25.2663686,47.297105 C25.6096336,46.8992398 25.9296701,46.5492191 26.2651923,46.0884006 L26.7607328,45.3606599 L27.0007602,44.987976 L27.1169025,44.8016341 L27.3982249,44.2728259 L27.5737288,43.9127328 L27.6640617,43.7339452 L27.7079377,43.6432924 L27.8034325,43.4242148 C28.0563646,42.827417 28.3222014,42.1097488 28.4796387,41.5708681 C28.5906191,41.1327128 28.7015995,40.6945574 28.8125799,40.253884 L29.0319598,39.070361 L29.1842353,37.9951177 C29.3545773,36.630289 29.4371674,35.4795018 29.5429859,34.5402378 C29.5765381,34.2305073 29.6126713,33.9535125 29.6539663,33.699181 C30.2501634,33.6538546 31.0089597,33.6186007 31.8864793,33.5808287 C33.228568,33.5103209 34.8313316,33.4498857 36.8367219,33.0897925 C37.347748,32.9890672 37.8949072,32.8581242 38.4214189,32.7322175 C39.0047113,32.5584663 39.5802609,32.3821969 40.1738771,32.1580829 L41.1133392,31.7501452 L41.5779084,31.5335857 C41.2036721,31.7526633 42.3573522,31.108021 42.2644384,31.1533474 L42.3702569,31.0903941 L42.7909501,30.8285081 L42.9174161,30.750446 L43.2064814,30.5489953 L43.7717072,30.130985 L44.3214474,29.6903115 C44.4969513,29.5442598 44.7060074,29.3654723 44.7834356,29.284892 L45.4235087,28.6553584 L45.7383834,28.3355554 L45.9964774,28.04597 L46.5049225,27.4617629 C46.824959,27.0815247 47.0778912,26.7466128 47.3643755,26.3814834 L48.0767149,25.4145199 C48.9439107,24.1982611 49.6226978,23.2136707 50.1517905,22.5891735 C50.1905046,22.5413289 50.2240568,22.5035569 50.26019,22.4607486 C50.8899393,22.6395362 51.7674588,22.9240853 52.7843491,23.2640334 C54.2709705,23.7349245 56.0311714,24.3594217 58.5630734,24.6892973 C59.2186321,24.759805 59.8380577,24.8353491 60.6045968,24.8277947 C60.9736712,24.8277947 61.32726,24.8328309 61.71182,24.8126859 C62.1144466,24.7799501 62.5196542,24.7371418 62.9222808,24.6867792 L63.5236398,24.6036807 C64.7728147,24.3317222 63.9494949,24.5079916 64.2617886,24.4374839 L64.3959974,24.40223 L64.6669961,24.3317222 L64.801205,24.2964684 L65.0334896,24.2284788 C66.0426371,23.9212664 67.2737454,23.3849038 67.7228289,23.1129454 C70.2108549,21.753153 71.5529436,20.4865315 72.737595,19.5321587 C73.6667333,18.749019 74.451339,18.1194855 74.9726889,17.7669467 L75.2436876,17.9004078 C75.4604865,17.9986151 75.7624565,18.1597756 76.0437789,18.3058274 C77.2258494,18.9202521 78.7821561,19.8494436 80.9191743,20.7534537 C81.4121338,20.9800858 82.0935019,21.2016816 82.6845371,21.4106867 C83.0148974,21.5139302 83.3788099,21.6096193 83.7272368,21.7002721 C84.0782446,21.7934431 84.4266715,21.8840959 84.8499456,21.9495674 C85.2525722,22.017557 85.6603607,22.0805104 86.0655683,22.1333912 C86.4991662,22.1761995 86.9663163,22.1913083 87.4179808,22.203899 L88.0993489,22.2114534 C89.4104663,22.1208005 88.5484324,22.1761995 88.8813737,22.1510181 L89.0284872,22.1359093 L89.3278762,22.1006555 C89.4517614,22.0855467 89.4362757,22.0981373 89.8182548,22.0301477 C90.4067091,21.9294223 90.9951634,21.7984794 91.5732939,21.6398369 C91.9062351,21.5517022 92.0507678,21.4937852 92.2340145,21.4308318 L92.7760119,21.2318992 C93.5502938,20.9574226 94.0639008,20.6854641 94.6884883,20.3933606 C95.7466736,19.8444073 96.6964595,19.2778272 97.4320273,18.804418 C98.9651056,17.8223457 100.118786,17.0643873 100.813059,16.7370299 C100.838868,16.7219211 100.849192,16.719403 100.87242,16.7093304 C101.166647,16.8629366 101.540884,17.0719417 102.023519,17.3867085 L104.039233,18.7087289 C104.800611,19.2073194 105.765882,19.8091535 106.932467,20.4109875 C108.101633,21.002749 109.694072,21.6876815 111.805281,22.0125208 L112.636344,22.1082099 L113.054456,22.1409456 C112.698286,22.1560544 114.030051,22.1585725 113.926814,22.1510181 L114.556563,22.1258368 C115.121789,22.1132461 117.008456,21.8412877 117.547872,21.6448732 C120.67081,20.7761169 122.51102,19.6001483 124.054422,18.7641278 C124.800313,18.3435994 125.468777,17.9608431 125.951413,17.7191022 C125.959155,17.7140659 125.966898,17.7115478 125.974641,17.7065115 C126.13724,17.8299001 126.297258,17.940698 126.508896,18.1169674 C126.983788,18.4896512 127.603214,19.0285319 128.282001,19.6001483 C128.986598,20.194428 129.815079,20.8743242 130.857779,21.6146556 C131.962421,22.3600233 133.312253,23.2237433 135.346034,23.8860125 C135.895774,24.044655 136.453257,24.1806342 137.013321,24.2914321 C138.226362,24.4626652 137.441757,24.3493492 137.75405,24.3896393 L137.914069,24.4047481 L138.236686,24.4349657 L138.396704,24.4500746 L138.711579,24.4677015 C138.998063,24.4802922 139.28971,24.4853284 139.578775,24.4853284 C140.120772,24.4853284 140.843435,24.457629 141.147986,24.4072663 C142.799788,24.2410694 144.038639,23.8910488 145.212966,23.556137 C147.280299,22.9089765 148.90113,22.2265622 149.967058,21.8815778 C150.088362,22.0200752 150.214828,22.1736814 150.361941,22.3625414 C150.764568,22.8737226 151.20849,23.4906655 151.773716,24.2536601 C152.320875,24.9914734 152.96611,25.8602296 153.879762,26.8674833 C154.300456,27.3484469 154.899234,27.9225814 155.503174,28.458944 C155.864505,28.7535657 156.249065,29.0456692 156.633625,29.322664 C156.997538,29.5971406 157.557602,29.9068711 158.027333,30.1662389 L158.401569,30.3626533 C158.45835,30.4004254 159.454592,30.82599 159.095842,30.6698657 L159.400393,30.7856999 C159.635258,30.8738346 159.663649,30.9065703 160.321788,31.1130573 C160.840557,31.2742179 161.367069,31.4177515 161.896162,31.5411401 L163.011128,31.7350364 C164.448711,31.9465597 165.70821,31.9944042 166.768976,31.9944042 C167.871037,31.9994405 168.787271,31.9616685 169.597686,31.9440415 C169.93837,31.933969 170.235178,31.9314509 170.508758,31.9314509 C170.544891,32.1052021 170.581024,32.2940622 170.614576,32.5030673 L171.019784,34.9783931 C171.17464,35.9126208 171.401763,37.081035 171.794066,38.4005373 L172.145074,39.4455629 C172.302511,39.8358737 172.475434,40.2337389 172.653519,40.6215315 C172.803213,40.9841428 173.100021,41.4701427 173.345211,41.8831167 L173.541362,42.2029197 C173.732352,42.4723601 173.396829,42.0417592 174.023998,42.8878522 L174.22273,43.1371475 L174.424044,43.3864427 L174.558252,43.5476033 L174.834413,43.8548157 C175.203487,44.2577171 175.606114,44.6606186 175.993255,45.0181936 C176.550738,45.4890847 177.152097,45.982639 177.657961,46.3225871 C178.729051,47.0855817 179.647866,47.6118717 180.468605,48.0827628 C181.482914,48.6493429 182.339786,49.1428972 182.938564,49.5155811 C182.796612,49.9210007 182.608204,50.4120368 182.40689,50.9332905 C181.833922,52.481943 180.961564,54.3126265 180.460862,57.2588433 C180.396338,57.5987914 180.355043,58.0168017 180.326653,58.4348119 C180.303424,58.8654129 180.256968,59.2280242 180.282777,59.7215784 C180.300844,60.1899514 180.329234,60.6583243 180.37311,61.1241791 C180.561518,62.2825208 180.445376,61.534635 180.494414,61.8317748 L180.527966,61.985381 L180.59249,62.2900752 C180.677661,62.7886657 181.30741,64.6848207 181.557761,65.0549864 C181.71778,65.3873801 181.895864,65.7726546 182.061045,66.0496494 L182.566909,66.9083331 C183.222467,67.940768 183.878026,68.8296694 184.422604,69.5246744 L185.860188,71.3906117 C186.275719,71.9345287 186.508004,72.3248395 186.678346,72.6018342 L186.63447,72.7705492 C186.546718,72.9468186 186.528651,73.0802797 186.412509,73.3043936 C186.035692,74.1278235 185.318191,75.2811289 184.414862,76.673657 C183.514114,78.1115115 182.365595,79.7684438 181.369353,82.3621219 C181.248048,82.7071062 181.134487,83.0797901 181.028669,83.4398832 L180.873812,83.9863183 L180.752508,84.6133337 L180.644109,85.2453854 L180.597652,85.5626703 C180.607975,85.313375 180.527966,86.2753022 180.53829,86.214867 L180.515062,86.8141829 L180.504738,87.1138408 L180.515062,87.7030842 C180.527966,88.1185763 180.551195,88.5340685 180.584747,88.9495606 C180.600233,89.1761926 180.62088,89.3348351 180.644109,89.4783687 L180.713794,89.9366691 L180.863488,90.8406793 C181.338381,93.1321813 182.030073,94.9276109 182.590137,96.4485638 C183.155363,97.9443355 183.627675,99.2411745 183.743817,99.8858168 L183.795436,100.112449 C183.792855,100.127558 183.798017,100.140148 183.798017,100.152739 L183.803179,100.145185 L183.803179,100.147703 L183.798017,100.155257 L183.798017,100.162812 L183.718008,100.409589 C183.692198,100.432252 183.720589,100.293755 183.741236,100.250946 C183.746398,100.238356 183.754141,100.228283 183.759303,100.215692 C183.746398,100.238356 183.730913,100.261019 183.718008,100.2862 C183.692198,100.371817 183.539923,100.51535 183.472819,100.638739 L183.070192,101.102076 C182.881783,101.280863 182.73467,101.44706 182.517871,101.643474 C181.694551,102.41906 180.558938,103.310479 179.216849,104.436085 C178.553547,104.990075 177.802494,105.664935 177.035955,106.427929 C176.235863,107.284095 175.404801,108.165442 174.602128,109.540343 L174.313063,110.033897 C174.398234,109.845037 174.02916,110.580332 174.054969,110.540042 L173.998188,110.668467 L173.768485,111.182166 L173.636857,111.484342 L173.445867,111.982933 L173.092279,112.987668 C172.901289,113.602093 172.800632,114.052839 172.658681,114.59172 L172.374777,116.039647 C172.065065,117.892994 171.948922,119.479418 171.80439,120.801438 C171.675343,122.10835 171.481772,123.165966 171.342401,123.573904 C171.329497,123.621749 171.321754,123.64693 171.31143,123.664557 C171.236583,123.697293 171.135926,123.72751 171.06366,123.772837 C170.921708,123.825717 170.715233,123.873562 170.547472,123.933997 L169.873847,124.087603 C168.877604,124.289054 167.584553,124.43007 166.095351,124.608857 C164.598406,124.800235 162.892404,124.99665 160.822491,125.608556 C159.774629,125.938432 158.680311,126.338815 157.482754,127.046411 C157.247889,127.144618 155.35606,128.42383 154.894072,128.919903 C153.417774,130.224296 152.393141,131.453146 151.489812,132.530907 C150.596807,133.603632 149.856077,134.555487 149.208261,135.280709 C148.568188,136.010968 148.018448,136.481859 147.786164,136.635465 C147.742288,136.645538 147.682926,136.726118 147.670021,136.718564 C147.662278,136.718564 147.657117,136.7236 147.651955,136.736191 L147.646793,136.753818 L147.388699,136.811735 L147.311271,136.826844 C147.321594,136.829362 147.329337,136.83188 147.339661,136.834398 C147.334499,136.836916 147.30869,136.834398 147.285461,136.834398 L147.158995,136.862097 C147.143509,136.859579 147.179643,136.844471 147.189966,136.839434 C147.20029,136.83188 147.213195,136.834398 147.2261,136.83188 C146.779597,136.857061 146.002734,136.771445 145.063272,136.542294 C144.100581,136.318181 143.001101,135.998378 141.785478,135.658429 C140.572437,135.320999 139.220024,134.953352 137.622422,134.709093 C137.245605,134.641103 136.804265,134.598295 136.373248,134.563041 L135.725432,134.512678 L135.013092,134.51016 C134.543361,134.51016 134.076211,134.515197 133.547118,134.588222 L132.780579,134.688948 L132.58959,134.716647 C132.58959,134.711611 131.838536,134.867735 132.112116,134.814854 L131.908222,134.870253 L131.500433,134.981051 C131.361062,135.021341 131.27331,135.038968 130.955855,135.14473 C130.434505,135.318481 129.907993,135.512378 129.415034,135.718865 C128.661399,136.081476 127.925831,136.461714 127.311568,136.859579 C126.062393,137.652792 125.022274,138.471185 124.147336,139.219071 C122.389716,140.717361 120.998589,142.031827 119.948146,142.744459 C119.442282,143.094479 119.05256,143.280821 118.897704,143.358883 C119.421635,143.260676 118.993199,143.343775 119.088693,143.326148 L119.000942,143.343775 L118.825438,143.381547 L118.477011,143.454572 L118.141489,143.52508 L118.022765,143.532635 C117.942756,143.540189 117.875652,143.557816 117.780157,143.575443 L117.305264,143.600624 C116.019956,143.676168 114.396545,143.497381 112.703448,143.321111 C110.979381,143.159951 109.185627,142.91821 106.99699,143.076852 C106.431765,143.134769 105.907834,143.167505 105.290989,143.313557 C104.9916,143.381547 104.707697,143.436946 104.405727,143.522562 C104.093433,143.625806 103.78372,143.736604 103.479169,143.84992 C102.882972,144.043816 102.253223,144.446717 101.690578,144.774075 C101.711226,144.75393 101.065991,145.209712 101.318923,145.035961 L101.269885,145.076251 L101.171809,145.161867 L100.975658,145.328064 L100.779506,145.491743 L100.684012,145.574841 L100.48786,145.758665 C100.222023,146.018033 99.9665102,146.287473 99.7239019,146.56195 C99.6051787,146.695411 99.4787126,146.841463 99.3806369,146.969888 L99.1457714,147.31739 C98.8360586,147.783245 98.5469933,148.2491 98.3611657,148.694809 C98.2579281,148.921442 98.1572714,149.145555 98.0566148,149.367151 C97.9843485,149.581193 97.9120821,149.792716 97.8398158,150.001721 C97.7727114,150.210726 97.7056069,150.417213 97.6410835,150.6237 C97.5946265,150.817597 97.5507506,151.008975 97.5068746,151.197835 C97.1687715,152.71627 97.0758576,153.9703 97.0319817,155.032953 C96.9906866,156.100642 96.9881057,157.012206 96.9777819,157.787792 C96.9622963,159.343998 96.9132584,160.416724 96.843573,161.106692 C96.7635639,161.776516 96.7222689,162.1215 96.7222689,162.1215 L96.6938785,162.33806 C96.4925652,164.002546 97.5584934,165.609116 99.2644946,166.069935 C101.148581,166.581116 103.099771,165.503354 103.623702,163.665117 C103.623702,163.665117 103.765654,163.169044 103.977291,162.22978 C104.188928,161.295552 104.403146,159.93576 104.609621,158.309045 C104.71544,157.495688 104.821258,156.62945 104.960629,155.745585 C105.094838,154.86172 105.270342,153.980373 105.520693,153.260187 L105.613607,152.988228 L105.722006,152.771669 L105.820082,152.552591 L105.933643,152.396467 C106.047204,152.157244 106.297556,152.043928 106.078176,152.212643 C106.630497,151.779524 106.436926,151.991047 106.602107,151.943202 C106.640821,151.945721 106.676954,151.940684 106.707925,151.928094 L106.906657,151.925575 C107.012476,151.902912 107.244761,151.920539 107.438331,151.915503 C108.302946,151.918021 109.709558,152.159762 111.314903,152.464456 C112.951219,152.75656 114.819819,153.169534 117.214931,153.272777 L118.126003,153.297959 C118.492496,153.287886 118.889961,153.265223 119.277102,153.240041 L119.860394,153.194715 L120.224307,153.149389 L120.577896,153.104062 L120.7534,153.081399 L120.843733,153.068808 C120.996008,153.038591 120.626934,153.119171 121.207645,153.000819 C122.916227,152.633171 124.289287,151.963348 125.466196,151.293524 C127.773556,149.926177 129.407291,148.490841 130.945531,147.382862 C131.709489,146.811245 132.403762,146.370572 133.018026,146.043214 C133.330319,145.866945 133.590994,145.781328 133.838765,145.673049 C133.867155,145.685639 133.864574,145.693194 133.867155,145.675567 C133.810374,145.673049 133.996202,145.637795 134.130411,145.612613 L134.543361,145.526997 L134.752417,145.486707 C134.767903,145.484189 134.773065,145.48167 134.783389,145.479152 C134.667246,145.504334 134.437543,145.552178 134.478838,145.544624 L134.502066,145.552178 C134.527876,145.559733 134.556266,145.562251 134.582075,145.564769 C134.613047,145.552178 134.718865,145.572323 134.819522,145.587432 L134.966635,145.594986 L135.178272,145.637795 C135.320224,145.662976 135.454433,145.675567 135.645423,145.728448 C136.334533,145.871981 137.245605,146.151494 138.303791,146.514105 C139.361976,146.869162 140.551789,147.292209 141.945497,147.702665 C143.334042,148.103048 144.983263,148.516022 147.045434,148.596602 L147.435156,148.611711 L147.953925,148.594084 C148.299771,148.578975 148.648197,148.553794 148.994043,148.521058 L149.497327,148.468177 L149.729611,148.430405 L150.196761,148.352343 L150.312904,148.334716 C150.547769,148.281835 149.956734,148.425369 150.865225,148.211328 L151.309146,148.080385 L152.191828,147.788281 C152.782863,147.58683 153.262918,147.322426 153.797172,147.068095 C155.799982,145.99537 157.175623,144.728748 158.318979,143.600624 C159.454592,142.462428 160.370826,141.402293 161.191565,140.485692 C162.009723,139.574128 162.753034,138.811133 163.323421,138.365424 L163.527316,138.199227 C163.537639,138.206781 163.54022,138.204263 163.54022,138.204263 L163.537639,138.19419 C163.553125,138.184118 163.491182,138.204263 163.602163,138.146346 L164.048665,137.899569 C164.025437,137.917196 164.234493,137.84417 164.508073,137.773662 C165.099108,137.622574 166.183103,137.486595 167.483896,137.385869 C168.795014,137.272553 170.338416,137.186937 172.165721,136.909942 L173.603305,136.645538 C174.127235,136.517113 174.625357,136.406315 175.169935,136.242637 C175.737742,136.04874 176.261673,135.905207 176.863032,135.635766 C177.485038,135.346181 177.952188,135.18502 178.801317,134.643621 C179.180716,134.404399 179.554952,134.152585 179.913703,133.890699 L180.089206,133.759756 L180.195025,133.67414 L180.404081,133.502907 L180.615718,133.331674 L180.721537,133.246057 C180.662175,133.30901 181.519047,132.520834 181.260953,132.74243 C181.542276,132.447808 181.815855,132.140596 182.079111,131.828347 C182.62627,131.198814 182.969535,130.581871 183.372162,129.927156 C183.661227,129.340431 183.996749,128.675644 184.19032,128.121654 C185.036868,125.807489 185.258829,123.969251 185.488533,122.380308 C185.695008,120.79892 185.844702,119.454237 186.056339,118.386548 L186.22152,117.653771 L186.389281,117.104818 C186.399604,117.089709 186.407347,117.072082 186.407347,117.054455 L186.402185,117.024237 C186.397023,117.019201 186.471871,116.875667 186.500261,116.810196 L186.670603,116.455139 C186.673184,116.447585 186.675765,116.445066 186.680927,116.432476 C186.686089,116.437512 186.68867,116.445066 186.68867,116.445066 C186.631889,116.502984 186.856431,116.266279 187.099039,116.014466 C187.429399,115.714808 187.819121,115.367305 188.350795,114.946777 C189.38059,114.115792 190.72526,113.13372 192.2093,111.82429 C192.575793,111.504487 192.970677,111.116695 193.347494,110.75912 C193.739797,110.3537 194.1321,109.943244 194.521822,109.497535 C194.914125,108.996426 195.303847,108.565825 195.678083,107.984136 L196.232985,107.133007 L196.367194,106.916447 L196.527212,106.616789 L196.834344,106.004883 C197.022753,105.612054 197.23439,105.128572 197.363437,104.79366 L197.554426,104.242189 L197.652502,103.967712 C197.544103,104.340396 197.848653,103.320552 197.846073,103.287816 L197.918339,102.95794 C198.008672,102.517267 198.083519,102.071557 198.145462,101.628366 C198.184176,101.212873 198.19708,100.817526 198.209985,100.412107 L198.217728,99.8052365 L198.181595,99.2713921 L198.083519,98.2062214 L197.923501,97.2770299 C197.443446,94.8394762 196.756916,93.1800258 196.248471,91.699363 C195.72454,90.2489178 195.332237,89.0351771 195.179962,88.1941204 L195.118019,87.718193 C195.125762,87.7333018 195.123181,87.7509288 195.112857,87.7660376 C195.107695,87.7584832 195.09221,87.8164002 195.09221,87.755965 L195.107695,87.4563071 L195.115438,87.2875921 C195.118019,87.285074 195.123181,87.2800377 195.123181,87.2775196 C195.138667,87.2548563 195.136086,87.2372294 195.143829,87.2019755 C195.309009,86.7814471 195.941339,85.688577 196.816278,84.3992923 C197.693797,83.0646813 198.798439,81.4832931 199.838558,79.3504335 C200.362489,78.2449727 200.824477,77.1369937 201.206456,75.5102791 C201.304532,75.0419061 201.387122,74.571015 201.454226,74.100124 L201.500683,73.7450671 L201.513588,73.5864246 L201.536817,73.2792123 L201.560045,72.974518 L201.57295,72.8209119 C201.575531,72.9040103 201.60134,71.7557412 201.583273,72.0553991 L201.583273,72.0553991 Z M38.3594764,121.342837 C38.4420665,121.347874 38.6020847,121.368019 38.6227323,121.373055 L38.6485417,121.380609 C38.8214646,121.451117 38.6098276,121.443563 38.2020391,121.347874 C38.2562388,121.347874 38.3052767,121.340319 38.3594764,121.342837 L38.3594764,121.342837 Z M19.7405764,118.187615 C19.7638049,118.222869 19.7792905,118.263159 19.799938,118.300931 C19.7896143,118.295895 19.7715477,118.290859 19.7638049,118.285822 L19.7121861,118.180061 L19.6657292,118.089408 C19.6760529,118.094444 19.717348,118.15488 19.7405764,118.187615 L19.7405764,118.187615 Z M13.6211681,37.1062164 C13.6289109,37.098662 13.6495584,37.0684444 13.6469775,37.0759988 L13.6031015,37.1666516 L13.5308352,37.3177396 C13.5179305,37.3303303 13.5076067,37.342921 13.4895401,37.3605479 C13.5179305,37.2824858 13.5643874,37.1666516 13.6211681,37.1062164 L13.6211681,37.1062164 Z M6.11579503,63.6272044 C6.13902349,63.5592148 6.12095691,63.5667692 6.15709007,63.5365516 C6.13902349,63.5667692 6.12869973,63.5944686 6.11579503,63.6272044 L6.11579503,63.6272044 Z M6.02546214,63.8211007 C6.0228812,63.7279297 6.03320496,63.6347588 6.05901436,63.544106 L6.05643342,63.770738 C6.04610966,63.7908831 6.0357859,63.80851 6.02546214,63.8286551 L6.02546214,63.8211007 L6.02546214,63.8211007 Z M7.07074277,88.4283068 C7.06041901,88.3603172 7.05267619,88.2923276 7.05009525,88.224338 L7.05009525,88.1236126 C7.05009525,88.0833225 7.05009525,88.0455504 7.05783807,88.0959131 L7.13526627,88.413198 L7.15333285,88.4962964 C7.14300909,88.5340685 7.13010439,88.5718405 7.11461875,88.6096125 C7.10171405,88.5491773 7.07848559,88.4912602 7.07074277,88.4283068 L7.07074277,88.4283068 Z M7.17139942,88.4459338 L7.13784721,88.1085038 L7.13526627,88.0959131 C7.13526627,88.0631774 7.14042815,88.0329598 7.14817097,88.000224 C7.15849473,87.9700064 7.17398036,87.9372707 7.19462788,87.9095712 C7.2023707,87.8944624 7.19978976,87.8944624 7.21011352,87.8894261 C7.22301822,87.8818717 7.27205608,87.8592085 7.2539895,87.92468 C7.27721796,88.0027422 7.24882762,88.1890841 7.17139942,88.4459338 L7.17139942,88.4459338 Z M14.1347751,98.2011851 C14.1450989,98.2062214 14.2044605,98.254066 14.1992986,98.291838 L14.1992986,98.2968742 C14.2070414,98.3799727 14.2122033,98.4303353 14.2173652,98.4932887 C14.1554226,98.3824908 14.1141276,98.2893198 14.1115466,98.2414753 C14.0805754,98.1885945 14.1502607,98.2062214 14.1347751,98.2011851 L14.1347751,98.2011851 Z M14.2560793,98.5537239 L14.2586602,98.4756618 L14.2638221,98.274211 L14.266403,98.2238484 C14.266403,98.2238484 14.2741459,98.2565841 14.2793077,98.2691748 L14.2999552,98.3925633 C14.310279,98.4681074 14.2973743,98.5436514 14.2947934,98.6191954 C14.2818887,98.5965322 14.268984,98.5763871 14.2560793,98.5537239 L14.2560793,98.5537239 Z M14.9864852,77.2024651 C14.9813234,77.2629004 14.9632568,77.3283719 14.9477711,77.3913252 C14.9451902,77.3888071 14.9426093,77.3862889 14.9400283,77.3812527 C14.9426093,77.3812527 14.9426093,77.3812527 14.9426093,77.3787345 C14.9503521,77.275491 14.9632568,77.1445481 14.9761615,76.9909419 L14.9864852,76.8725896 L14.996809,76.9758331 C14.9993899,77.0463408 14.996809,77.1218849 14.9864852,77.2024651 L14.9864852,77.2024651 Z M17.8539094,52.0991866 C17.871976,52.106741 17.8668141,52.1017048 17.869395,52.1571037 C17.8642332,52.1394768 17.8590713,52.1117773 17.8539094,52.0991866 L17.8539094,52.0991866 Z M29.881089,32.6264559 C29.8965747,32.5962383 29.9017365,32.5509118 29.9017365,32.5811295 C29.9017365,32.6113471 29.8939937,32.6138652 29.881089,32.6264559 L29.881089,32.6264559 Z M34.2273917,17.7845737 C34.2377155,17.7795374 34.2402964,17.7770193 34.2506202,17.771983 C34.2557821,17.771983 34.2609439,17.7669467 34.2661058,17.7694649 C34.2609439,17.7694649 34.2402964,17.7820555 34.2273917,17.7845737 L34.2273917,17.7845737 Z M34.217068,17.7870918 L34.2299727,17.7745011 C34.2351345,17.771983 34.2402964,17.771983 34.2454583,17.771983 C34.2325536,17.7795374 34.2325536,17.7795374 34.217068,17.7870918 L34.217068,17.7870918 Z M34.2738486,17.7266566 L34.129316,17.8173094 C34.1086685,17.8223457 34.088021,17.827382 34.0673734,17.8324182 C34.0699544,17.8299001 34.0725353,17.8248638 34.0776972,17.8223457 C34.1344779,17.7845737 34.1964204,17.7493198 34.258363,17.7165841 L34.3564387,17.6737758 C34.3667625,17.6712576 34.2970771,17.7115478 34.2738486,17.7266566 L34.2738486,17.7266566 Z M49.4058989,22.2592979 C49.400737,22.2592979 49.3981561,22.261816 49.3929942,22.2592979 C49.3723467,22.2517435 49.3852514,22.2542616 49.4058989,22.2592979 L49.4058989,22.2592979 Z M60.7233201,9.13730128 C60.8033292,9.12219248 60.7336438,9.13981941 60.6871869,9.15241008 L60.6510537,9.16248262 C60.6304062,9.15996449 60.6097587,9.15744635 60.5916921,9.15744635 C60.5891112,9.15744635 60.5891112,9.15492822 60.5865302,9.15492822 C60.6329872,9.14485568 60.6794441,9.13981941 60.7233201,9.13730128 L60.7233201,9.13730128 Z M74.3119683,17.4949883 L74.3326158,17.5025427 C74.2861589,17.4975064 74.3351967,17.5050608 74.3119683,17.4949883 L74.3119683,17.4949883 Z M87.6967223,6.45045223 C87.6967223,6.45045223 87.6967223,6.45045223 87.6941413,6.45045223 C87.6889795,6.4479341 87.6863985,6.4479341 87.6838176,6.44541596 C87.7122079,6.44541596 87.7173698,6.4479341 87.6967223,6.45045223 L87.6967223,6.45045223 Z M87.836093,6.48822424 C87.838674,6.48822424 87.8412549,6.48570611 87.8438358,6.48822424 C87.8619024,6.49829678 87.8515787,6.49577864 87.836093,6.48822424 L87.836093,6.48822424 Z M101.081476,16.6111232 C101.0918,16.6060869 101.102124,16.6010507 101.112448,16.5960144 C101.213104,16.6035688 101.251818,16.6111232 101.081476,16.6111232 L101.081476,16.6111232 Z M170.175817,30.7227465 C170.180978,30.7428916 170.188721,30.7605185 170.206788,30.7781455 L170.209369,30.7831817 C170.201626,30.7781455 170.196464,30.7731092 170.191302,30.7655548 C170.183559,30.7605185 170.178398,30.7378553 170.175817,30.7227465 L170.175817,30.7227465 Z M183.243115,48.4227109 C183.243115,48.4176746 183.240534,48.4151565 183.240534,48.4101202 C183.258601,48.3446487 183.250858,48.3748663 183.243115,48.4227109 L183.243115,48.4227109 Z M171.440477,123.596567 C171.437896,123.596567 171.435315,123.599085 171.432734,123.601603 L171.435315,123.599085 C171.437896,123.596567 171.437896,123.596567 171.440477,123.596567 L171.440477,123.596567 Z M171.430153,123.601603 C171.427572,123.601603 171.424991,123.604122 171.422411,123.60664 C171.414668,123.611676 171.406925,123.616712 171.401763,123.621749 C171.404344,123.616712 171.412087,123.611676 171.417249,123.60664 C171.422411,123.604122 171.424991,123.604122 171.430153,123.601603 L171.430153,123.601603 Z M171.378535,123.626785 C171.396601,123.616712 171.396601,123.616712 171.409506,123.609158 L171.391439,123.626785 C171.386277,123.631821 171.368211,123.636857 171.360468,123.641894 C171.368211,123.636857 171.373373,123.629303 171.378535,123.626785 L171.378535,123.626785 Z M171.184964,123.800536 C171.215935,123.760246 171.25723,123.732546 171.298525,123.699811 C171.295944,123.702329 171.293364,123.707365 171.293364,123.712401 L171.226259,123.772837 C171.187545,123.80809 171.151412,123.838308 171.184964,123.800536 L171.184964,123.800536 Z M183.808341,100.243392 C183.80576,100.243392 183.808341,100.240874 183.808341,100.238356 L183.816084,100.266055 C183.810922,100.258501 183.808341,100.250946 183.808341,100.243392 L183.808341,100.243392 Z M186.693832,72.6320518 C186.698993,72.6421244 186.701574,72.6471606 186.706736,72.6572332 L186.698993,72.7906943 L186.686089,72.7403316 C186.680927,72.7025596 186.691251,72.6673057 186.693832,72.6320518 L186.693832,72.6320518 Z M186.698993,72.5338446 L186.698993,72.5338446 C186.704155,72.5212539 186.704155,72.5212539 186.706736,72.5136995 C186.704155,72.5187358 186.701574,72.5262902 186.698993,72.5338446 L186.698993,72.5338446 Z M186.711898,34.2506523 C186.735127,34.2909425 186.665441,34.1977715 186.644794,34.1700721 C186.639632,34.1574814 186.637051,34.1448907 186.631889,34.1297819 C186.642213,34.1448907 186.655117,34.1574814 186.665441,34.1725902 L186.711898,34.2506523 Z M186.670603,34.2707974 L186.670603,34.2657611 C186.670603,34.263243 186.670603,34.2657611 186.670603,34.2657611 C186.680927,34.263243 186.680927,34.2733156 186.670603,34.2707974 L186.670603,34.2707974 Z M195.1206,87.2724833 C195.1206,87.2750014 195.118019,87.2750014 195.118019,87.2775196 L195.1206,87.2221206 L195.123181,87.2321931 C195.123181,87.2447838 195.123181,87.2598926 195.1206,87.2724833 L195.1206,87.2724833 Z M195.36837,59.5100552 L195.36837,59.507537 C195.36837,59.4999826 195.370951,59.4899101 195.373532,59.4848738 L195.378694,59.5704904 L195.36837,59.5100552 Z" id="Fill-11"></path>
                            </g>
                            <path d="M183.797501,445.139121 L183.797501,445.139121 L183.789758,445.146675 C183.779434,445.164302 183.76911,445.181929 183.761368,445.202074 C183.771691,445.179411 183.782015,445.159266 183.797501,445.139121 L183.797501,445.139121 Z" id="Fill-14"></path>
                            <path d="M147.285977,481.817506 L147.311787,481.81247 C147.304044,481.809952 147.296301,481.807434 147.288558,481.807434 C147.267911,481.804916 147.247263,481.81247 147.226616,481.817506 C147.23694,481.814988 147.249844,481.817506 147.260168,481.817506 L147.285977,481.817506" id="Fill-16"></path>
                            <path d="M153.646445,59.145933 C140.042312,53.8754784 118.592121,56.0209286 106.802387,63.8271442 C99.7977168,68.4655472 98.329162,73.6730484 98.329162,77.2236175 C98.329162,80.295741 100.220991,82.2195955 101.743745,83.7657298 C104.22661,86.2889001 108.384504,90.5092928 108.384504,105.338584 C108.384504,108.015361 110.609274,110.185992 113.352813,110.185992 C116.096352,110.185992 118.321122,108.015361 118.321122,105.338584 C118.321122,93.085344 134.315206,84.9039264 145.993959,78.9309124 C155.011763,74.3176908 160.452384,71.5351526 160.1659,66.1866359 C160.000719,63.127103 157.809501,60.7575388 153.646445,59.145933" id="Fill-18"></path>
                            <g id="Group-22" transform="translate(49.037857, -0.000000)">
                                <path d="M111.801926,25.3729707 C103.622928,11.9890881 82.1908033,-1.40738513 46.5944811,1.12333961 C27.0257953,2.51586775 4.78841768,10.0123529 1.05379773,26.8788149 C-0.941268758,35.8861804 3.59086159,44.8331108 12.9441876,50.7658346 C15.7703167,48.0613586 19.6623739,44.7676393 24.6048737,41.5570183 C20.4831128,38.6863455 15.4218898,37.4222422 15.3676901,37.4096515 C13.4990896,36.9664599 12.3557333,35.1307402 12.8099787,33.3101293 C13.2616432,31.4870002 15.1508911,30.3739849 17.0091678,30.8146584 C17.342109,30.8927206 25.2010708,32.8014662 30.8223578,37.7294546 C30.8636528,37.7647084 30.8920432,37.8075167 30.9307573,37.8452887 C43.3631444,31.3283578 62.4414517,25.6449292 86.9707039,31.3736842 C88.8393043,31.8093214 89.9904035,33.6400048 89.5464818,35.4631339 C89.0973983,37.286263 87.2210551,38.4093508 85.3524546,37.9737136 C65.9308824,33.4410722 47.8901129,35.8660353 31.7360105,45.1881677 C24.9765291,49.0862392 19.9772486,53.4426111 16.8491495,56.5625793 C18.3873897,61.4628682 21.7787446,66.0660172 33.7078485,66.0660172 C41.3345257,66.0660172 47.500391,63.2003807 54.0301688,60.163511 C63.7551501,55.6409422 74.7809251,50.5140212 95.1316357,52.5814093 C106.301943,53.7145696 111.285738,48.8142807 113.262738,45.7925198 C116.829597,40.3432777 116.285019,32.7108134 111.801926,25.3729707" id="Fill-20"></path>
                            </g>
                        </g>
                        <path d="M208.838295,37.8524654 L238.270781,37.7265587" id="Stroke-24" stroke="#B355A0" stroke-width="0.75"></path>
                        <path d="M238.270781,42.7628268 C241.122719,42.7628268 243.43266,40.5065787 243.43266,37.7265587 C243.43266,34.9440206 241.122719,32.6902906 238.270781,32.6902906 C235.418842,32.6902906 233.108901,34.9440206 233.108901,37.7265587 C233.108901,40.5065787 235.418842,42.7628268 238.270781,42.7628268" id="Fill-25" fill="#B355A0"></path>
                        <path d="M208.838295,189.736744 L238.270781,189.610837" id="Stroke-27" stroke="#B355A0" stroke-width="0.75"></path>
                        <path d="M238.270781,194.646853 C241.122719,194.646853 243.43266,192.390605 243.43266,189.610585 C243.43266,186.828047 241.122719,184.574317 238.270781,184.574317 C235.418842,184.574317 233.108901,186.828047 233.108901,189.610585 C233.108901,192.390605 235.418842,194.646853 238.270781,194.646853" id="Fill-28" fill="#B355A0"></path>
                        <path d="M208.838295,343.495269 L238.270781,343.369362" id="Stroke-30" stroke="#B355A0" stroke-width="0.75"></path>
                        <path d="M238.270781,348.40563 C241.122719,348.40563 243.43266,346.149382 243.43266,343.369362 C243.43266,340.586824 241.122719,338.333094 238.270781,338.333094 C235.418842,338.333094 233.108901,340.586824 233.108901,343.369362 C233.108901,346.149382 235.418842,348.40563 238.270781,348.40563" id="Fill-31" fill="#B355A0"></path>
                        <path d="M208.838295,450.817387 L238.270781,450.691481" id="Stroke-33" stroke="#B355A0" stroke-width="0.75"></path>
                        <path d="M238.270781,455.727497 C241.122719,455.727497 243.43266,453.471249 243.43266,450.691229 C243.43266,447.908691 241.122719,445.654961 238.270781,445.654961 C235.418842,445.654961 233.108901,447.908691 233.108901,450.691229 C233.108901,453.471249 235.418842,455.727497 238.270781,455.727497" id="Fill-34" fill="#B355A0"></path>
                    </g>
                </g>
            </g>
        </g>
    </g>
</svg>