<?xml version="1.0" encoding="UTF-8" standalone="no"?>
<svg width="299px" height="352px" viewBox="0 0 299 352" version="1.1" xmlns="http://www.w3.org/2000/svg" xmlns:xlink="http://www.w3.org/1999/xlink">
    <!-- Generator: Sketch 40.3 (33839) - http://www.bohemiancoding.com/sketch -->
    <title>Group</title>
    <desc>Created with Sketch.</desc>
    <defs></defs>
    <g id="Products" stroke="none" stroke-width="1" fill="none" fill-rule="evenodd">
        <g id="Mobile-Portrait" transform="translate(0.000000, -1271.000000)">
            <g id="We-Love-your-Guts" transform="translate(-330.000000, 1097.000000)">
                <g id="Group" transform="translate(315.000000, 171.000000)">
                    <text id="“The-Second-Brain”:" font-family="Circular-Medium, Circular" font-size="13" font-weight="400" letter-spacing="-0.178082183" fill="#FFFFFF">
                        <tspan x="179.75" y="13.25">“The Second Brain”: </tspan>
                        <tspan x="179.75" y="29.25">Our digestive system is </tspan>
                        <tspan x="179.75" y="45.25">the second largest part </tspan>
                        <tspan x="179.75" y="61.25">of our neurological </tspan>
                        <tspan x="179.75" y="77.25">system, most illnesses </tspan>
                        <tspan x="179.75" y="93.25">originate in the gut.</tspan>
                        <tspan x="179.75" y="120.75">Appetite: Probiotics </tspan>
                        <tspan x="179.75" y="136.75">are the fastest growing </tspan>
                        <tspan x="179.75" y="152.75">functional food on the </tspan>
                        <tspan x="179.75" y="168.75">market with a growth </tspan>
                        <tspan x="179.75" y="184.75">rate of 7% year over </tspan>
                        <tspan x="179.75" y="200.75">year. †</tspan>
                        <tspan x="179.75" y="228.25">Need: More than 20 </tspan>
                        <tspan x="179.75" y="244.25">million Canadians </tspan>
                        <tspan x="179.75" y="260.25">suffer from digestive </tspan>
                        <tspan x="179.75" y="276.25">disorders every year. ††</tspan>
                        <tspan x="179.75" y="303.75">Reality: 80 percent of </tspan>
                        <tspan x="179.75" y="319.75">your entire immune </tspan>
                        <tspan x="179.75" y="335.75">system is located in </tspan>
                        <tspan x="179.75" y="351.75">your digestive tract.</tspan>
                    </text>
                    <g id="Digestive-System" transform="translate(80.000000, 180.250000) rotate(-360.000000) translate(-80.000000, -180.250000) translate(0.500000, 8.250000)">
                        <g id="Group-23" transform="translate(-0.000000, 0.245417)" fill="#FEFEFE">
                            <path d="M74.0144034,114.000241 C72.2229849,114.000241 70.7703012,112.548785 70.7703012,110.758881 L70.7703012,80.6352779 C70.7703012,78.8453735 72.2229849,77.3939176 74.0144034,77.3939176 C75.805822,77.3939176 77.2585057,78.8453735 77.2585057,80.6352779 L77.2585057,110.758881 C77.2585057,112.548785 75.805822,114.000241 74.0144034,114.000241" id="Fill-1"></path>
                            <path d="M107.32316,155.237416 C104.753157,151.071637 100.561945,146.565725 96.1246877,141.793769 C87.2821918,132.283534 77.2583372,121.507063 77.2583372,110.759218 L74.0142349,110.759218 L74.0142349,110.759218 L74.0142349,110.759218 L70.7701327,110.759218 C70.7701327,123.38621 73.3451915,133.901688 75.4129907,142.351115 C77.6223507,151.376409 79.2199658,157.897857 76.4376214,161.438938 C73.2407061,165.50874 63.3078549,167.404725 45.1779577,167.404725 L41.9338555,167.404725 L41.9338555,170.646085 C41.9338555,179.806085 45.6127517,201.111504 79.6901499,201.111504 C90.8228977,201.111504 100.029407,195.605401 105.616004,185.606857 C111.246417,175.529174 111.964333,162.757372 107.32316,155.237416" id="Fill-3"></path>
                            <path d="M28.9571095,314.706618 L22.468905,314.706618 C22.468905,308.550559 27.4808323,303.542868 33.6420987,303.542868 L100.052664,303.542868 C104.525311,303.542868 108.163762,299.907493 108.163762,295.438625 C108.163762,290.969757 104.525311,287.336066 100.052664,287.336066 L33.8241055,287.336066 C25.7736761,287.336066 19.2248027,280.791044 19.2248027,272.749103 C19.2248027,264.707162 25.7736761,258.16214 33.8241055,258.16214 L88.6991483,258.16214 C99.430807,258.16214 108.163762,249.43825 108.163762,238.713978 C108.163762,227.99139 99.430807,219.265816 88.6991483,219.265816 L45.1776207,219.265816 C30.8681806,219.265816 19.2248027,207.633963 19.2248027,193.334934 C19.2248027,179.037588 30.8681806,167.404051 45.1776207,167.404051 L45.1776207,173.886772 C34.4442767,173.886772 25.7130072,182.610662 25.7130072,193.334934 C25.7130072,204.059206 34.4442767,212.783096 45.1776207,212.783096 L88.6991483,212.783096 C103.008588,212.783096 114.651966,224.416632 114.651966,238.713978 C114.651966,253.013007 103.008588,264.64486 88.6991483,264.64486 L33.8241055,264.64486 C29.3514575,264.64486 25.7130072,268.280235 25.7130072,272.749103 C25.7130072,277.217971 29.3514575,280.853346 33.8241055,280.853346 L100.052664,280.853346 C108.103093,280.853346 114.651966,287.396684 114.651966,295.438625 C114.651966,303.48225 108.103093,310.025588 100.052664,310.025588 L33.6420987,310.025588 C31.0586136,310.025588 28.9571095,312.125316 28.9571095,314.706618" id="Fill-5"></path>
                            <path d="M30.1905424,235.37664 L30.2006539,235.374956 C30.2781753,235.353066 30.3051393,235.344647 30.1905424,235.37664" id="Fill-7"></path>
                            <g id="Group-13" transform="translate(0.000000, 230.683824)">
                                <path d="M131.625615,48.1819368 C131.612133,47.8502235 131.586854,47.5168265 131.548093,47.1851132 C131.359346,45.9256132 130.944775,44.8850103 130.533574,44.0818265 C130.122374,43.2988485 129.685894,42.6236353 129.308399,42.0965985 C129.106169,41.8019294 128.941015,41.5847162 128.753952,41.3270912 L128.277027,40.6771353 C127.965256,40.2595471 127.759656,39.9429882 127.606298,39.6904147 L127.591131,39.6651574 C127.675394,39.325025 127.951774,38.5605691 128.325899,37.6496206 C128.541611,37.0973265 128.782602,36.5113559 129.023592,35.7418485 C129.143245,35.3932971 129.259527,34.9268779 129.364012,34.4958191 C129.460071,33.9923559 129.55276,33.51415 129.583094,32.8844 L129.605003,32.4398706 C129.601632,32.2209735 129.589835,31.9818706 129.571298,31.7545544 C129.55276,31.5238706 129.525796,31.2931868 129.490406,31.0658706 L129.438163,30.7509956 L129.41457,30.6482824 L129.369068,30.4428559 L129.345474,30.3401426 C129.439848,30.6735397 129.197173,29.7861647 129.18032,29.7676426 C129.052241,29.4241426 128.90731,29.0806426 128.750582,28.7472456 C128.093335,27.4675397 127.252396,26.5801647 126.512573,25.9201059 C125.043036,24.6808118 123.849881,24.0729515 122.978608,23.5290765 C122.542128,23.2647162 122.173059,23.0306647 121.962403,22.86565 C121.913531,22.8319735 121.881511,22.8050324 121.852862,22.7814588 C121.798934,22.5726647 121.723098,22.2476868 121.654003,21.7677971 L121.39616,20.0587162 C121.291675,19.4104441 121.145058,18.6375691 120.883845,17.7602971 L120.663077,17.0800324 L120.354677,16.3340985 C120.261988,16.1000471 120.095149,15.8070618 119.951902,15.5460691 L119.722709,15.1503706 C119.635076,15.0072456 119.476663,14.7917162 119.348584,14.6199662 C119.212079,14.4397971 119.068833,14.2629956 118.920531,14.0912456 L118.694707,13.8386721 C118.595278,13.7292235 118.610445,13.7511132 118.57337,13.7140691 L118.26834,13.4160324 C118.33575,13.4682309 117.560536,12.7963853 117.764451,12.9883412 L117.511663,12.8081721 C117.343139,12.6886206 117.169558,12.5741206 116.994292,12.4646721 C116.635335,12.2356721 116.330305,12.1161206 115.983144,11.9561574 C114.666965,11.41565 113.581665,11.2843118 112.722189,11.2119074 C111.879565,11.1529735 111.141426,11.1563412 110.541478,11.1664441 C109.933104,11.1765471 109.395509,11.1917015 108.975883,11.1832824 C108.601758,11.1832824 108.323692,11.1597088 108.133259,11.1344515 C107.974845,10.9509147 107.737226,10.6343559 107.452419,10.2302382 C107.1575,9.81770147 106.800228,9.29908382 106.37723,8.73668676 C105.962659,8.17934118 105.421695,7.52433382 104.754337,6.86090735 C104.378526,6.51235588 104.021254,6.177275 103.529161,5.83209118 C103.212335,5.55762794 102.199501,4.99186324 101.609664,4.75612794 L101.213631,4.6029 C101.00129,4.53217941 101.54731,4.70729706 100.713112,4.43451765 L100.419879,4.36379706 C100.222705,4.31833382 100.023846,4.27792206 99.8249865,4.24256176 C99.407045,4.15837059 99.0750512,4.14826765 98.7211491,4.13311324 L98.1919813,4.12469412 L97.7403348,4.15331912 C97.1033111,4.19709853 96.6297565,4.29644412 96.1292378,4.39747353 C95.7062406,4.50355441 95.2512237,4.61973824 94.9108036,4.73423824 C93.4463231,5.20907647 92.4789908,5.63003235 91.7543342,5.84219412 C91.6397374,5.87418676 91.535252,5.90112794 91.4391929,5.92470147 C91.2217959,5.75631912 90.94373,5.52900294 90.6033099,5.23096618 C90.2005356,4.88241471 89.7707974,4.49345147 89.2129804,4.03881912 C88.9618784,3.82497353 88.6281993,3.57576765 88.3248547,3.34508382 L87.7923164,2.97801029 L87.5209914,2.79615735 L87.2058501,2.60925294 C86.9901383,2.48633382 86.7946496,2.36678235 86.5553444,2.24723088 C86.3076129,2.12767941 86.056511,2.01149559 85.8020386,1.90036324 L85.608235,1.81785588 L85.3183724,1.71682647 C85.1245689,1.65115735 84.9290801,1.59053971 84.7319061,1.53497353 C84.5347321,1.47940735 84.3358729,1.42889265 84.1370136,1.38342941 C84.0055643,1.35312059 84.0342135,1.36322353 83.9819708,1.35312059 L83.8791707,1.33628235 L83.6735704,1.30092206 L83.5707703,1.2824 C83.9010789,1.32281176 83.0230647,1.20831176 82.9893598,1.21504706 C82.6068085,1.19484118 82.2192015,1.19315735 81.834965,1.20831176 C81.1507543,1.26556176 80.4631731,1.38679706 79.9508578,1.54339265 C78.8554466,1.8549 78.0667506,2.24049559 77.4229859,2.57389265 C76.7539425,2.91907647 76.2382566,3.22721618 75.7680724,3.49494412 C75.2169964,3.82328971 74.7333302,4.07417941 74.4198741,4.21898824 C74.2429231,4.11459118 74.0255261,3.97988529 73.7575717,3.79634853 L72.3739831,2.86182647 C71.8380743,2.50822353 71.1993653,2.112525 70.435948,1.72524559 C70.2488855,1.62926765 70.0163213,1.52992206 69.8056653,1.43731176 C69.5950093,1.34301765 69.3792976,1.25040735 69.1147136,1.16284853 C68.8568707,1.07528971 68.6192508,0.99615 68.3428701,0.915326471 C67.9586336,0.819348529 67.5659708,0.741892647 67.1716228,0.684642647 C66.6626779,0.612238235 66.6744747,0.630760294 66.5110056,0.615605882 L66.3104611,0.602135294 C66.5076351,0.608870588 65.9430771,0.581929412 65.9009459,0.588664706 L65.6650111,0.5954 C65.3481845,0.607186765 65.0313579,0.629076471 64.7179018,0.659385294 C64.4196129,0.698113235 64.1449175,0.755363235 63.8601106,0.812613235 L63.4387986,0.906907353 L63.0697294,1.01803971 C62.8270536,1.09549559 62.5759517,1.17463529 62.3433875,1.26051029 C61.9355575,1.42889265 61.4704291,1.61579706 61.1350647,1.79596618 C59.6790105,2.53348088 58.68977,3.257525 57.9162412,3.74583382 C57.5673949,3.97483382 57.3061815,4.12469412 57.0887845,4.24592941 C57.051709,4.23245882 57.0163188,4.22235588 56.9590204,4.19373088 C56.4450198,3.97988529 55.6816025,3.54714265 54.645175,2.98474559 C54.3755353,2.84162059 54.1244334,2.70523088 53.8042363,2.55031912 L53.3374226,2.32468676 L52.8082548,2.09231912 C52.6431005,2.01823088 52.435815,1.93909118 52.2234737,1.86500294 C52.0111325,1.78923088 51.8190142,1.71682647 51.58645,1.64610588 C51.0623379,1.51308382 50.7219178,1.38006176 49.7950315,1.28071618 C49.5961722,1.26051029 49.3956277,1.24367206 49.1950832,1.23356912 L48.942296,1.22515 L48.8462369,1.22683382 L48.4670561,1.23188529 C47.5806157,1.2824 48.0946163,1.26219412 47.8401439,1.2824 L47.6193764,1.31439265 L47.1812119,1.39016471 C46.8846083,1.44067941 46.6014867,1.50634853 46.35207,1.58885588 C46.0908565,1.66799559 45.8330136,1.75387059 45.5768559,1.84311324 C45.3409212,1.93572353 45.1268947,2.03338529 44.9027568,2.13441471 C44.4342578,2.33815735 44.0988935,2.54863529 43.714657,2.76753235 C42.3057897,3.63806912 41.4193493,4.46145882 40.6593025,5.10131176 C40.1436166,5.55762794 39.6902849,5.91965 39.432442,6.10487059 C39.1105597,6.05098824 38.5055557,5.87755441 37.7893253,5.63508382 C36.9349046,5.36062059 35.9237558,4.97165735 34.4559049,4.66015 C34.2738981,4.62142206 34.0531306,4.58942941 33.8525861,4.55743676 C33.6368744,4.52881176 33.4649791,4.49176765 33.2054509,4.47661324 L32.4807943,4.43620147 L32.2987876,4.43115 L32.0122954,4.43956912 C31.8218624,4.44798824 31.6297441,4.46314265 31.4393111,4.48166471 C31.2488781,4.50018676 31.0584451,4.52544412 30.8713826,4.55406912 L30.6135396,4.59784853 L30.5292772,4.61637059 L30.2006539,4.69045882 C30.0371848,4.73592206 29.6276696,4.84873824 29.6411516,4.84537059 L29.4490333,4.91609118 L29.0698525,5.06426765 C28.8238063,5.16698088 28.5592224,5.26969412 28.3367697,5.39092941 C26.4779412,6.36923088 25.3943268,7.60515735 24.5988898,8.57503971 C23.8135643,9.56849559 23.2810259,10.4154588 22.8344352,11.0586794 L22.5310906,11.4947897 L22.2850444,11.8180838 L22.1923558,11.9292162 L22.1873,11.9359515 C22.1552803,11.9443706 22.1232606,11.9544735 22.0828147,11.9628926 C21.7137454,12.0420324 21.0699807,12.10265 20.2795994,12.1447456 C19.4774214,12.1969441 18.5319973,12.2222015 17.3085073,12.4057382 C16.9781987,12.4663559 16.6748541,12.5135029 16.3243225,12.5960103 L15.7749317,12.7425029 C15.5929249,12.7913338 15.4159739,12.8401647 15.1985769,12.9243559 C14.7604124,13.0994735 14.4756055,13.1701941 13.7846539,13.562525 C13.486365,13.7309074 13.1965024,13.9161279 12.921807,14.1114515 L12.6605935,14.3151941 L12.5443114,14.4078044 C12.3690456,14.5593485 12.854397,14.135025 12.1347962,14.7597235 L12.0050321,14.8944294 C11.8314516,15.0745985 11.6612415,15.2598191 11.4977725,15.4500912 C11.1506114,15.8323191 10.9281587,16.2111794 10.6736862,16.6085618 C10.4175285,17.0109956 10.2793382,17.3595471 10.0956462,17.7451426 C9.9271214,18.1240029 9.83443277,18.4422456 9.71309492,18.7958485 C9.31369116,20.1294368 9.20920579,21.1717235 9.11651715,22.0540471 C9.05079249,22.779775 8.98675306,23.4970838 8.92439889,24.2026059 L8.8788972,24.5747309 L8.83171026,24.8576132 C8.81991352,24.9047603 8.81148728,24.9451721 8.80306104,24.9889515 C8.7946348,24.9956868 8.7946348,24.9973706 8.78620856,25.0057897 C8.41376877,25.4014882 7.33015436,26.1305838 6.06790366,27.0853118 C5.44267669,27.5652015 4.70622334,28.1781132 3.96471426,29.0031868 C3.59227447,29.4056206 3.22151993,29.9074 2.85582113,30.4815838 C2.62325691,30.88065 2.41260092,31.2999221 2.23396464,31.7208779 L2.16823998,31.8791574 L2.14633175,31.9414588 L2.1092563,32.0475397 L2.03510539,32.2613853 L2.00477093,32.3506279 C1.96263973,32.4887015 1.85478386,32.8406206 1.85815436,32.8305176 L1.8278199,32.9719588 C1.78737395,33.1622309 1.75029849,33.3541868 1.71996403,33.5461426 C1.68794432,33.7364147 1.6592951,33.9283706 1.63738688,34.1186426 L1.61547866,34.6355765 C1.58514419,35.3613044 1.66435085,35.9203338 1.7435575,36.4978853 C1.93567576,37.5435397 2.20868593,38.351775 2.45978787,39.0303559 C2.97210323,40.3588926 3.4068972,41.2631059 3.66979587,41.9433706 C3.72372381,42.0915471 3.77933699,42.2380397 3.83157967,42.3828485 C3.85517314,42.4821941 3.90741583,42.6152162 3.91752732,42.6758338 C3.91921257,42.6825691 3.92089781,42.6943559 3.92426831,42.7044588 C3.90236009,42.7465544 3.88045186,42.7903338 3.85854364,42.8324294 C3.66474013,43.1944515 3.30578232,43.7181206 2.94008352,44.2518926 C2.57438472,44.7856647 2.17835146,45.3598485 1.80759692,45.9710765 C1.71490828,46.1243044 1.62559014,46.2741647 1.5396425,46.4189735 C1.45032436,46.5839882 1.36269147,46.7439515 1.28011432,46.8988632 C1.11664527,47.1901647 0.959917216,47.5437676 0.823412134,47.855275 C0.685221805,48.1465765 0.56725445,48.5170176 0.466139575,48.8133706 C0.440860856,48.8908265 0.417267385,48.9665985 0.393673914,49.0390029 L0.359968956,49.1467676 L0.319523006,49.3033632 C0.292559039,49.4128118 0.274021312,49.5121574 0.252113089,49.6165544 C0.0465128426,50.2328338 -0.0411200493,50.8996279 0.0195488759,51.5866279 C0.0195488759,51.5866279 0.0212341238,51.6152529 0.0262898676,51.6624 C0.0330308593,51.9267603 0.0633653218,52.1860691 0.110552264,52.4403265 C0.135830982,52.6171279 0.169535941,52.8175029 0.220093379,53.0262971 C0.420637881,53.8968338 0.894192547,54.9963706 1.51773428,55.9039515 C2.13116452,56.8233191 2.86087687,57.5911426 3.51138257,58.2613044 C3.77933699,58.5391353 4.06414389,58.8338044 4.36580326,59.1469956 L4.51916083,59.3086426 C4.55286578,59.3440029 4.57308876,59.3642088 4.60005273,59.3894662 C4.56466252,59.4820765 4.52253132,59.5814221 4.47365913,59.6875029 C4.27311463,60.1455029 3.96471426,60.6910618 3.60070071,61.3713265 C3.24679864,62.0717971 2.78335547,62.8429882 2.41260092,64.1967824 L2.35024675,64.4527235 L2.31991229,64.5806941 L2.28452208,64.7810691 C2.24070564,65.0639515 2.21205642,65.3535691 2.20025969,65.6398191 L2.19351869,65.8536647 L2.19351869,65.9530103 L2.19688919,65.9866868 L2.21037117,66.1213926 L2.28115159,66.7865029 C2.36878448,67.1603118 2.45641737,67.5576941 2.58618146,67.9028779 C2.72437179,68.2329074 2.86593261,68.6033485 3.03614265,68.8828632 C3.71529757,70.0834294 4.51241983,70.8377824 5.20674198,71.4540618 C5.90949036,72.0619221 6.56168131,72.5333926 7.07568192,72.9358265 C7.20544601,73.0368559 7.33015436,73.1328338 7.42452824,73.2153412 L7.5778858,73.3449956 L7.68742692,73.4477088 C7.78348605,73.5285324 7.78685654,73.5504221 7.83909923,73.5874662 C7.8626927,73.6110397 7.83741398,73.5790471 7.81550576,73.5453706 C7.79696803,73.5133779 7.7818008,73.4797015 7.76831882,73.446025 C7.74809584,73.4005618 7.70764989,73.2187088 7.77000407,73.3803559 C7.82898774,73.3955103 7.92841737,73.7693191 7.91662063,74.2407897 C7.91156489,74.7274147 7.823932,75.3487456 7.69922365,76.0509 C7.57957105,76.7648412 7.38239704,77.5276132 7.28296742,78.5682162 C7.23578047,79.0902015 7.20376076,79.6845912 7.36385932,80.5517603 C7.43295448,80.8481132 7.52732836,81.14615 7.64192522,81.4256647 L7.72618762,81.6226721 L7.75820733,81.6816059 L7.82224675,81.8011574 L7.88797142,81.919025 L7.89639766,81.9341794 C8.25198497,82.5285691 8.00593877,82.1126647 8.09020117,82.2524221 L8.12896187,82.3012529 L8.20648328,82.4005985 L8.52836563,82.7878779 C8.96821534,83.2879735 9.52771765,83.7375544 10.1057577,84.0574809 C10.6837977,84.3841426 11.2803755,84.5862015 11.8247106,84.7124882 C12.9251775,84.9583265 13.8385818,84.9381206 14.6222221,84.9010765 C15.4041771,84.8572971 16.0765911,84.7899441 16.6141852,84.7512162 C16.8703428,84.7326941 17.129871,84.7276426 17.2410974,84.7293265 C17.2377269,84.7310103 17.2343564,84.7310103 17.2326711,84.7276426 C17.2326711,84.7276426 17.1989662,84.7091206 17.3034516,84.7276426 L17.4584944,84.7512162 L17.5141075,84.7680544 C18.3483053,85.0004221 19.1993555,85.3355029 19.9762548,85.7042603 C20.8171935,86.1117456 21.5502763,86.4687162 22.1535951,86.7617015 C22.846232,87.0765765 23.4748294,87.3746132 24.3511584,87.5396279 C24.4000306,87.5497309 24.4489027,87.55815 24.4960897,87.5665691 C24.5500176,87.5766721 24.6966342,87.5884588 24.7893228,87.5918265 C24.9982936,87.6036132 25.1954676,87.6002456 25.3774743,87.5884588 C25.5594811,87.5749882 25.7246354,87.5547824 25.8729372,87.529525 C25.9049569,87.5244735 25.9319209,87.5211059 25.9588849,87.5177382 C26.0498883,87.5042676 26.0970752,87.4975324 26.0970752,87.4975324 C26.2706557,87.472275 26.462774,87.4318632 26.6363545,87.3779809 C28.3654189,86.8324221 29.3260102,84.9920029 28.7816751,83.2644 C28.2491368,81.5721574 26.4712002,80.6275324 24.7758408,81.0973191 C24.6882079,81.0720618 24.5938341,81.0434368 24.4910339,81.0080765 C23.9332169,80.8346426 23.1765406,80.5298706 22.2378575,80.1931059 C21.2991744,79.8563412 20.1835403,79.4454882 18.7898402,79.1592382 L18.6617614,79.1306132 L18.4443644,79.0918853 L18.4174004,79.0868338 L18.3651577,79.0800985 L18.149446,79.0531574 C18.1090001,79.0447382 17.9269933,79.0295838 17.782062,79.0211647 L17.3304155,79.0026426 C16.8467494,79.0060103 16.5012735,79.0346353 16.1423157,79.0683118 C15.4530493,79.1322971 14.8598421,79.2181721 14.3323595,79.2434294 C13.8116179,79.2686868 13.3667124,79.2400618 13.1240367,79.1760765 C13.1088695,79.171025 13.1021285,79.1693412 13.0886465,79.1642897 C13.1543712,78.74165 13.3178402,78.0698044 13.513329,77.3289221 C13.7088177,76.5678338 13.9245295,75.7040324 14.0307001,74.6785838 C14.1200182,73.6464 14.1469822,72.4542529 13.6312963,71.0566794 C13.6346668,71.0331059 13.4779388,70.6997088 13.3633419,70.4892309 L13.1661679,70.1457309 C13.0953875,70.0295471 13.0212366,69.9150471 12.9824759,69.8662162 C12.7954134,69.610275 12.5797016,69.3189735 12.4027506,69.1303853 L12.1229994,68.8188779 L11.8634713,68.5545176 C11.6865202,68.3709809 11.5281069,68.2160691 11.3713789,68.0662088 C10.7461519,67.4684515 10.216984,66.9919294 9.82937702,66.5709735 C9.65748174,66.3874368 9.52434715,66.2207382 9.42154703,66.0759294 C9.53277339,65.9125985 9.73668839,65.5842529 9.98947558,65.2424368 C10.3400071,64.7490765 10.7630044,64.1664735 11.2079098,63.4862088 C11.6460743,62.8059441 12.1229994,61.9892897 12.4718458,60.8981721 C12.5628492,60.6489662 12.6319443,60.3307235 12.6942985,60.0276353 C12.7229477,59.8744074 12.7549674,59.7279147 12.7768756,59.5696353 L12.8173216,59.0611206 L12.8358593,58.5542897 L12.7853019,57.9077015 L12.7684494,57.6904882 C12.7701346,57.6871206 12.7600232,57.6265029 12.7482264,57.5675691 L12.7128362,57.3958191 L12.6336296,57.0573706 C12.5763311,56.8317382 12.5106065,56.6094735 12.4364556,56.3922603 C12.3926391,56.2642897 12.3757866,56.2272456 12.3471374,56.156525 L12.269616,55.9628853 C12.1651306,55.7153632 12.045478,55.4324809 11.9426779,55.2506279 C11.8398778,55.0519368 11.7286514,54.839775 11.6258513,54.6612897 C11.5247364,54.496275 11.4269921,54.3329441 11.3292477,54.1712971 C10.9551226,53.5785912 10.6197583,53.1003853 10.3669711,52.7248926 C10.1074429,52.3426647 9.91026893,52.0244221 9.77039335,51.7718485 C9.77376384,51.7617456 9.77544909,51.7533265 9.79230157,51.7263853 C9.82600653,51.6674515 9.83780326,51.6169368 9.91195417,51.5007529 C9.94060339,51.4502382 9.97093785,51.3963559 10.0012723,51.3407897 C10.0450888,51.2717529 10.0905905,51.2010324 10.1377774,51.1269441 C10.3265252,50.8289074 10.6113321,50.4281574 10.9989391,49.8893338 C11.3798051,49.3454588 11.8634713,48.7089735 12.4381408,47.7289882 C12.5813869,47.4814662 12.7313739,47.1935324 12.8763053,46.9157015 C13.0246071,46.6075618 13.1745941,46.2573265 13.3144697,45.9104588 C13.4526601,45.4895029 13.5908504,45.1140103 13.6919653,44.62065 C13.7408374,44.3714441 13.7846539,44.1188706 13.8217294,43.8646132 L13.8486933,43.6726574 L13.8756573,43.2331794 L13.8823983,43.0681647 L13.8925098,42.7246647 C13.887454,42.4400985 13.8722868,42.1521647 13.8470081,41.8625471 C13.7930801,41.1991206 13.7138735,40.9145544 13.6346668,40.4902309 C13.5520897,40.0911647 13.4509748,39.7712382 13.3498599,39.4007971 C13.2470598,39.0876059 13.1375187,38.7474735 13.0279776,38.4511206 C12.5948689,37.2673926 12.1297404,36.2739368 11.868527,35.5431574 C11.8516745,35.4976941 11.8381925,35.4589662 11.8247106,35.4168706 C11.9325664,35.3259441 12.0572748,35.2232309 12.2190586,35.1070471 C13.0043841,34.4823485 14.2295593,33.8020838 15.8676203,32.2799074 C16.0816468,32.0626941 16.2754503,31.8875765 16.497903,31.6265838 C16.722041,31.3605397 16.9310118,31.1264882 17.150094,30.8183485 L17.4736616,30.3317235 L17.6303897,30.0825176 L17.7062258,29.9579147 L17.8899178,29.6043118 L18.0045147,29.363525 L18.0634984,29.2439735 L18.0921476,29.1833559 L18.1545018,29.0368632 C18.3196561,28.6377971 18.4932366,28.1579074 18.5960367,27.7975691 C18.6685024,27.5045838 18.740968,27.2115985 18.8134337,26.9169294 L18.9566798,26.1255324 L19.0561094,25.4065397 C19.1673358,24.4939074 19.2212637,23.7244 19.2903589,23.0963338 C19.3122671,22.8892235 19.3358605,22.7040029 19.3628245,22.5339368 C19.7521168,22.5036279 20.2475797,22.4800544 20.820564,22.4547971 C21.6968929,22.40765 22.7434318,22.3672382 24.0528695,22.1264515 C24.3865486,22.0590985 24.7438211,21.9715397 25.0876117,21.8873485 C25.4684777,21.7711647 25.844288,21.6532971 26.231895,21.5034368 L26.8453253,21.2306574 L27.1486699,21.0858485 C26.904309,21.2323412 27.6576148,20.8012824 27.5969459,20.8315912 L27.666041,20.7894956 L27.9407364,20.6143779 L28.0233136,20.5621794 L28.2120613,20.4274735 L28.5811306,20.1479588 L28.9400885,19.8532897 C29.0546853,19.7556279 29.1911904,19.6360765 29.2417478,19.5821941 L29.6596893,19.1612382 L29.8652896,18.9473926 L30.0338144,18.7537529 L30.3658082,18.3631059 C30.5747789,18.1088485 30.7399332,17.8849 30.9269957,17.6407456 L31.3921242,16.9941574 C31.9583675,16.1808706 32.4015877,15.5224956 32.7470635,15.1049074 C32.7723422,15.0729147 32.7942504,15.0476574 32.8178439,15.0190324 C33.2290444,15.1385838 33.8020287,15.3288559 34.4660164,15.5561721 C35.4367192,15.8710471 36.5860583,16.2886353 38.2392865,16.5092162 C38.6673395,16.5563632 39.071799,16.6068779 39.5723176,16.6018265 C39.813308,16.6018265 40.044187,16.6051941 40.2952889,16.5917235 C40.5581876,16.5698338 40.8227715,16.5412088 41.0856702,16.5075324 L41.478333,16.4519662 C42.293993,16.2701132 41.7563989,16.3879809 41.9603139,16.3408338 L42.0479468,16.3172603 L42.2248978,16.2701132 L42.3125307,16.2465397 L42.464203,16.2010765 C43.123135,15.99565 43.9269982,15.6369956 44.2202314,15.4551426 C45.8448103,14.5458779 46.7211393,13.6989147 47.4946681,13.0607456 C48.1013573,12.5370765 48.6136727,12.1161206 48.9540928,11.8803853 L49.1310438,11.9696279 C49.2726046,12.0352971 49.4697786,12.1430618 49.6534706,12.2407235 C50.4253142,12.6515765 51.4415187,13.2729074 52.836904,13.8774 C53.1587863,14.0289441 53.6036918,14.1771206 53.9896136,14.3168779 C54.2053253,14.3859147 54.4429452,14.4499 54.6704537,14.5105176 C54.8996474,14.5728191 55.1271559,14.6334368 55.4035366,14.6772162 C55.6664352,14.7226794 55.9327044,14.764775 56.1972883,14.8001353 C56.48041,14.8287603 56.7854399,14.8388632 57.0803582,14.8472824 L57.5252637,14.8523338 C58.3813696,14.7917162 57.8184968,14.8287603 58.0358938,14.8119221 L58.1319529,14.8018191 L58.3274417,14.7782456 C58.4083336,14.7681426 58.3982221,14.7765618 58.6476388,14.7310985 C59.0318753,14.6637456 59.4161119,14.5761868 59.7936074,14.4701059 C60.0110044,14.4111721 60.1053783,14.3724441 60.2250309,14.3303485 L60.5789329,14.1973265 C61.0845073,14.0137897 61.4198716,13.8319368 61.8277016,13.6366132 C62.5186533,13.2695397 63.1388245,12.8906794 63.6191202,12.5741206 C64.6201574,11.9174294 65.3734633,11.4105985 65.8267949,11.1917015 C65.8436474,11.1815985 65.8503884,11.1799147 65.8655557,11.1731794 C66.0576739,11.2758926 66.3020349,11.41565 66.6171762,11.6261279 L67.9333549,12.5101353 C68.430503,12.8435324 69.0607857,13.2459662 69.8225178,13.6484 C70.5859351,14.0440985 71.625733,14.5020985 73.0042658,14.7193118 L73.5469157,14.7832971 L73.8199258,14.8051868 C73.5873616,14.8152897 74.4569496,14.8169735 74.3895396,14.8119221 L74.8007401,14.7950838 C75.1698094,14.7866647 76.4017257,14.6048118 76.7539425,14.4734735 C78.7930925,13.8925544 79.9946742,13.1062088 81.0024525,12.5471794 C81.4894891,12.2659809 81.9259683,12.0100397 82.2411097,11.8483926 C82.2461654,11.845025 82.2512212,11.8433412 82.2562769,11.8399735 C82.3624476,11.9224809 82.4669329,11.9965691 82.6051233,12.1144368 C82.9152089,12.3636426 83.3196684,12.7239809 83.7628886,13.1062088 C84.2229613,13.5035912 84.7639258,13.9582235 85.444766,14.4532676 C86.1660521,14.9516794 87.0474368,15.5292309 88.3754121,15.9720765 C88.7343699,16.0781574 89.0983835,16.1690838 89.4640823,16.2431721 C90.2561488,16.3576721 89.7438334,16.2819 89.9477484,16.3088412 L90.0522338,16.3189441 L90.2628898,16.33915 L90.3673752,16.3492529 L90.5729754,16.3610397 C90.7600379,16.3694588 90.950471,16.3728265 91.1392187,16.3728265 C91.4931208,16.3728265 91.9649902,16.3543044 92.1638495,16.3206279 C93.2424081,16.2094956 94.0513271,15.9754441 94.8181149,15.7514956 C96.1679985,15.3187529 97.2263342,14.8624368 97.9223416,14.6317529 C98.0015483,14.7243632 98.0841254,14.8270765 98.1801845,14.9533632 C98.4430832,15.2951794 98.7329459,15.7077162 99.1020152,16.2179147 C99.4592877,16.711275 99.8805997,17.2921941 100.477177,17.9657235 C100.751873,18.2873338 101.14285,18.6712456 101.537198,19.0299 C101.773133,19.2269074 102.024235,19.4222309 102.275337,19.6074515 C102.512957,19.7909882 102.878656,19.9980985 103.185371,20.1715324 L103.429732,20.3028706 C103.466807,20.3281279 104.117313,20.6126941 103.883064,20.5082971 L104.081923,20.5857529 C104.23528,20.6446868 104.253818,20.6665765 104.683556,20.80465 C105.022291,20.9124147 105.366082,21.0083926 105.711557,21.0909 L106.439585,21.2205544 C107.378268,21.3619956 108.200669,21.3939882 108.893306,21.3939882 C109.612906,21.3973559 110.211169,21.3720985 110.740337,21.3603118 C110.96279,21.3535765 111.156594,21.3518926 111.33523,21.3518926 C111.358823,21.4680765 111.382417,21.5943632 111.404325,21.7341206 L111.668909,23.3893191 C111.770024,24.0140176 111.918326,24.7953118 112.174483,25.6776353 L112.403677,26.3764221 C112.506477,26.6374147 112.619389,26.9034588 112.735671,27.1627676 C112.833415,27.4052382 113.027219,27.7302162 113.187317,28.0063632 L113.315396,28.2202088 C113.440104,28.4003779 113.221022,28.1124441 113.630537,28.6782088 L113.760302,28.8449074 L113.891751,29.0116059 L113.979384,29.1193706 L114.159705,29.3247971 C114.400696,29.5942088 114.663594,29.8636206 114.916382,30.1027235 C115.280395,30.4175985 115.673058,30.7476279 116.003367,30.9749441 C116.702744,31.4851426 117.302693,31.8370618 117.838602,32.1519368 C118.500904,32.5307971 119.060406,32.8608265 119.451384,33.1100324 C119.358695,33.3811279 119.235672,33.7094735 119.104223,34.058025 C118.730098,35.0935765 118.160484,36.3177162 117.833546,38.2877897 C117.791415,38.5151059 117.764451,38.7946206 117.745913,39.0741353 C117.730746,39.3620691 117.700411,39.6045397 117.717264,39.9345691 C117.72906,40.2477603 117.747598,40.5609515 117.776247,40.8724588 C117.89927,41.6470176 117.823434,41.1469221 117.855454,41.3456132 L117.877362,41.4483265 L117.919493,41.6520691 C117.975107,41.9854662 118.386307,43.2533853 118.549776,43.5009074 C118.654262,43.7231721 118.770544,43.9807971 118.8784,44.1660176 L119.208708,44.7402015 C119.636761,45.4305691 120.064814,46.0249588 120.420401,46.4896941 L121.359084,47.7374074 C121.630409,48.1011132 121.782082,48.3621059 121.893308,48.5473265 L121.864659,48.6601426 C121.80736,48.7780103 121.795564,48.8672529 121.719728,49.0171132 C121.473681,49.5677235 121.005182,50.3389147 120.415346,51.2700691 C119.827194,52.2315324 119.077259,53.3394882 118.426753,55.0738265 C118.347546,55.3045103 118.273396,55.5537162 118.2043,55.7945029 L118.103185,56.1598926 L118.023979,56.5791647 L117.953198,57.0018044 L117.922864,57.2139662 C117.929605,57.0472676 117.877362,57.6904882 117.884103,57.6500765 L117.868936,58.0508265 L117.862195,58.2512015 L117.868936,58.6452162 C117.877362,58.9230471 117.892529,59.2008779 117.914438,59.4787088 C117.924549,59.6302529 117.938031,59.7363338 117.953198,59.8323118 L117.9987,60.1387676 L118.096444,60.7432603 C118.40653,62.2755397 118.858177,63.4761059 119.223875,64.4931353 C119.592945,65.4933265 119.901345,66.3604956 119.977181,66.7915544 L120.010886,66.9430985 C120.009201,66.9532015 120.012571,66.9616206 120.012571,66.9700397 L120.015942,66.9649882 L120.015942,66.9666721 L120.012571,66.9717235 L120.012571,66.976775 L119.960329,67.1417897 C119.943476,67.1569441 119.962014,67.0643338 119.975496,67.0357088 C119.978866,67.0272897 119.983922,67.0205544 119.987293,67.0121353 C119.978866,67.0272897 119.968755,67.0424441 119.960329,67.0592824 C119.943476,67.1165324 119.844047,67.2125103 119.80023,67.2950176 L119.537331,67.6048412 C119.414308,67.7243926 119.318249,67.835525 119.176688,67.9668632 C118.639094,68.4854809 117.897585,69.0815544 117.021256,69.8342235 C116.588148,70.2046647 116.09774,70.6559294 115.597222,71.1661279 C115.074795,71.7386279 114.532145,72.3279662 114.008033,73.2473338 L113.819285,73.5773632 C113.874898,73.4510765 113.633908,73.9427529 113.65076,73.9158118 L113.613685,74.0016868 L113.463698,74.3451868 L113.37775,74.5472456 L113.253042,74.8806426 L113.022163,75.5524882 C112.897455,75.9633412 112.83173,76.2647456 112.739041,76.6250838 L112.553664,77.5932824 C112.351434,78.8325765 112.275598,79.8933853 112.181224,80.7773926 C112.096962,81.6512971 111.970568,82.3585029 111.879565,82.6312824 C111.871139,82.663275 111.866083,82.6801132 111.859342,82.6919 C111.81047,82.7137897 111.744745,82.7339956 111.697558,82.7643044 C111.604869,82.7996647 111.47005,82.8316574 111.360509,82.8720691 L110.920659,82.9747824 C110.270153,83.1094882 109.425844,83.2037824 108.453456,83.3233338 C107.476012,83.4513044 106.362063,83.5826426 105.010494,83.9918118 C104.326284,84.2123926 103.611739,84.4801206 102.829784,84.953275 C102.676426,85.0189441 101.441139,85.8743265 101.13948,86.2060397 C100.175518,87.0782603 99.5064747,87.8999662 98.9166379,88.6206426 C98.3335421,89.3379515 97.8498759,89.9744368 97.4268787,90.4593779 C97.0089372,90.9476868 96.6499794,91.2625618 96.4983071,91.365275 C96.4696579,91.3720103 96.4308972,91.4258926 96.422471,91.4208412 C96.4174152,91.4208412 96.4140447,91.4242088 96.4106742,91.4326279 L96.4073037,91.4444147 L96.2387789,91.4831426 L96.1882215,91.4932456 C96.1949625,91.4949294 96.2000182,91.4966132 96.2067592,91.4982971 C96.2033887,91.4999809 96.1865362,91.4982971 96.171369,91.4982971 L96.0887919,91.5168191 C96.0786804,91.5151353 96.1022739,91.5050324 96.1090148,91.5016647 C96.1157558,91.4966132 96.1241821,91.4982971 96.1326083,91.4966132 C95.8410604,91.5134515 95.3338008,91.4562015 94.7203706,91.3029735 C94.0917731,91.1531132 93.3738575,90.9392676 92.5801057,90.7119515 C91.7880392,90.4863191 90.9049693,90.2404809 89.8618008,90.07715 C89.6157546,90.0316868 89.3275772,90.0030618 89.0461408,89.9794882 L88.6231436,89.9458118 L88.1580152,89.9441279 C87.8513,89.9441279 87.5462702,89.9474956 87.2007943,89.9963265 L86.7002757,90.0636794 L86.5755674,90.0822015 C86.5755674,90.0788338 86.0851602,90.1832309 86.2637965,90.1478706 L86.1306619,90.1849147 L85.8643927,90.2590029 C85.7733893,90.2859441 85.7160909,90.2977309 85.5088054,90.3684515 C85.1683853,90.4846353 84.8245948,90.6142897 84.5027124,90.7523632 C84.01062,90.9948338 83.5303244,91.2490912 83.1292354,91.5151353 C82.3135754,92.0455397 81.6344204,92.5927824 81.0631214,93.0928779 C79.9154676,94.0947529 79.0071189,94.9737088 78.321223,95.4502309 C77.9909144,95.6842824 77.736442,95.8088853 77.6353271,95.8610838 C77.9774325,95.7954147 77.6976813,95.8509809 77.7600355,95.8391941 L77.702737,95.8509809 L77.5881402,95.8762382 L77.3606317,95.9250691 L77.1415495,95.9722162 L77.0640281,95.9772676 C77.0117854,95.9823191 76.967969,95.9941059 76.9056148,96.0058926 L76.5955292,96.0227309 C75.7562757,96.0732456 74.6962548,95.9536941 73.5907321,95.8358265 C72.4649865,95.7280618 71.2937392,95.5664147 69.864649,95.6724956 C69.4955797,95.7112235 69.1534743,95.7331132 68.7507001,95.830775 C68.5552113,95.8762382 68.3698341,95.9132824 68.1726601,95.9705324 C67.9687451,96.0395691 67.7665153,96.1136574 67.5676561,96.1894294 C67.1783638,96.3190838 66.7671633,96.5884956 66.3997792,96.8073926 C66.4132612,96.7939221 65.9919492,97.0986941 66.1571035,96.9825103 L66.1250838,97.0094515 L66.0610444,97.0667015 L65.9329656,97.1778338 L65.8048867,97.2872824 L65.7425326,97.3428485 L65.6144537,97.4657676 C65.4408732,97.6392015 65.2740336,97.8193706 65.1156203,98.0029074 C65.0380989,98.09215 64.9555218,98.1898118 64.8914824,98.2756868 L64.7381248,98.5080544 C64.535895,98.8195618 64.3471473,99.1310691 64.2258094,99.4291059 C64.1583995,99.58065 64.0926748,99.7305103 64.0269502,99.8786868 C63.9797632,100.021812 63.9325763,100.163253 63.8853893,100.30301 C63.8415729,100.442768 63.7977565,100.580841 63.7556253,100.718915 C63.7252908,100.848569 63.6966416,100.97654 63.6679924,101.102826 C63.4472249,102.118172 63.386556,102.956716 63.3579067,103.66729 C63.3309428,104.381231 63.3292575,104.990775 63.3225165,105.509393 C63.3124051,106.549996 63.2803853,107.267304 63.2348836,107.728672 C63.182641,108.176569 63.155677,108.407253 63.155677,108.407253 L63.1371393,108.552062 C63.0056899,109.665069 63.7016973,110.739349 64.8156462,111.047488 C66.0458772,111.389304 67.3199246,110.668628 67.6620299,109.439437 C67.6620299,109.439437 67.7547186,109.107724 67.8929089,108.479657 C68.0310992,107.854959 68.1709748,106.945694 68.3057946,105.857944 C68.3748898,105.314069 68.443985,104.734834 68.5349884,104.143812 C68.6226213,103.55279 68.7372181,102.963451 68.9006872,102.481878 L68.9613561,102.300025 L69.0321365,102.155216 L69.0961759,102.008724 L69.1703268,101.904326 C69.2444777,101.744363 69.4079468,101.668591 69.2647007,101.781407 C69.6253438,101.49179 69.4989502,101.633231 69.606806,101.601238 C69.6320848,101.602922 69.6556782,101.599554 69.6759012,101.591135 L69.8056653,101.589451 C69.8747605,101.574297 70.0264328,101.586084 70.1528264,101.582716 C70.7173844,101.5844 71.6358445,101.746047 72.6840687,101.94979 C73.7525159,102.145113 74.9726354,102.42126 76.5365455,102.490297 L77.131438,102.507135 C77.3707432,102.5004 77.6302714,102.485246 77.8830586,102.468407 L78.2639246,102.438099 L78.5015446,102.40779 L78.7324235,102.377481 L78.8470204,102.362326 L78.9060041,102.353907 C79.0054337,102.333701 78.7644432,102.387584 79.143624,102.308444 C80.2592581,102.062606 81.15581,101.614709 81.9242831,101.166812 C83.4308947,100.252496 84.4976567,99.2927162 85.5020644,98.5518338 C86.0008978,98.1696059 86.4542295,97.8749368 86.8553185,97.6560397 C87.0592335,97.5381721 87.2294435,97.4809221 87.3912273,97.4085176 C87.4097651,97.4169368 87.4080798,97.4219882 87.4097651,97.4102015 C87.3726896,97.4085176 87.4940275,97.3849441 87.5816604,97.3681059 L87.8513,97.3108559 L87.9878051,97.2839147 C87.9979166,97.2822309 88.0012871,97.2805471 88.0080281,97.2788632 C87.9321919,97.2957015 87.7822049,97.3276941 87.8091688,97.3226426 L87.8243361,97.3276941 C87.8411885,97.3327456 87.8597263,97.3344294 87.8765787,97.3361132 C87.8968017,97.3276941 87.9658969,97.3411647 88.0316216,97.3512676 L88.1276807,97.3563191 L88.265871,97.3849441 C88.3585597,97.4017824 88.4461925,97.4102015 88.5709009,97.4455618 C89.0208621,97.5415397 89.6157546,97.7284441 90.3067063,97.9709147 C90.9976579,98.2083338 91.7745572,98.4912162 92.6845911,98.7656794 C93.5912545,99.0334074 94.6681279,99.3095544 96.014641,99.3634368 L96.2691134,99.3735397 L96.6078482,99.3617529 C96.8336715,99.35165 97.0611799,99.3348118 97.2870031,99.3129221 L97.6156265,99.2775618 L97.7672988,99.2523044 L98.0723287,99.2001059 L98.1481648,99.1883191 C98.3015224,99.1529588 97.9156006,99.2489368 98.5088079,99.1058118 L98.7986705,99.0182529 L99.3750253,98.8229294 C99.7609471,98.6882235 100.074403,98.5114221 100.42325,98.3413559 C101.731002,97.6240471 102.629239,96.7770838 103.375804,96.0227309 C104.117313,95.2616426 104.715576,94.5527529 105.251485,93.9398412 C105.785708,93.3302971 106.27106,92.8200985 106.6435,92.5220618 L106.776634,92.4109294 C106.783375,92.4159809 106.78506,92.4142971 106.78506,92.4142971 L106.783375,92.4075618 C106.793487,92.4008265 106.753041,92.4142971 106.825506,92.3755691 L107.117054,92.2105544 C107.101887,92.2223412 107.238392,92.1735103 107.417028,92.1263632 C107.80295,92.0253338 108.510754,91.9344074 109.360119,91.8670544 C110.216225,91.7912824 111.224003,91.7340324 112.417159,91.5488118 L113.355842,91.3720103 C113.697947,91.2861353 114.0232,91.2120471 114.378788,91.1025985 C114.749542,90.9729441 115.091647,90.8769662 115.48431,90.6967971 C115.890455,90.5031574 116.195485,90.3953926 116.749931,90.0333706 C116.997663,89.8734074 117.242024,89.705025 117.476273,89.5299074 L117.59087,89.4423485 L117.659965,89.3850985 L117.79647,89.2705985 L117.934661,89.1560985 L118.003756,89.0988485 C117.964995,89.1409441 118.524497,88.6139074 118.355973,88.7620838 C118.539665,88.5650765 118.718301,88.35965 118.890196,88.1508559 C119.247469,87.7299 119.471607,87.3173632 119.734505,86.8795691 C119.923253,86.4872382 120.142335,86.0427088 120.268729,85.6722676 C120.82149,84.1248338 120.966422,82.8956426 121.116409,81.83315 C121.251229,80.7757088 121.348973,79.8765471 121.487163,79.1626059 L121.595019,78.6726132 L121.70456,78.3055397 C121.711301,78.2954368 121.716357,78.28365 121.716357,78.2718632 L121.712987,78.2516574 C121.709616,78.2482897 121.758488,78.1523118 121.777026,78.1085324 L121.888252,77.8711132 C121.889938,77.8660618 121.891623,77.8643779 121.894993,77.8559588 C121.898364,77.8593265 121.900049,77.8643779 121.900049,77.8643779 C121.862974,77.9031059 122.00959,77.7448265 122.168003,77.5764441 C122.383715,77.3760691 122.638188,77.1437015 122.985349,76.8625029 C123.657763,76.3068412 124.535777,75.65015 125.504794,74.7745618 C125.7441,74.5607162 126.001942,74.3014074 126.247989,74.0623044 C126.504146,73.7912088 126.760304,73.5167456 127.014776,73.2187088 C127.270934,72.8836279 127.525407,72.5956941 127.769768,72.2067309 L128.132096,71.6375985 L128.219729,71.4927897 L128.324214,71.2924147 L128.524759,70.8832456 C128.647782,70.6205691 128.785972,70.297275 128.870234,70.0733265 L128.994943,69.7045691 L129.058982,69.5210324 C128.988202,69.7702382 129.187061,69.0882897 129.185376,69.0664 L129.232563,68.8458191 C129.291546,68.55115 129.340419,68.2531132 129.380865,67.9567603 C129.406143,67.6789294 129.41457,67.4145691 129.422996,67.1434735 L129.428051,66.7376721 L129.404458,66.3807015 L129.340419,65.6684441 L129.235933,65.0471132 C128.922477,63.4171721 128.474201,62.3075324 128.142207,61.3174441 C127.800102,60.3475618 127.543944,59.5359588 127.444515,58.9735618 L127.404069,58.6553191 C127.409124,58.6654221 127.407439,58.6772088 127.400698,58.6873118 C127.397328,58.6822603 127.387216,58.7209882 127.387216,58.6805765 L127.397328,58.4802015 L127.402383,58.3673853 C127.404069,58.3657015 127.407439,58.3623338 127.407439,58.36065 C127.417551,58.3454956 127.415865,58.3337088 127.420921,58.3101353 C127.528777,58.0289368 127.941663,57.2981574 128.512962,56.4360397 C129.085946,55.5436132 129.807232,54.4861721 130.486387,53.0599735 C130.828493,52.320775 131.130152,51.5798926 131.379569,50.4921426 C131.443608,50.1789515 131.497536,49.8640765 131.541352,49.5492015 L131.571687,49.3117824 L131.580113,49.2057015 L131.59528,49.000275 L131.610448,48.7965324 L131.618874,48.6938191 C131.620559,48.7493853 131.637412,47.9815618 131.625615,48.1819368 L131.625615,48.1819368 Z M25.0471658,81.1394147 C25.1010937,81.1427824 25.2055791,81.1562529 25.219061,81.1596206 L25.2359135,81.1646721 C25.3488251,81.2118191 25.2106348,81.2067676 24.9443656,81.1427824 C24.9797558,81.1427824 25.0117755,81.1377309 25.0471658,81.1394147 L25.0471658,81.1394147 Z M12.8897872,79.0295838 C12.9049545,79.0531574 12.915066,79.0800985 12.928548,79.1053559 C12.921807,79.1019882 12.9100102,79.0986206 12.9049545,79.0952529 L12.8712495,79.0245324 L12.8409151,78.9639147 C12.8476561,78.9672824 12.87462,79.0076941 12.8897872,79.0295838 L12.8897872,79.0295838 Z M8.89406443,24.81215 C8.89912017,24.8070985 8.91260216,24.7868926 8.91091691,24.7919441 L8.88226769,24.8525618 L8.83508075,24.9535912 C8.82665451,24.9620103 8.81991352,24.9704294 8.80811678,24.9822162 C8.82665451,24.9300176 8.85698897,24.8525618 8.89406443,24.81215 L8.89406443,24.81215 Z M3.99336347,42.5461794 C4.00853071,42.5007162 3.99673397,42.5057676 4.02032744,42.4855618 C4.00853071,42.5057676 4.00178971,42.5242897 3.99336347,42.5461794 L3.99336347,42.5461794 Z M3.9343798,42.6758338 C3.93269455,42.6135324 3.93943554,42.5512309 3.95628802,42.4906132 L3.95460277,42.6421574 C3.94786178,42.6556279 3.94112079,42.6674147 3.9343798,42.6808853 L3.9343798,42.6758338 L3.9343798,42.6758338 Z M4.6169052,59.1301574 C4.61016421,59.0846941 4.60510847,59.0392309 4.60342322,58.9937676 L4.60342322,58.9264147 C4.60342322,58.8994735 4.60342322,58.8742162 4.60847897,58.9078926 L4.6590364,59.1200544 L4.67083314,59.1756206 C4.66409215,59.2008779 4.65566591,59.2261353 4.64555442,59.2513926 C4.63712818,59.2109809 4.62196095,59.1722529 4.6169052,59.1301574 L4.6169052,59.1301574 Z M4.68262987,59.1419441 L4.66072165,58.9163118 L4.6590364,58.9078926 C4.6590364,58.8860029 4.6624069,58.8657971 4.66746264,58.8439074 C4.67420363,58.8237015 4.68431512,58.8018118 4.69779711,58.7832897 C4.70285285,58.7731868 4.7011676,58.7731868 4.70790859,58.7698191 C4.71633483,58.7647676 4.74835454,58.7496132 4.73655781,58.7933926 C4.75172504,58.8455912 4.73318731,58.9701941 4.68262987,59.1419441 L4.68262987,59.1419441 Z M9.22942877,65.6650765 C9.23616976,65.6684441 9.27493046,65.7004368 9.27155996,65.7256941 L9.27155996,65.7290618 C9.27661571,65.7846279 9.2799862,65.8183044 9.2833567,65.8604 C9.24291075,65.7863118 9.21594678,65.7240103 9.21426153,65.6920176 C9.19403856,65.6566574 9.23954025,65.6684441 9.22942877,65.6650765 L9.22942877,65.6650765 Z M9.30863542,65.9008118 L9.31032067,65.8486132 L9.31369116,65.7139074 L9.31537641,65.6802309 C9.31537641,65.6802309 9.32043215,65.7021206 9.32380265,65.7105397 L9.33728463,65.7930471 C9.34402562,65.8435618 9.33559938,65.8940765 9.33391414,65.9445912 C9.3254879,65.9294368 9.31706166,65.9159662 9.30863542,65.9008118 L9.30863542,65.9008118 Z M9.78556058,51.6236721 C9.78219008,51.6640838 9.77039335,51.7078632 9.76028186,51.7499588 C9.75859661,51.748275 9.75691136,51.7465912 9.75522612,51.7432235 C9.75691136,51.7432235 9.75691136,51.7432235 9.75691136,51.7415397 C9.76196711,51.6725029 9.77039335,51.5849441 9.77881959,51.4822309 L9.78556058,51.4030912 L9.79230157,51.4721279 C9.79398682,51.519275 9.79230157,51.5697897 9.78556058,51.6236721 L9.78556058,51.6236721 Z M11.657871,34.8376353 C11.6696678,34.8426868 11.6662973,34.8393191 11.6679825,34.8763632 C11.664612,34.8645765 11.6612415,34.8460544 11.657871,34.8376353 L11.657871,34.8376353 Z M19.5111263,21.8166279 C19.5212378,21.7964221 19.5246083,21.7661132 19.5246083,21.7863191 C19.5246083,21.806525 19.5195526,21.8082088 19.5111263,21.8166279 L19.5111263,21.8166279 Z M22.3490838,11.8921721 C22.3558248,11.8888044 22.3575101,11.8871206 22.3642511,11.8837529 C22.3676216,11.8837529 22.3709921,11.8803853 22.3743626,11.8820691 C22.3709921,11.8820691 22.3575101,11.8904882 22.3490838,11.8921721 L22.3490838,11.8921721 Z M22.3423428,11.8938559 L22.3507691,11.8854368 C22.3541396,11.8837529 22.3575101,11.8837529 22.3608806,11.8837529 C22.3524543,11.8888044 22.3524543,11.8888044 22.3423428,11.8938559 L22.3423428,11.8938559 Z M22.3794183,11.8534441 L22.2850444,11.9140618 C22.2715624,11.9174294 22.2580804,11.9207971 22.2445985,11.9241647 C22.2462837,11.9224809 22.247969,11.9191132 22.2513395,11.9174294 C22.2884149,11.8921721 22.3288609,11.8685985 22.3693068,11.8467088 L22.4333462,11.8180838 C22.4400872,11.8164 22.3945855,11.8433412 22.3794183,11.8534441 L22.3794183,11.8534441 Z M32.2600269,14.8843265 C32.2566564,14.8843265 32.2549711,14.8860103 32.2516006,14.8843265 C32.2381186,14.879275 32.2465449,14.8809588 32.2600269,14.8843265 L32.2600269,14.8843265 Z M39.649839,6.10992206 C39.7020817,6.09981912 39.65658,6.11160588 39.6262455,6.120025 L39.602652,6.12676029 C39.5891701,6.12507647 39.5756881,6.12339265 39.5638913,6.12339265 C39.5622061,6.12339265 39.5622061,6.12170882 39.5605209,6.12170882 C39.5908553,6.11497353 39.6211898,6.11160588 39.649839,6.10992206 L39.649839,6.10992206 Z M48.5226693,11.6985324 L48.5361513,11.7035838 C48.5058168,11.7002162 48.5378365,11.7052676 48.5226693,11.6985324 L48.5226693,11.6985324 Z M57.262365,4.31328235 C57.262365,4.31328235 57.262365,4.31328235 57.2606798,4.31328235 C57.2573093,4.31159853 57.255624,4.31159853 57.2539388,4.30991471 C57.2724765,4.30991471 57.275847,4.31159853 57.262365,4.31328235 L57.262365,4.31328235 Z M57.3533684,4.33853971 C57.3550536,4.33853971 57.3567389,4.33685588 57.3584241,4.33853971 C57.3702209,4.345275 57.3634799,4.34359118 57.3533684,4.33853971 L57.3533684,4.33853971 Z M66.0020607,11.1075103 C66.0088017,11.1041426 66.0155427,11.100775 66.0222837,11.0974074 C66.0880084,11.1024588 66.1132871,11.1075103 66.0020607,11.1075103 L66.0020607,11.1075103 Z M111.117833,20.5436574 C111.121203,20.5571279 111.126259,20.5689147 111.138056,20.5807015 L111.139741,20.5840691 C111.134685,20.5807015 111.131315,20.5773338 111.127944,20.5722824 C111.122889,20.5689147 111.119518,20.5537603 111.117833,20.5436574 L111.117833,20.5436574 Z M119.650243,32.3792529 C119.650243,32.3758853 119.648558,32.3742015 119.648558,32.3708338 C119.660355,32.3270544 119.655299,32.3472603 119.650243,32.3792529 L119.650243,32.3792529 Z M111.943604,82.6464368 C111.941919,82.6464368 111.940234,82.6481206 111.938549,82.6498044 L111.940234,82.6481206 C111.941919,82.6464368 111.941919,82.6464368 111.943604,82.6464368 L111.943604,82.6464368 Z M111.936863,82.6498044 C111.935178,82.6498044 111.933493,82.6514882 111.931808,82.6531721 C111.926752,82.6565397 111.921696,82.6599074 111.918326,82.663275 C111.920011,82.6599074 111.925067,82.6565397 111.928437,82.6531721 C111.931808,82.6514882 111.933493,82.6514882 111.936863,82.6498044 L111.936863,82.6498044 Z M111.903158,82.6666426 C111.914955,82.6599074 111.914955,82.6599074 111.923381,82.6548559 L111.911585,82.6666426 C111.908214,82.6700103 111.896417,82.6733779 111.891362,82.6767456 C111.896417,82.6733779 111.899788,82.6683265 111.903158,82.6666426 L111.903158,82.6666426 Z M111.776765,82.7828265 C111.796988,82.7558853 111.823952,82.7373632 111.850916,82.7154735 C111.84923,82.7171574 111.847545,82.720525 111.847545,82.7238926 L111.803729,82.7643044 C111.77845,82.7878779 111.754857,82.8080838 111.776765,82.7828265 L111.776765,82.7828265 Z M120.019312,67.0306574 C120.017627,67.0306574 120.019312,67.0289735 120.019312,67.0272897 L120.024368,67.0458118 C120.020998,67.0407603 120.019312,67.0357088 120.019312,67.0306574 L120.019312,67.0306574 Z M121.90342,48.5675324 C121.90679,48.5742676 121.908475,48.5776353 121.911846,48.5843706 L121.90679,48.6736132 L121.898364,48.6399368 C121.894993,48.6146794 121.901734,48.5911059 121.90342,48.5675324 L121.90342,48.5675324 Z M121.90679,48.5018632 L121.90679,48.5018632 C121.910161,48.4934441 121.910161,48.4934441 121.911846,48.4883926 C121.910161,48.4917603 121.908475,48.4968118 121.90679,48.5018632 L121.90679,48.5018632 Z M121.915216,22.9026941 C121.930383,22.9296353 121.884882,22.8673338 121.8714,22.8488118 C121.868029,22.8403926 121.866344,22.8319735 121.862974,22.8218706 C121.869715,22.8319735 121.878141,22.8403926 121.884882,22.8504956 L121.915216,22.9026941 Z M121.888252,22.9161647 L121.888252,22.9127971 C121.888252,22.9111132 121.888252,22.9127971 121.888252,22.9127971 C121.894993,22.9111132 121.894993,22.9178485 121.888252,22.9161647 L121.888252,22.9161647 Z M127.405754,58.3572824 C127.405754,58.3589662 127.404069,58.3589662 127.404069,58.36065 L127.405754,58.3236059 L127.407439,58.3303412 C127.407439,58.3387603 127.407439,58.3488632 127.405754,58.3572824 L127.405754,58.3572824 Z M127.567538,39.7931279 L127.567538,39.7914441 C127.567538,39.7863926 127.569223,39.7796574 127.570908,39.7762897 L127.574279,39.8335397 L127.567538,39.7931279 Z" id="Fill-11"></path>
                            </g>
                            <path d="M120.012234,297.65521 L120.012234,297.65521 L120.007179,297.660262 C120.000438,297.672049 119.993697,297.683835 119.988641,297.697306 C119.995382,297.682151 120.002123,297.668681 120.012234,297.65521 L120.012234,297.65521 Z" id="Fill-14"></path>
                            <path d="M96.1717061,322.181279 L96.1885585,322.177911 C96.1835028,322.176227 96.1784471,322.174543 96.1733913,322.174543 C96.1599093,322.17286 96.1464273,322.177911 96.1329454,322.181279 C96.1396864,322.179595 96.1481126,322.181279 96.1548536,322.181279 L96.1717061,322.181279" id="Fill-16"></path>
                            <path d="M100.324831,39.5496471 C91.4418893,36.0254044 77.4357938,37.4600221 69.7375813,42.679875 C65.1638184,45.7814779 64.2049123,49.263625 64.2049123,51.6378162 C64.2049123,53.6920809 65.4401991,54.9785221 66.4344953,56.0123897 C68.0557038,57.6995809 70.7706383,60.5216691 70.7706383,70.4377059 C70.7706383,72.2276103 72.223322,73.6790662 74.0147405,73.6790662 C75.806159,73.6790662 77.2588427,72.2276103 77.2588427,70.4377059 C77.2588427,62.2442206 87.7023241,56.7734779 95.328071,52.7794485 C101.216327,49.6946838 104.76883,47.8340588 104.581767,44.2576176 C104.473911,42.2117721 103.043136,40.6272941 100.324831,39.5496471" id="Fill-18"></path>
                            <g id="Group-22" transform="translate(32.019711, -0.000000)">
                                <path d="M73.002075,16.9663743 C67.6615244,8.01685221 53.6672256,-0.941088971 30.4242863,0.751153676 C17.6467366,1.68230809 3.12664047,6.69505074 0.688086726,17.9733007 C-0.614609917,23.9963375 2.34468543,29.9789625 8.4520239,33.9460507 C10.2973704,32.1376243 12.8387242,29.9351831 16.065974,27.7883081 C13.3746331,25.8687493 10.0698619,25.0234699 10.0344717,25.0150507 C8.8143522,24.7186978 8.06778737,23.4911904 8.36439101,22.273786 C8.65930939,21.0546978 9.89291087,20.3104478 11.1062894,20.6051169 C11.3236864,20.6573154 16.4552663,21.9336537 20.1257362,25.2288963 C20.1527002,25.2524699 20.1712379,25.2810949 20.1965167,25.3063522 C28.3143559,20.9486169 40.7717085,17.1482272 56.7883048,20.9789257 C58.0084243,21.2702272 58.7600448,22.4943669 58.4701822,23.7134551 C58.1769491,24.9325434 56.9517738,25.6835287 55.7316543,25.3922272 C43.0501637,22.3613449 31.2702808,23.9828669 20.722314,30.2163816 C16.3086497,32.8229404 13.0443245,35.7359551 11.001804,37.8222125 C12.0062118,41.0989331 14.2206275,44.1769625 22.0098434,44.1769625 C26.989751,44.1769625 31.0158083,42.2607713 35.2794856,40.2300801 C41.6294997,37.2059331 48.8288788,33.7776684 62.1170587,35.1600875 C69.4108117,35.9178081 72.6650254,32.6410875 73.9559253,30.6204993 C76.284938,26.9767051 75.9293507,21.873036 73.002075,16.9663743" id="Fill-20"></path>
                            </g>
                        </g>
                        <path d="M136.362846,25.3111511 L155.581053,25.2269599" id="Stroke-24" stroke="#B355A0" stroke-width="0.75"></path>
                        <path d="M155.581053,28.594607 C157.443252,28.594607 158.951549,27.0859011 158.951549,25.2269599 C158.951549,23.3663349 157.443252,21.8593129 155.581053,21.8593129 C153.718854,21.8593129 152.210557,23.3663349 152.210557,25.2269599 C152.210557,27.0859011 153.718854,28.594607 155.581053,28.594607" id="Fill-25" fill="#B355A0"></path>
                        <path d="M136.362846,126.872988 L155.581053,126.788797" id="Stroke-27" stroke="#B355A0" stroke-width="0.75"></path>
                        <path d="M155.581053,130.156275 C157.443252,130.156275 158.951549,128.647569 158.951549,126.788628 C158.951549,124.928003 157.443252,123.420981 155.581053,123.420981 C153.718854,123.420981 152.210557,124.928003 152.210557,126.788628 C152.210557,128.647569 153.718854,130.156275 155.581053,130.156275" id="Fill-28" fill="#B355A0"></path>
                        <path d="M136.362846,229.688094 L155.581053,229.603903" id="Stroke-30" stroke="#B355A0" stroke-width="0.75"></path>
                        <path d="M155.581053,232.97155 C157.443252,232.97155 158.951549,231.462844 158.951549,229.603903 C158.951549,227.743278 157.443252,226.236256 155.581053,226.236256 C153.718854,226.236256 152.210557,227.743278 152.210557,229.603903 C152.210557,231.462844 153.718854,232.97155 155.581053,232.97155" id="Fill-31" fill="#B355A0"></path>
                        <path d="M136.362846,301.452148 L155.581053,301.367957" id="Stroke-33" stroke="#B355A0" stroke-width="0.75"></path>
                        <path d="M155.581053,304.735436 C157.443252,304.735436 158.951549,303.22673 158.951549,301.367789 C158.951549,299.507164 157.443252,298.000142 155.581053,298.000142 C153.718854,298.000142 152.210557,299.507164 152.210557,301.367789 C152.210557,303.22673 153.718854,304.735436 155.581053,304.735436" id="Fill-34" fill="#B355A0"></path>
                    </g>
                </g>
            </g>
        </g>
    </g>
</svg>