<?xml version="1.0" encoding="UTF-8" standalone="no"?>
<svg width="681px" height="123px" viewBox="0 0 681 123" version="1.1" xmlns="http://www.w3.org/2000/svg" xmlns:xlink="http://www.w3.org/1999/xlink">
    <!-- Generator: Sketch 41.1 (35376) - http://www.bohemiancoding.com/sketch -->
    <title>Group</title>
    <desc>Created with Sketch.</desc>
    <defs>
        <polygon id="path-1" points="105.383748 107.546667 0 107.546667 0 0.757913333 105.383748 0.757913333"></polygon>
    </defs>
    <g id="Products" stroke="none" stroke-width="1" fill="none" fill-rule="evenodd">
        <g id="Desktop-HD" transform="translate(-145.000000, -1112.000000)">
            <g id="Product-Line" transform="translate(0.000000, 713.000000)">
                <g id="Group" transform="translate(145.000000, 394.000000)">
                    <g id="Ganeden/Yogurts">
                        <text id="Our-probiotic-cultur" font-family="Circular-Black, Circular" font-size="20" font-weight="700" fill="#FFFFFF">
                            <tspan x="398" y="20">Our probiotic culture survives</tspan>
                        </text>
                        <text id="than-yogurt-cultures" font-family="Circular-Black, Circular" font-size="20" font-weight="700" fill="#FFFFFF">
                            <tspan x="398" y="122">than yogurt cultures.</tspan>
                        </text>
                        <text id="more-effectively" font-family="IntroRust-Base, Intro Rust" font-size="26.4" font-weight="normal" line-spacing="25.2" fill="#B7DEBF">
                            <tspan x="507" y="69">more</tspan>
                            <tspan x="507" y="94.2">effectively</tspan>
                        </text>
                        <text id="10x" font-family="IntroRust-Base, Intro Rust" font-size="61.2" font-weight="normal" line-spacing="32.4" letter-spacing="-2.51999989" fill="#B7DEBF">
                            <tspan x="396" y="125.958363">10</tspan>
                            <tspan x="469.3572" y="124" font-family="Circular-Black, Circular" font-weight="700">x</tspan>
                        </text>
                        <path d="M357.5,28.5 L357.5,95.5" id="Line" stroke="#FFFFFF" stroke-linecap="square"></path>
                        <g id="Yogurts" transform="translate(178.000000, 7.000000)" fill="#F9B1A6">
                            <path d="M25.1503149,96.6628919 C28.5129957,98.3871419 28.6769,98.5520044 28.6769,100.193823 L28.6769,116.618817 C28.6769,119.985642 27.3558468,120.888604 25.392017,120.888604 L16.6733681,120.888604 L7.95396383,120.888604 C5.99013404,120.888604 4.66908085,119.985642 4.66908085,116.618817 L4.66908085,100.193823 C4.66908085,98.5520044 4.83298511,98.3871419 8.19566596,96.6628919 L25.1503149,96.6628919 Z" id="Fill-2"></path>
                            <path d="M24.0366723,95.0351394 L9.30945957,95.0351394 C8.73768298,95.0351394 8.17723617,95.0495081 7.64926809,95.0752206 C7.11827872,95.1009331 6.61825745,95.1387456 6.17412979,95.1856331 C5.72471489,95.2332769 5.3304383,95.2899956 5.01924681,95.3550331 C4.70276809,95.4208269 4.47088511,95.4934269 4.35456596,95.5720769 L0.336268085,98.2696206 C0.127044681,98.4102831 0.0923,98.5479206 0.213151064,98.6764831 C0.337023404,98.8073144 0.624044681,98.9283144 1.05231064,99.0326769 C1.48812979,99.1377956 2.06745957,99.2247644 2.76235319,99.2860206 C3.4648,99.3472769 4.27903404,99.3820644 5.17106596,99.3820644 L28.1743106,99.3820644 C29.0670979,99.3820644 29.8813319,99.3472769 30.5837787,99.2860206 C31.2786723,99.2247644 31.8580021,99.1377956 32.2938213,99.0326769 C32.7220872,98.9283144 33.0083532,98.8073144 33.1329809,98.6764831 C33.2538319,98.5479206 33.2190872,98.4102831 33.0091085,98.2696206 L28.991566,95.5720769 C28.8752468,95.4934269 28.6433638,95.4208269 28.3268851,95.3550331 C28.0156936,95.2899956 27.621417,95.2332769 27.1720021,95.1856331 C26.7278745,95.1387456 26.2278532,95.1009331 25.6968638,95.0752206 C25.1688957,95.0495081 24.6084489,95.0351394 24.0366723,95.0351394" id="Fill-4"></path>
                            <path d="M61.7851819,96.6628919 C65.1478628,98.3871419 65.311767,98.5520044 65.311767,100.193823 L65.311767,116.618817 C65.311767,119.985642 63.9907138,120.888604 62.026884,120.888604 L53.3082351,120.888604 L44.5888309,120.888604 C42.6250011,120.888604 41.3039479,119.985642 41.3039479,116.618817 L41.3039479,100.193823 C41.3039479,98.5520044 41.4678521,98.3871419 44.830533,96.6628919 L61.7851819,96.6628919 Z" id="Fill-6"></path>
                            <path d="M60.6715394,95.0351394 L45.9443266,95.0351394 C45.37255,95.0351394 44.8121032,95.0495081 44.2841351,95.0752206 C43.7531457,95.1009331 43.2531245,95.1387456 42.8089968,95.1856331 C42.3595819,95.2332769 41.9653053,95.2899956 41.6541138,95.3550331 C41.3376351,95.4208269 41.1057521,95.4934269 40.989433,95.5720769 L36.9711351,98.2696206 C36.7619117,98.4102831 36.727167,98.5479206 36.8480181,98.6764831 C36.9718904,98.8073144 37.2589117,98.9283144 37.6871777,99.0326769 C38.1229968,99.1377956 38.7023266,99.2247644 39.3972202,99.2860206 C40.099667,99.3472769 40.9139011,99.3820644 41.805933,99.3820644 L64.8091777,99.3820644 C65.7019649,99.3820644 66.5161989,99.3472769 67.2186457,99.2860206 C67.9135394,99.2247644 68.4928691,99.1377956 68.9286883,99.0326769 C69.3569543,98.9283144 69.6432202,98.8073144 69.7678479,98.6764831 C69.8886989,98.5479206 69.8539543,98.4102831 69.6439755,98.2696206 L65.626433,95.5720769 C65.5101138,95.4934269 65.2782309,95.4208269 64.9617521,95.3550331 C64.6505606,95.2899956 64.256284,95.2332769 63.8068691,95.1856331 C63.3627415,95.1387456 62.8627202,95.1009331 62.3317309,95.0752206 C61.8037628,95.0495081 61.243316,95.0351394 60.6715394,95.0351394" id="Fill-8"></path>
                            <path d="M43.7899298,64.8410262 C47.1526106,66.5652762 47.3165149,66.7301387 47.3165149,68.3719575 L47.3165149,84.7969512 C47.3165149,88.1637762 45.9954617,89.0667387 44.0316319,89.0667387 L35.312983,89.0667387 L26.5935787,89.0667387 C24.6297489,89.0667387 23.3086957,88.1637762 23.3086957,84.7969512 L23.3086957,68.3719575 C23.3086957,66.7301387 23.4726,66.5652762 26.8352809,64.8410262 L43.7899298,64.8410262 Z" id="Fill-10"></path>
                            <path d="M42.6763628,63.2132738 L27.94915,63.2132738 C27.3773734,63.2132738 26.8169266,63.2276425 26.2889585,63.253355 C25.7579691,63.2790675 25.2579479,63.31688 24.8138202,63.3637675 C24.3644053,63.4114113 23.9701287,63.46813 23.6589372,63.5331675 C23.3424585,63.5989613 23.1105755,63.6715613 22.9942564,63.7502113 L18.9759585,66.447755 C18.7667351,66.5884175 18.7319904,66.726055 18.8528415,66.8546175 C18.9767138,66.9854488 19.2637351,67.1064488 19.6920011,67.2108113 C20.1278202,67.31593 20.70715,67.4028988 21.4020436,67.464155 C22.1044904,67.5254113 22.9187245,67.5601988 23.8107564,67.5601988 L46.8140011,67.5601988 C47.7067883,67.5601988 48.5210223,67.5254113 49.2234691,67.464155 C49.9183628,67.4028988 50.4976926,67.31593 50.9335117,67.2108113 C51.3617777,67.1064488 51.6480436,66.9854488 51.7726713,66.8546175 C51.8935223,66.726055 51.8587777,66.5884175 51.6487989,66.447755 L47.6312564,63.7502113 C47.5149372,63.6715613 47.2830543,63.5989613 46.9665755,63.5331675 C46.655384,63.46813 46.2611074,63.4114113 45.8116926,63.3637675 C45.3675649,63.31688 44.8675436,63.2790675 44.3365543,63.253355 C43.8085862,63.2276425 43.2481394,63.2132738 42.6763628,63.2132738" id="Fill-12"></path>
                            <path d="M61.4629628,33.0191606 C64.8256436,34.7434106 64.9895479,34.9082731 64.9895479,36.5500919 L64.9895479,52.9750856 C64.9895479,56.3419106 63.6684947,57.2448731 61.7046649,57.2448731 L52.986016,57.2448731 L44.2666117,57.2448731 C42.3027819,57.2448731 40.9817287,56.3419106 40.9817287,52.9750856 L40.9817287,36.5500919 C40.9817287,34.9082731 41.145633,34.7434106 44.5083138,33.0191606 L61.4629628,33.0191606 Z" id="Fill-14"></path>
                            <path d="M60.3493957,31.3914081 L45.622183,31.3914081 C45.0504064,31.3914081 44.4899596,31.4057769 43.9619915,31.4314894 C43.4310021,31.4572019 42.9309809,31.4950144 42.4868532,31.5419019 C42.0374383,31.5895456 41.6431617,31.6462644 41.3319702,31.7113019 C41.0154915,31.7770956 40.7836085,31.8496956 40.6672894,31.9283456 L36.6489915,34.6258894 C36.4397681,34.7665519 36.4050234,34.9041894 36.5258745,35.0327519 C36.6497468,35.1635831 36.9367681,35.2845831 37.365034,35.3889456 C37.8008532,35.4940644 38.380183,35.5810331 39.0750766,35.6422894 C39.7775234,35.7035456 40.5917574,35.7383331 41.4837894,35.7383331 L64.487034,35.7383331 C65.3798213,35.7383331 66.1940553,35.7035456 66.8965021,35.6422894 C67.5913957,35.5810331 68.1707255,35.4940644 68.6065447,35.3889456 C69.0348106,35.2845831 69.3210766,35.1635831 69.4457043,35.0327519 C69.5665553,34.9041894 69.5318106,34.7665519 69.3218319,34.6258894 L65.3042894,31.9283456 C65.1879702,31.8496956 64.9560872,31.7770956 64.6396085,31.7113019 C64.328417,31.6462644 63.9341404,31.5895456 63.4847255,31.5419019 C63.0405979,31.4950144 62.5405766,31.4572019 62.0095872,31.4314894 C61.4816191,31.4057769 60.9211723,31.3914081 60.3493957,31.3914081" id="Fill-16"></path>
                            <path d="M80.4247968,1.6277525 C83.7874777,3.3520025 83.9513819,3.516865 83.9513819,5.15868375 L83.9513819,21.5836775 C83.9513819,24.9505025 82.6303287,25.853465 80.6664989,25.853465 L71.94785,25.853465 L63.2284457,25.853465 C61.264616,25.853465 59.9435628,24.9505025 59.9435628,21.5836775 L59.9435628,5.15868375 C59.9435628,3.516865 60.107467,3.3520025 63.4701479,1.6277525 L80.4247968,1.6277525 Z" id="Fill-18"></path>
                            <path d="M79.3112298,-7.56250001e-05 L64.584017,-7.56250001e-05 C64.0122404,-7.56250001e-05 63.4517936,0.014293125 62.9238255,0.040005625 C62.3928362,0.065718125 61.8928149,0.103530625 61.4486872,0.150418125 C60.9992723,0.198061875 60.6049957,0.254780625 60.2938043,0.319818125 C59.9773255,0.385611875 59.7454426,0.458211875 59.6291234,0.536861875 L55.6108255,3.23440562 C55.4016021,3.37506812 55.3668574,3.51270562 55.4877085,3.64126812 C55.6115809,3.77209937 55.8986021,3.89309937 56.3268681,3.99746187 C56.7626872,4.10258062 57.342017,4.18954937 58.0369106,4.25080562 C58.7393574,4.31206187 59.5535915,4.34684937 60.4456234,4.34684937 L83.4488681,4.34684937 C84.3416553,4.34684937 85.1558894,4.31206187 85.8583362,4.25080562 C86.5532298,4.18954937 87.1325596,4.10258062 87.5683787,3.99746187 C87.9966447,3.89309937 88.2829106,3.77209937 88.4075383,3.64126812 C88.5283894,3.51270562 88.4936447,3.37506812 88.283666,3.23440562 L84.2661234,0.536861875 C84.1498043,0.458211875 83.9179213,0.385611875 83.6014426,0.319818125 C83.2902511,0.254780625 82.8959745,0.198061875 82.4465596,0.150418125 C82.0024319,0.103530625 81.5024106,0.065718125 80.9714213,0.040005625 C80.4434532,0.014293125 79.8830064,-7.56250001e-05 79.3112298,-7.56250001e-05" id="Fill-20"></path>
                            <path d="M98.4200489,96.6628919 C101.78273,98.3871419 101.946634,98.5520044 101.946634,100.193823 L101.946634,116.618817 C101.946634,119.985642 100.625581,120.888604 98.6617511,120.888604 L89.9431021,120.888604 L81.2236979,120.888604 C79.2598681,120.888604 77.9388149,119.985642 77.9388149,116.618817 L77.9388149,100.193823 C77.9388149,98.5520044 78.1027191,98.3871419 81.4654,96.6628919 L98.4200489,96.6628919 Z" id="Fill-23"></path>
                            <path d="M97.3064064,95.0351394 L82.5791936,95.0351394 C82.007417,95.0351394 81.4469702,95.0495081 80.9190021,95.0752206 C80.3880128,95.1009331 79.8879915,95.1387456 79.4438638,95.1856331 C78.9944489,95.2332769 78.6001723,95.2899956 78.2889809,95.3550331 C77.9725021,95.4208269 77.7406191,95.4934269 77.6243,95.5720769 L73.6060021,98.2696206 C73.3967787,98.4102831 73.362034,98.5479206 73.4828851,98.6764831 C73.6067574,98.8073144 73.8937787,98.9283144 74.3220447,99.0326769 C74.7578638,99.1377956 75.3371936,99.2247644 76.0320872,99.2860206 C76.734534,99.3472769 77.5487681,99.3820644 78.4408,99.3820644 L101.444045,99.3820644 C102.336832,99.3820644 103.151066,99.3472769 103.853513,99.2860206 C104.548406,99.2247644 105.127736,99.1377956 105.563555,99.0326769 C105.991821,98.9283144 106.278087,98.8073144 106.402715,98.6764831 C106.523566,98.5479206 106.488821,98.4102831 106.278843,98.2696206 L102.2613,95.5720769 C102.144981,95.4934269 101.913098,95.4208269 101.596619,95.3550331 C101.285428,95.2899956 100.891151,95.2332769 100.441736,95.1856331 C99.9976085,95.1387456 99.4975872,95.1009331 98.9665979,95.0752206 C98.4386298,95.0495081 97.878183,95.0351394 97.3064064,95.0351394" id="Fill-25"></path>
                            <path d="M80.4247968,64.8410262 C83.7874777,66.5652762 83.9513819,66.7301387 83.9513819,68.3719575 L83.9513819,84.7969512 C83.9513819,88.1637762 82.6303287,89.0667387 80.6664989,89.0667387 L71.94785,89.0667387 L63.2284457,89.0667387 C61.264616,89.0667387 59.9435628,88.1637762 59.9435628,84.7969512 L59.9435628,68.3719575 C59.9435628,66.7301387 60.107467,66.5652762 63.4701479,64.8410262 L80.4247968,64.8410262 Z" id="Fill-27"></path>
                            <path d="M79.3112298,63.2132738 L64.584017,63.2132738 C64.0122404,63.2132738 63.4517936,63.2276425 62.9238255,63.253355 C62.3928362,63.2790675 61.8928149,63.31688 61.4486872,63.3637675 C60.9992723,63.4114113 60.6049957,63.46813 60.2938043,63.5331675 C59.9773255,63.5989613 59.7454426,63.6715613 59.6291234,63.7502113 L55.6108255,66.447755 C55.4016021,66.5884175 55.3668574,66.726055 55.4877085,66.8546175 C55.6115809,66.9854488 55.8986021,67.1064488 56.3268681,67.2108113 C56.7626872,67.31593 57.342017,67.4028988 58.0369106,67.464155 C58.7393574,67.5254113 59.5535915,67.5601988 60.4456234,67.5601988 L83.4488681,67.5601988 C84.3416553,67.5601988 85.1558894,67.5254113 85.8583362,67.464155 C86.5532298,67.4028988 87.1325596,67.31593 87.5683787,67.2108113 C87.9966447,67.1064488 88.2829106,66.9854488 88.4075383,66.8546175 C88.5283894,66.726055 88.4936447,66.5884175 88.283666,66.447755 L84.2661234,63.7502113 C84.1498043,63.6715613 83.9179213,63.5989613 83.6014426,63.5331675 C83.2902511,63.46813 82.8959745,63.4114113 82.4465596,63.3637675 C82.0024319,63.31688 81.5024106,63.2790675 80.9714213,63.253355 C80.4434532,63.2276425 79.8830064,63.2132738 79.3112298,63.2132738" id="Fill-29"></path>
                            <path d="M98.0979053,33.0191606 C101.460586,34.7434106 101.62449,34.9082731 101.62449,36.5500919 L101.62449,52.9750856 C101.62449,56.3419106 100.303437,57.2448731 98.3396074,57.2448731 L89.6209585,57.2448731 L80.9015543,57.2448731 C78.9377245,57.2448731 77.6166713,56.3419106 77.6166713,52.9750856 L77.6166713,36.5500919 C77.6166713,34.9082731 77.7805755,34.7434106 81.1432564,33.0191606 L98.0979053,33.0191606 Z" id="Fill-31"></path>
                            <path d="M96.9842628,31.3914081 L82.25705,31.3914081 C81.6852734,31.3914081 81.1248266,31.4057769 80.5968585,31.4314894 C80.0658691,31.4572019 79.5658479,31.4950144 79.1217202,31.5419019 C78.6723053,31.5895456 78.2780287,31.6462644 77.9668372,31.7113019 C77.6503585,31.7770956 77.4184755,31.8496956 77.3021564,31.9283456 L73.2838585,34.6258894 C73.0746351,34.7665519 73.0398904,34.9041894 73.1607415,35.0327519 C73.2846138,35.1635831 73.5716351,35.2845831 73.9999011,35.3889456 C74.4357202,35.4940644 75.01505,35.5810331 75.7099436,35.6422894 C76.4123904,35.7035456 77.2266245,35.7383331 78.1186564,35.7383331 L101.121901,35.7383331 C102.014688,35.7383331 102.828922,35.7035456 103.531369,35.6422894 C104.226263,35.5810331 104.805593,35.4940644 105.241412,35.3889456 C105.669678,35.2845831 105.955944,35.1635831 106.080571,35.0327519 C106.201422,34.9041894 106.166678,34.7665519 105.956699,34.6258894 L101.939156,31.9283456 C101.822837,31.8496956 101.590954,31.7770956 101.274476,31.7113019 C100.963284,31.6462644 100.569007,31.5895456 100.119593,31.5419019 C99.6754649,31.4950144 99.1754436,31.4572019 98.6444543,31.4314894 C98.1164862,31.4057769 97.5560394,31.3914081 96.9842628,31.3914081" id="Fill-33"></path>
                            <path d="M133.814455,96.6628919 C137.177136,98.3871419 137.34104,98.5520044 137.34104,100.193823 L137.34104,116.618817 C137.34104,119.985642 136.019987,120.888604 134.056157,120.888604 L125.337509,120.888604 L116.618104,120.888604 C114.654274,120.888604 113.333221,119.985642 113.333221,116.618817 L113.333221,100.193823 C113.333221,98.5520044 113.497126,98.3871419 116.859806,96.6628919 L133.814455,96.6628919 Z" id="Fill-35"></path>
                            <path d="M132.700813,95.0351394 L117.9736,95.0351394 C117.401823,95.0351394 116.841377,95.0495081 116.313409,95.0752206 C115.782419,95.1009331 115.282398,95.1387456 114.83827,95.1856331 C114.388855,95.2332769 113.994579,95.2899956 113.683387,95.3550331 C113.366909,95.4208269 113.135026,95.4934269 113.018706,95.5720769 L109.000409,98.2696206 C108.791185,98.4102831 108.75644,98.5479206 108.877291,98.6764831 C109.001164,98.8073144 109.288185,98.9283144 109.716451,99.0326769 C110.15227,99.1377956 110.7316,99.2247644 111.426494,99.2860206 C112.12894,99.3472769 112.943174,99.3820644 113.835206,99.3820644 L136.838451,99.3820644 C137.731238,99.3820644 138.545472,99.3472769 139.247919,99.2860206 C139.942813,99.2247644 140.522143,99.1377956 140.957962,99.0326769 C141.386228,98.9283144 141.672494,98.8073144 141.797121,98.6764831 C141.917972,98.5479206 141.883228,98.4102831 141.673249,98.2696206 L137.655706,95.5720769 C137.539387,95.4934269 137.307504,95.4208269 136.991026,95.3550331 C136.679834,95.2899956 136.285557,95.2332769 135.836143,95.1856331 C135.392015,95.1387456 134.891994,95.1009331 134.361004,95.0752206 C133.833036,95.0495081 133.272589,95.0351394 132.700813,95.0351394" id="Fill-37"></path>
                            <path d="M116.415301,64.8410262 C119.777982,66.5652762 119.941886,66.7301387 119.941886,68.3719575 L119.941886,84.7969512 C119.941886,88.1637762 118.620833,89.0667387 116.657003,89.0667387 L107.938354,89.0667387 L99.21895,89.0667387 C97.2551202,89.0667387 95.934067,88.1637762 95.934067,84.7969512 L95.934067,68.3719575 C95.934067,66.7301387 96.0979713,66.5652762 99.4606521,64.8410262 L116.415301,64.8410262 Z" id="Fill-40"></path>
                            <path d="M115.301659,63.2132738 L100.574446,63.2132738 C100.002669,63.2132738 99.4422223,63.2276425 98.9142543,63.253355 C98.3832649,63.2790675 97.8832436,63.31688 97.439116,63.3637675 C96.9897011,63.4114113 96.5954245,63.46813 96.284233,63.5331675 C95.9677543,63.5989613 95.7358713,63.6715613 95.6195521,63.7502113 L91.6012543,66.447755 C91.3920309,66.5884175 91.3572862,66.726055 91.4781372,66.8546175 C91.6020096,66.9854488 91.8890309,67.1064488 92.3172968,67.2108113 C92.753116,67.31593 93.3324457,67.4028988 94.0273394,67.464155 C94.7297862,67.5254113 95.5440202,67.5601988 96.4360521,67.5601988 L119.439297,67.5601988 C120.332084,67.5601988 121.146318,67.5254113 121.848765,67.464155 C122.543659,67.4028988 123.122988,67.31593 123.558807,67.2108113 C123.987073,67.1064488 124.273339,66.9854488 124.397967,66.8546175 C124.518818,66.726055 124.484073,66.5884175 124.274095,66.447755 L120.256552,63.7502113 C120.140233,63.6715613 119.90835,63.5989613 119.591871,63.5331675 C119.28068,63.46813 118.886403,63.4114113 118.436988,63.3637675 C117.992861,63.31688 117.492839,63.2790675 116.96185,63.253355 C116.433882,63.2276425 115.873435,63.2132738 115.301659,63.2132738" id="Fill-42"></path>
                        </g>
                        <polygon id="Fill-1" fill="#B7DEBF" points="137 49.1077 153.985 64.1447 137 79.2607 140.662 83.3117 162.088 64.3007 140.662 45.3677"></polygon>
                        <g id="Ganeden-Logo" transform="translate(0.000000, 11.000000)">
                            <g id="Group-24" transform="translate(0.000000, 0.695711)">
                                <path d="M72.7835205,13.3645627 C72.902589,13.352936 72.9926164,13.2759093 73.0579589,13.1378427 C73.1233014,12.9968693 73.1233014,12.877696 73.059411,12.777416 C72.9940685,12.677136 72.848863,12.572496 72.6252466,12.4649493 L71.5666986,11.9562827 L71.2109452,12.7149227 L72.2694932,13.2235893 C72.4945616,13.331136 72.6659041,13.3776427 72.7835205,13.3645627" id="Fill-1" fill="#FEFEFE"></path>
                                <path d="M73.0501178,11.8664667 C73.1415973,11.9028 73.2156521,11.9216933 73.2751863,11.9246 C73.3361726,11.9275067 73.3840904,11.9144267 73.4247479,11.88536 C73.4610493,11.8606533 73.4958986,11.8126933 73.5263918,11.7487467 C73.5554329,11.6877067 73.5670493,11.6310267 73.5655973,11.5830667 C73.5655973,11.5830667 73.5409123,11.4886 73.5002548,11.4435467 C73.4595973,11.3984933 73.398611,11.35344 73.3143918,11.3040267 C73.2301726,11.2560667 73.1212685,11.20084 72.9891315,11.1368933 L72.1411315,10.7285067 L71.8695973,11.30984 L72.7161452,11.7167733 C72.8497342,11.78072 72.9600904,11.8301333 73.0501178,11.8664667" id="Fill-3" fill="#FEFEFE"></path>
                                <path d="M64.4292685,9.84764133 C64.6311041,9.70376133 64.7661452,9.48576133 64.8372959,9.19800133 C64.9069945,8.90733467 64.8881178,8.651548 64.7748575,8.429188 C64.6659534,8.206828 64.4321726,8.05132133 64.0793233,7.962668 L63.2284192,7.75048133 L62.747789,9.71829467 L63.5986932,9.93048133 C63.9515425,10.0191347 64.2274329,9.99152133 64.4292685,9.84764133" id="Fill-5" fill="#FEFEFE"></path>
                                <path d="M33.364589,12.1667253 C33.470589,12.2597387 33.5896575,12.3236853 33.7188904,12.3629253 C33.8481233,12.400712 33.9831644,12.4108853 34.1269178,12.400712 C34.2706712,12.3890853 34.4115205,12.352752 34.5509178,12.291712 C34.6917671,12.230672 34.8151918,12.1507387 34.9211918,12.0533653 C35.0286438,11.9574453 35.111411,11.8484453 35.1723973,11.729272 C35.2348356,11.607192 35.2696849,11.476392 35.2769452,11.332512 C35.2827534,11.1915387 35.2551644,11.044752 35.191274,10.8950587 C35.1273836,10.7453653 35.0417123,10.6232853 34.9342603,10.530272 C34.8268082,10.438712 34.7091918,10.373312 34.581411,10.3355253 C34.450726,10.2977387 34.3142329,10.286112 34.1719315,10.2977387 C34.0296301,10.3093653 33.8873288,10.3456987 33.7493836,10.4067387 C33.6070822,10.4677787 33.4851096,10.5462587 33.3776575,10.643632 C33.2716575,10.7410053 33.1874384,10.848552 33.1264521,10.9691787 C33.0625616,11.0912587 33.0291644,11.2220587 33.0233562,11.3644853 C33.0160959,11.506912 33.0436849,11.6536987 33.1075753,11.803392 C33.1714658,11.9530853 33.257137,12.0751653 33.364589,12.1667253" id="Fill-7" fill="#FEFEFE"></path>
                                <path d="M52.587326,7.23542 C52.7906137,7.23396667 52.9285589,7.19182 53.0026137,7.11334 C53.0781205,7.03631333 53.115874,6.94475333 53.1129699,6.84302 C53.1115178,6.74128667 53.0708603,6.65118 52.9953534,6.57560667 C52.9183945,6.50003333 52.7775452,6.46515333 52.5742575,6.46660667 L51.4111616,6.48695333 L51.4227781,7.25576667 L52.587326,7.23542 Z" id="Fill-9" fill="#FEFEFE"></path>
                                <g id="Group-13">
                                    <mask id="mask-2" fill="white">
                                        <use xlink:href="#path-1"></use>
                                    </mask>
                                    <g id="Clip-12"></g>
                                    <path d="M52.6930356,0.757913333 C23.5895014,0.757913333 -0.000580821918,24.6637933 -0.000580821918,54.15338 C-0.000580821918,83.64006 23.5895014,107.547393 52.6930356,107.547393 C81.7936658,107.547393 105.383748,83.64006 105.383748,54.15338 C105.383748,24.6637933 81.7936658,0.757913333 52.6930356,0.757913333 L52.6930356,0.757913333 Z M75.4844877,15.7359667 C75.5628986,15.7752067 75.6180767,15.78974 75.6442137,15.7824733 C75.6747068,15.77666 75.6964877,15.7606733 75.7139123,15.73306 L76.3571726,14.68666 L76.2395562,12.35406 C76.2308438,12.2218067 76.2250356,12.1389667 76.2206795,12.10554 C76.2134192,12.0721133 76.1959945,12.0459533 76.1698575,12.02706 L76.2134192,11.9573 L77.5013918,12.7711667 L77.4592822,12.84238 C77.4244329,12.82058 77.3881315,12.8045933 77.3503781,12.7915133 C77.3169808,12.7798867 77.2879397,12.79006 77.267611,12.82058 C77.2588986,12.83802 77.2559945,12.9005133 77.2574466,13.01242 C77.2588986,13.1243267 77.2632548,13.25222 77.267611,13.3990067 C77.2734192,13.5457933 77.2792274,13.6940333 77.2879397,13.84954 C77.2966521,14.00214 77.3010082,14.1314867 77.3024603,14.23758 C77.3271452,14.2245 77.375063,14.2027 77.4462137,14.1750867 C77.5173644,14.14602 77.6015836,14.1125933 77.693063,14.0704467 C77.7859945,14.03266 77.8861863,13.98906 77.9907342,13.94546 C78.0952822,13.90186 78.1925699,13.86262 78.2782411,13.8219267 C78.3653644,13.78414 78.4379671,13.74926 78.5004055,13.71874 C78.5613918,13.6896733 78.594789,13.67078 78.5991452,13.6635133 C78.619474,13.6300867 78.6180219,13.6024733 78.5918849,13.57486 C78.5686521,13.5487 78.541063,13.5269 78.5163781,13.50946 L78.5584877,13.4397 L79.6722137,14.14166 L79.6272,14.2143267 C79.5967068,14.19398 79.5633096,14.18962 79.5284603,14.1968867 C79.495063,14.2041533 79.4587616,14.21578 79.4224603,14.2317667 L77.3068164,15.1299267 L76.5938575,16.2882333 C76.5764329,16.3158467 76.5706247,16.3449133 76.579337,16.3725267 C76.5851452,16.4030467 76.6228986,16.44374 76.6925973,16.4989667 L76.6490356,16.57018 L75.439474,15.8057267 L75.4844877,15.7359667 Z M69.821474,12.7740733 C69.9042411,12.80314 69.9608712,12.8133133 69.9870082,12.80314 C70.0145973,12.7915133 70.034926,12.77262 70.0494466,12.7450067 L71.4274466,9.7991 C71.4419671,9.76858 71.4434192,9.73951333 71.4332548,9.7119 C71.4245425,9.68428667 71.3809808,9.6465 71.306926,9.59999333 L71.3432274,9.52442 L73.718789,10.66674 C73.8901315,10.74958 74.036789,10.84114 74.1631178,10.94142 C74.2894466,11.0446067 74.3881863,11.1536067 74.459337,11.2742333 C74.5304877,11.3934067 74.5682411,11.5242067 74.5755014,11.6622733 C74.5813096,11.8032467 74.5479123,11.9500333 74.4753096,12.1069933 C74.3852822,12.2944733 74.2589534,12.4209133 74.0919671,12.4834067 C73.9249808,12.5459 73.7463781,12.5531667 73.5532548,12.50666 L73.5474466,12.51974 C73.7318575,12.68106 73.8625425,12.8540067 73.9409534,13.04294 C74.0193644,13.23042 74.0019397,13.4411533 73.8915836,13.6780467 C73.8335014,13.8044867 73.7521863,13.9120333 73.6519945,14.0035933 C73.5503507,14.0937 73.4298301,14.1561933 73.2875288,14.1925267 C73.1466795,14.2274067 72.9840493,14.2317667 72.8010904,14.2056067 C72.6166795,14.1779933 72.4148438,14.1125933 72.1926795,14.0065 L69.7851726,12.8496467 L69.821474,12.7740733 Z M61.3792274,10.1406333 C61.4663507,10.1508067 61.5244329,10.1508067 61.5476658,10.13482 C61.5738027,10.1202867 61.5883233,10.0970333 61.5970356,10.06506 L62.3709808,6.89824667 C62.3782411,6.86627333 62.3738849,6.83866 62.3593644,6.8125 C62.3448438,6.78634 62.295474,6.75872667 62.2112548,6.72820667 L62.2315836,6.64827333 L64.4561315,7.2049 C64.7654192,7.28192667 65.0209808,7.39383333 65.2271726,7.54207333 C65.4319123,7.69031333 65.5887342,7.86326 65.6976384,8.05946 C65.8050904,8.25856667 65.8689808,8.47656667 65.8893096,8.71055333 C65.9110904,8.94744667 65.8893096,9.19160667 65.8283233,9.44594 C65.7716932,9.67702 65.6787616,9.89066 65.5480767,10.0854067 C65.4173918,10.2801533 65.2518575,10.4429267 65.052926,10.5679133 C64.8539945,10.6929 64.6260219,10.77574 64.3675562,10.8178867 C64.1076384,10.85858 63.8230356,10.8382333 63.5093918,10.7597533 L61.3603507,10.22202 L61.3792274,10.1406333 Z M56.0066247,9.39216667 C56.0952,9.39216667 56.1503781,9.38344667 56.173611,9.36455333 C56.1982959,9.34711333 56.2099123,9.32095333 56.2128164,9.28898 L56.5874466,6.05095333 C56.5932548,6.01752667 56.5845425,5.98991333 56.5671178,5.96520667 C56.5482411,5.94195333 56.4959671,5.92015333 56.4102959,5.90126 L56.4204603,5.81842 L59.8429534,6.2239 C59.8792548,6.22826 59.9082959,6.21954 59.9286247,6.19628667 C59.9504055,6.17303333 59.9707342,6.12216667 59.9881589,6.04368667 L60.070926,6.05386 L59.9315288,7.26303333 L59.8487616,7.25431333 C59.8487616,7.17438 59.8400493,7.12060667 59.8269808,7.09154 C59.8095562,7.06392667 59.7848712,7.04939333 59.7485699,7.04358 L57.5458027,6.78343333 L57.4790082,7.36040667 L58.7553644,7.51155333 C58.825063,7.52027333 58.8744329,7.5101 58.9078301,7.48539333 C58.9412274,7.45778 58.9644603,7.42144667 58.9789808,7.37639333 L59.0617479,7.38656667 L58.9354192,8.47220667 L58.8541041,8.46203333 C58.8512,8.41552667 58.8337753,8.37483333 58.8090904,8.33995333 C58.7829534,8.30652667 58.7350356,8.28618 58.666789,8.27746 L57.3904329,8.12631333 L57.3163781,8.77159333 L59.5176932,9.03174 C59.5554466,9.03755333 59.5844877,9.02738 59.6048164,9.00558 C59.6265973,8.98087333 59.646926,8.92564667 59.6658027,8.8399 L59.7485699,8.84862 L59.6106247,10.0389 L59.5278575,10.0287267 C59.5264055,9.96623333 59.5162411,9.92699333 59.5002685,9.91100667 C59.4842959,9.89502 59.4567068,9.88484667 59.4204055,9.88048667 L55.9979123,9.47500667 L56.0066247,9.39216667 Z M52.6988438,5.68326 C53.2099671,5.67454 53.5831452,5.76174 53.815474,5.94776667 C54.0492548,6.13379333 54.1697753,6.42446 54.1755836,6.81976667 C54.1813918,7.14240667 54.0913644,7.39528667 53.9084055,7.57986 C53.7254466,7.76588667 53.4902137,7.89959333 53.207063,7.98388667 L54.0390904,9.13202 C54.0971726,9.21486 54.1639671,9.25555333 54.240926,9.2541 L54.2423781,9.33839333 L52.8062959,9.36164667 L52.8048438,9.27735333 C52.9050356,9.27154 52.9558575,9.22939333 52.9544055,9.14946 C52.9544055,9.14946 52.9355288,9.10731333 52.8963233,9.05208667 C52.8585699,8.99686 52.8121041,8.93000667 52.755474,8.85007333 C52.6973918,8.77304667 52.6364055,8.68875333 52.5681589,8.59864667 C52.4999123,8.50854 52.4345699,8.42279333 52.3706795,8.3385 C52.306789,8.25566 52.251611,8.18154 52.2051452,8.11759333 C52.1572274,8.05219333 52.1267342,8.01004667 52.1122137,7.98679333 L51.4341041,7.99551333 L51.4529808,9.17416667 C51.4529808,9.20614 51.4645973,9.23375333 51.484926,9.2541 C51.5081589,9.27444667 51.5618849,9.28898 51.6490082,9.2977 L51.6504603,9.38054 L50.2274466,9.40379333 L50.2274466,9.32095333 C50.3145699,9.30932667 50.3682959,9.29334 50.3900767,9.27299333 C50.4089534,9.25119333 50.4191178,9.22503333 50.4191178,9.22503333 L50.3668438,5.93032667 C50.3653918,5.89835333 50.3566795,5.87219333 50.3334466,5.85039333 C50.3131178,5.83004667 50.2579397,5.81551333 50.1708164,5.80824667 L50.1708164,5.72395333 L52.6988438,5.68326 Z M47.7618575,5.89108667 C47.7981589,5.88527333 47.8242959,5.86928667 47.8402685,5.84167333 C47.853337,5.81406 47.8605973,5.75883333 47.8605973,5.6789 L47.9404603,5.66872667 L48.1001863,6.8779 L48.0174192,6.88952667 C47.9985425,6.81104667 47.9782137,6.76018 47.9564329,6.73692667 C47.9346521,6.71512667 47.907063,6.70640667 47.8693096,6.71076667 L45.6723507,7.00724667 L45.7478575,7.58131333 L47.0213096,7.40982 C47.0895562,7.4011 47.1360219,7.3793 47.1621589,7.34442 C47.1868438,7.30954 47.2013644,7.26884667 47.2057205,7.22234 L47.2870356,7.21071333 L47.429337,8.29344667 L47.3465699,8.30216667 C47.3305973,8.25856667 47.3088164,8.22368667 47.2739671,8.19607333 C47.2405699,8.17136667 47.1882959,8.16264667 47.1215014,8.17136667 L45.8480493,8.34286 L45.9322685,8.98814 L48.1292274,8.69166 C48.1669808,8.68875333 48.1916658,8.67131333 48.2061863,8.6437 C48.2207068,8.61608667 48.2279671,8.55795333 48.225063,8.46784667 L48.3063781,8.45767333 L48.4632,9.6465 L48.3818849,9.65667333 C48.3659123,9.59708667 48.3455836,9.56220667 48.3252548,9.55058 C48.3063781,9.53895333 48.2758849,9.53459333 48.2410356,9.54186 L44.8243507,10.0011133 L44.8127342,9.91827333 C44.8969534,9.89792667 44.9492274,9.87322 44.9681041,9.84996667 C44.9840767,9.82671333 44.991337,9.80055333 44.9869808,9.76712667 L44.5629808,6.53346 C44.5600767,6.50148667 44.5441041,6.47678 44.5223233,6.45643333 C44.4976384,6.43899333 44.4424603,6.43172667 44.355337,6.43463333 L44.3437205,6.35034 L47.7618575,5.89108667 Z M37.915474,7.92866 L37.9387068,8.00859333 C37.9009534,8.02894 37.8704603,8.04783333 37.8457753,8.06672667 C37.8239945,8.08562 37.8152822,8.11178 37.8254466,8.14811333 C37.8298027,8.16264667 37.8544877,8.20624667 37.9009534,8.27891333 C37.9474192,8.35448667 38.0084055,8.44895333 38.0824603,8.56231333 C38.1565151,8.67858 38.2378301,8.80356667 38.3278575,8.94018 C38.4178849,9.07824667 38.5079123,9.21486 38.5964877,9.35147333 C38.6865151,9.48808667 38.7721863,9.61743333 38.8491452,9.74096667 C38.9290082,9.8645 38.9943507,9.96768667 39.0451726,10.0505267 L39.0582411,10.0461667 C39.0625973,9.95315333 39.0655014,9.83543333 39.0684055,9.6901 C39.0742137,9.54767333 39.0785699,9.39362 39.0843781,9.22939333 C39.0887342,9.06662 39.0945425,8.90239333 39.1003507,8.73671333 C39.1047068,8.56958 39.109063,8.41843333 39.1119671,8.28182 C39.1163233,8.14520667 39.1177753,8.0333 39.1177753,7.94464667 C39.1177753,7.85454 39.1148712,7.80367333 39.1148712,7.80367333 C39.1003507,7.75280667 39.0785699,7.73391333 39.0422685,7.73246 C39.0045151,7.72955333 38.9725699,7.72955333 38.9435288,7.7281 L38.9217479,7.64671333 L40.5059397,7.20344667 L40.5277205,7.28483333 C40.4986795,7.30227333 40.4754466,7.31971333 40.4565699,7.33860667 C40.4376932,7.35604667 40.433337,7.38075333 40.4420493,7.41854 C40.4435014,7.4229 40.4667342,7.46359333 40.5117479,7.54352667 C40.5582137,7.62346 40.6162959,7.72228667 40.6859945,7.84291333 C40.7571452,7.96354 40.8370082,8.09579333 40.9255836,8.24403333 C41.0127068,8.39082 41.096926,8.53615333 41.1782411,8.67422 C41.2595562,8.81228667 41.335063,8.94454 41.4062137,9.06371333 C41.4773644,9.18434 41.5310904,9.27735333 41.5688438,9.34566 L41.5833644,9.3413 C41.5804603,9.28462 41.5833644,9.19160667 41.5877205,9.05935333 C41.5920767,8.93000667 41.599337,8.78467333 41.6080493,8.6219 C41.6167616,8.46058 41.6240219,8.29344667 41.6327342,8.11904667 C41.6399945,7.9461 41.6487068,7.78478 41.6559671,7.63799333 C41.6632274,7.48975333 41.6690356,7.36476667 41.6719397,7.26303333 C41.6748438,7.15984667 41.6748438,7.10171333 41.6704877,7.08863333 C41.6588712,7.04939333 41.6370904,7.02468667 41.6051452,7.02032667 C41.5732,7.01451333 41.5368986,7.01306 41.5005973,7.01451333 L41.4773644,6.93167333 L42.5954466,6.62066 L42.6186795,6.70059333 C42.5852822,6.71512667 42.5620493,6.73547333 42.5518849,6.76308667 C42.5431726,6.78924667 42.5388164,6.82267333 42.5388164,6.86046 C42.5388164,6.86046 42.5373644,6.93603333 42.5315562,7.04067333 C42.5286521,7.14676667 42.5199397,7.27902 42.5112274,7.43888667 C42.501063,7.59875333 42.4923507,7.78042 42.4807342,7.98388667 C42.4691178,8.18735333 42.4560493,8.39518 42.4400767,8.60446 C42.4270082,8.81374 42.4139397,9.02011333 42.4052274,9.22067333 C42.395063,9.41978 42.3848986,9.6029 42.3776384,9.76276667 C42.367474,9.92263333 42.3616658,10.05198 42.3573096,10.1508067 C42.3529534,10.2510867 42.3529534,10.3063133 42.3544055,10.3150333 C42.3660219,10.3557267 42.3863507,10.3760733 42.4182959,10.3775267 C42.4502411,10.37898 42.4821863,10.3775267 42.5141315,10.3717133 L42.5373644,10.4545533 L41.1506521,10.84114 L41.1288712,10.7597533 C41.2145425,10.7205133 41.2508438,10.6769133 41.2363233,10.6289533 C41.2218027,10.5737267 41.1695288,10.4690867 41.0780493,10.3121267 C40.989474,10.15662 40.8820219,9.97495333 40.7556932,9.76858 C40.6308164,9.56075333 40.4957753,9.3413 40.353474,9.10731333 C40.2111726,8.87332667 40.0775836,8.65387333 39.957063,8.44604667 L39.9410904,8.44895333 C39.9425425,8.66259333 39.9381863,8.90966 39.9280219,9.19015333 C39.9193096,9.4721 39.9091452,9.74096667 39.8975288,9.99966 C39.8873644,10.2598067 39.8801041,10.48362 39.8742959,10.67546 C39.8699397,10.8643933 39.8699397,10.9763 39.8786521,11.00682 C39.8960767,11.0693133 39.9527068,11.0867533 40.0514466,11.0605933 L40.0717753,11.14198 L38.6356932,11.5431 L38.6124603,11.4631667 C38.6458575,11.4442733 38.6748986,11.42538 38.6966795,11.4064867 C38.7213644,11.3875933 38.7286247,11.35562 38.7155562,11.3091133 C38.7155562,11.3091133 38.685063,11.2567933 38.6298849,11.1739533 C38.577611,11.0911133 38.5079123,10.98502 38.4178849,10.8527667 C38.3307616,10.7205133 38.2305699,10.5693667 38.1187616,10.3993267 C38.0098575,10.2292867 37.8951452,10.05634 37.7789808,9.88194 C37.6613644,9.70608667 37.5452,9.53314 37.4333918,9.36019333 C37.3186795,9.19015333 37.2170356,9.0361 37.1284603,8.89948667 C37.0369808,8.76142 36.962926,8.64806 36.9062959,8.55795333 C36.8467616,8.46784667 36.8148164,8.41552667 36.8075562,8.4039 C36.7814192,8.35884667 36.750926,8.3385 36.7204329,8.34867333 L36.6972,8.26728667 L37.915474,7.92866 Z M32.2103507,10.6711 C32.3294192,10.4472867 32.4905973,10.2452733 32.696789,10.0665133 C32.9058849,9.8863 33.1440219,9.73806 33.4141041,9.61888667 C33.6856384,9.50116667 33.9557205,9.42704667 34.2272548,9.39652667 C34.497337,9.36891333 34.7543507,9.38780667 34.9953918,9.45466 C35.2378849,9.52151333 35.4571452,9.63923333 35.6531726,9.80782 C35.8506521,9.97495333 36.008926,10.2016733 36.1279945,10.48362 C36.2499671,10.76702 36.300789,11.0387933 36.2877205,11.2974867 C36.2732,11.5590867 36.2064055,11.80034 36.088789,12.0241533 C35.9711726,12.24942 35.8070904,12.4485267 35.5965425,12.6214733 C35.3888986,12.7929667 35.1478575,12.9383 34.8763233,13.0574733 C34.604789,13.1766467 34.3361589,13.2536733 34.0675288,13.2900067 C33.8003507,13.3248867 33.544789,13.3089 33.3037479,13.2405933 C33.0612548,13.17374 32.8419945,13.0574733 32.6445151,12.8888867 C32.4499397,12.7203 32.2902137,12.4950333 32.1696932,12.2116333 C32.0491726,11.9296867 31.9968986,11.6579133 32.0114192,11.3977667 C32.0259397,11.1390733 32.0927342,10.8963667 32.2103507,10.6711 L32.2103507,10.6711 Z M28.6542685,12.0648467 C28.8401315,11.9543933 29.0201863,11.88318 29.1944329,11.85266 C29.3701315,11.8206867 29.5298575,11.82214 29.6808712,11.8584733 C29.8289808,11.8933533 29.9625699,11.9573 30.0816384,12.0517667 C30.2007068,12.1462333 30.2994466,12.2595933 30.3764055,12.3918467 C30.4533644,12.5255533 30.5041863,12.6665267 30.5274192,12.81622 C30.5521041,12.96882 30.5419397,13.1185133 30.4998301,13.2638467 C30.4577205,13.41354 30.3793096,13.5559667 30.2689534,13.6954867 C30.1571452,13.83646 30.0075836,13.9599933 29.8231726,14.0719 L28.7501041,14.7142733 L29.3222137,15.6952733 C29.3381863,15.7228867 29.3599671,15.74178 29.3904603,15.7475933 C29.4180493,15.7563133 29.4717753,15.74178 29.5501863,15.7039933 L29.5937479,15.77666 L28.3711178,16.5076867 L28.3290082,16.4364733 C28.4001589,16.3827 28.4379123,16.3420067 28.4451726,16.31294 C28.4538849,16.2853267 28.4480767,16.25626 28.4321041,16.2271933 L26.7970904,13.4208067 C26.7782137,13.3931933 26.7564329,13.3757533 26.7288438,13.3684867 C26.7012548,13.36122 26.6475288,13.3757533 26.5662137,13.41354 L26.5241041,13.33942 L28.6542685,12.0648467 Z M82.0027616,79.6564733 C68.3447342,96.1430867 44.0852548,98.28966 27.8149808,84.4524733 C11.5447068,70.6138333 9.4261589,46.0292467 23.0827342,29.5426333 C36.7378575,13.0545667 60.998789,10.90654 77.269063,24.7466333 C93.539337,38.5852733 95.6578849,63.1684067 82.0027616,79.6564733 L82.0027616,79.6564733 Z" id="Fill-11" fill="#FEFEFE" mask="url(#mask-2)"></path>
                                </g>
                                <path d="M29.2806849,13.5319867 C29.4491233,13.43316 29.5536712,13.3314267 29.5986849,13.22824 C29.6436986,13.1265067 29.6291781,13.0087867 29.5536712,12.8823467 C29.4854247,12.7646267 29.3968493,12.7035867 29.2893973,12.6977733 C29.1819452,12.69196 29.044,12.7384667 28.8784658,12.8387467 L27.9738356,13.38084 L28.3760548,14.0755333 L29.2806849,13.5319867 Z" id="Fill-14" fill="#FEFEFE"></path>
                                <path d="M25.9306493,72.11876 L28.6140466,72.11876 C30.1140192,72.11876 31.3584301,72.6041733 31.3584301,74.3409067 C31.3584301,76.0572933 30.2040466,76.5863067 28.6851973,76.5863067 L27.5221014,76.5863067 L27.5221014,79.4392 L25.9306493,79.4392 L25.9306493,72.11876 Z M27.5221014,75.2201733 L28.5821014,75.2201733 C29.1440466,75.2201733 29.7045397,75.0239733 29.7045397,74.3409067 C29.7045397,73.5866267 28.9509233,73.48344 28.3381562,73.48344 L27.5221014,73.48344 L27.5221014,75.2201733 Z" id="Fill-16" fill="#FEFEFE"></path>
                                <path d="M32.3578795,72.11876 L35.1516329,72.11876 C36.6312767,72.11876 37.8771397,72.6361467 37.8771397,74.3409067 C37.8771397,75.3655067 37.3369753,76.1619333 36.3161808,76.34796 L38.1530301,79.4392 L36.2450301,79.4392 L34.7348932,76.51364 L33.9493315,76.51364 L33.9493315,79.4392 L32.3578795,79.4392 L32.3578795,72.11876 Z M33.9493315,75.1475067 L34.888811,75.1475067 C35.4696329,75.1475067 36.2232493,75.1286133 36.2232493,74.3321867 C36.2232493,73.5982533 35.5712767,73.48344 34.9890027,73.48344 L33.9493315,73.48344 L33.9493315,75.1475067 Z" id="Fill-18" fill="#FEFEFE"></path>
                                <path d="M42.4789918,71.9336053 C44.7340329,71.9336053 46.3763068,73.431992 46.3763068,75.7791253 C46.3763068,78.1262587 44.7340329,79.6246453 42.4789918,79.6246453 C40.2224986,79.6246453 38.5802247,78.1262587 38.5802247,75.7791253 C38.5802247,73.431992 40.2224986,71.9336053 42.4789918,71.9336053 M42.4789918,78.136432 C43.835211,78.136432 44.7238685,77.1438053 44.7238685,75.7791253 C44.7238685,74.4144453 43.835211,73.4203653 42.4789918,73.4203653 C41.1213205,73.4203653 40.2341151,74.4144453 40.2341151,75.7791253 C40.2341151,77.1438053 41.1213205,78.136432 42.4789918,78.136432" id="Fill-20" fill="#FEFEFE"></path>
                                <path d="M47.4576521,72.11876 L50.1512137,72.11876 C51.4174055,72.11876 52.7939534,72.3876267 52.7939534,73.98048 C52.7939534,74.7972533 52.2944466,75.3553333 51.5480904,75.59368 L51.5480904,75.6140267 C52.4977342,75.73756 53.1308301,76.4511467 53.1308301,77.40308 C53.1308301,78.93344 51.7020082,79.4392 50.4169397,79.4392 L47.4576521,79.4392 L47.4576521,72.11876 Z M49.0491041,75.0457733 L50.2020356,75.0457733 C50.6928301,75.0457733 51.2025014,74.8379467 51.2025014,74.2493467 C51.2025014,73.6389467 50.6318438,73.48344 50.1308849,73.48344 L49.0491041,73.48344 L49.0491041,75.0457733 Z M49.0491041,78.07452 L50.477926,78.07452 C50.9774329,78.07452 51.537926,77.85652 51.537926,77.2170533 C51.537926,76.5238133 50.7741452,76.4104533 50.2528575,76.4104533 L49.0491041,76.4104533 L49.0491041,78.07452 Z" id="Fill-22" fill="#FEFEFE"></path>
                            </g>
                            <polygon id="Fill-25" fill="#FEFEFE" points="54.0483836 80.1349107 55.6412877 80.1349107 55.6412877 72.8144707 54.0483836 72.8144707"></polygon>
                            <path d="M60.5984575,72.629316 C62.8534986,72.629316 64.4957726,74.1277027 64.4957726,76.474836 C64.4957726,78.8219693 62.8534986,80.320356 60.5984575,80.320356 C58.3434164,80.320356 56.7011425,78.8219693 56.7011425,76.474836 C56.7011425,74.1277027 58.3434164,72.629316 60.5984575,72.629316 M60.5984575,78.8321427 C61.9561288,78.8321427 62.8433342,77.839516 62.8433342,76.474836 C62.8433342,75.110156 61.9561288,74.116076 60.5984575,74.116076 C59.2422384,74.116076 58.3550329,75.110156 58.3550329,76.474836 C58.3550329,77.839516 59.2422384,78.8321427 60.5984575,78.8321427" id="Fill-26" fill="#FEFEFE"></path>
                            <polygon id="Fill-28" fill="#FEFEFE" points="66.9753014 74.241644 64.9133836 74.241644 64.9133836 72.8144707 70.6286712 72.8144707 70.6286712 74.241644 68.5667534 74.241644 68.5667534 80.1349107 66.9753014 80.1349107"></polygon>
                            <polygon id="Fill-29" fill="#FEFEFE" points="71.4135068 80.1349107 73.0049589 80.1349107 73.0049589 72.8144707 71.4135068 72.8144707"></polygon>
                            <g id="Group-56" transform="translate(25.714058, 22.495711)" fill="#FEFEFE">
                                <path d="M53.4640217,52.220592 C53.1474738,51.8383653 52.6886245,51.6203653 52.0961861,51.6203653 C50.8924327,51.6203653 50.0052272,52.6144453 50.0052272,53.977672 C50.0052272,55.3438053 50.8924327,56.336432 52.0453642,56.336432 C52.6886245,56.336432 53.2084601,56.0472187 53.5351724,55.551632 L54.8608984,56.5529787 C54.2597478,57.4235253 53.2404053,57.8246453 52.2501039,57.8246453 C49.9950628,57.8246453 48.3513368,56.3262587 48.3513368,53.977672 C48.3513368,51.631992 49.9950628,50.1336053 52.2501039,50.1336053 C53.0559943,50.1336053 54.0753368,50.411192 54.6881039,51.2076187 L53.4640217,52.220592 Z" id="Fill-30"></path>
                                <path d="M41.5441039,24.322696 L42.4545423,24.322696 C43.4767889,24.322696 44.5730902,24.0974293 44.5730902,22.835936 C44.5730902,22.0264293 43.8485149,21.440736 42.9380765,21.440736 C42.0639395,21.440736 41.4700491,21.9871893 41.3016108,22.6847893 L38.2363231,22.0453227 C38.8113368,19.7287093 40.6902957,18.842176 42.9191998,18.842176 C45.2613642,18.842176 47.3610354,19.9917627 47.3610354,22.5539893 C47.3610354,24.021856 46.5624053,25.1699893 45.1118026,25.4722827 L45.1118026,25.5289627 C46.6916382,25.735336 47.5846519,27.0927493 47.5846519,28.6376427 C47.5846519,31.311776 45.4283505,32.628496 42.845145,32.628496 C40.5044327,32.628496 38.6632272,31.5748293 38.1230628,29.1826427 L41.0605697,28.4850427 C41.2464327,29.428256 41.8214464,30.029936 43.0106793,30.029936 C44.2202409,30.029936 44.7952546,29.314896 44.7952546,28.316456 C44.7952546,26.8093493 43.4390354,26.7715627 42.1946245,26.7715627 L41.5441039,26.7715627 L41.5441039,24.322696 Z" id="Fill-32"></path>
                                <path d="M53.291082,18.8429027 C57.1942053,18.8429027 58.1786984,22.572156 58.1786984,25.7360627 C58.1786984,28.8999693 57.1942053,32.6292227 53.291082,32.6292227 C49.3879587,32.6292227 48.4020135,28.8999693 48.4020135,25.7360627 C48.4020135,22.572156 49.3879587,18.8429027 53.291082,18.8429027 M53.291082,30.0306627 C55.2978217,30.0306627 55.3907532,27.1298093 55.3907532,25.7360627 C55.3907532,24.342316 55.2978217,21.4414627 53.291082,21.4414627 C51.2843423,21.4414627 51.1899587,24.342316 51.1899587,25.7360627 C51.1899587,27.1298093 51.2843423,30.0306627 53.291082,30.0306627" id="Fill-34"></path>
                                <path d="M48.7158026,33.9170213 C46.6059669,36.6463813 44.1360217,37.8293947 41.5760491,37.8293947 C35.0200217,37.8293947 30.6653094,32.734008 30.6653094,25.862648 C30.6653094,19.4461813 35.0200217,14.352248 41.5760491,14.352248 C43.7773642,14.352248 45.9322135,15.0338613 48.2671176,17.5365013 L52.6668436,14.2621413 C49.5245971,10.576488 45.8421861,9.16530133 41.5324875,9.16530133 C34.3724053,9.16530133 28.7050354,12.7710213 26.177008,18.747128 C25.3899943,12.9643147 20.0377204,10.7232747 14.8161313,10.7232747 L0.237501184,10.7232747 L0.237501184,48.6203947 L13.7067615,48.6203947 C20.7855286,48.6203947 27.8642957,46.0523547 27.8642957,37.8075947 C27.8642957,37.3178213 27.8279943,36.841128 27.7611998,36.3760613 C30.7117752,40.5500347 35.609556,43.0163413 41.5324875,43.0163413 C46.2008436,43.0163413 50.5105423,41.288328 53.3856108,37.2829413 L48.7158026,33.9170213 Z M6.89226831,16.5046347 L12.3853916,16.5046347 C17.405145,16.5046347 19.6238847,18.1091147 19.6238847,21.3733013 C19.6238847,24.2116613 17.405145,26.137328 12.9676656,26.137328 L6.89226831,26.137328 L6.89226831,16.5046347 Z M13.0199395,42.840488 L6.89226831,42.840488 L6.89226831,31.9201413 L13.2842135,31.9201413 C18.6727889,31.9201413 21.2080765,33.3124347 21.2080765,37.272768 C21.2080765,42.251888 16.4540491,42.840488 13.0199395,42.840488 L13.0199395,42.840488 Z M19.7821587,28.6545013 L19.7821587,28.5469547 C21.8789258,27.907488 23.6155834,26.773888 24.7641587,25.186848 C24.7496382,25.5298347 24.7394738,25.8771813 24.7394738,26.2274347 C24.7394738,28.0847947 24.9790628,29.8287947 25.4306519,31.439088 C24.0090902,29.9203547 22.0502683,28.9131947 19.7821587,28.6545013 L19.7821587,28.6545013 Z" id="Fill-36"></path>
                                <path d="M14.0501724,0.699053333 L13.8512409,0.699053333 C13.7452409,0.783346667 13.6929669,0.805146667 13.5985834,0.805146667 C13.5259806,0.805146667 13.4722546,0.794973333 13.1353779,0.709226667 C12.5458436,0.57116 11.893871,0.485413333 11.3682272,0.485413333 C10.3895423,0.485413333 9.56913132,0.752826667 8.86488475,1.29492 C7.83247379,2.10442667 7.16017242,3.51270667 7.16017242,4.87738667 C7.16017242,6.67952 8.51639159,7.87416 10.5478163,7.87416 C10.9253505,7.87416 11.3159532,7.83056 11.7051039,7.74626667 C12.3048026,7.63872 12.6097341,7.53262667 13.324145,7.20272 L13.9136793,4.142 L11.7355971,4.142 L11.7051039,4.33384 C11.9897067,4.37744 12.104419,4.50388 12.104419,4.78292 C12.104419,4.86721333 12.0724738,5.04888 12.0303642,5.27124 L11.8503094,6.19992 C11.4524464,6.45570667 11.0313505,6.57342667 10.515871,6.57342667 C9.46313132,6.57342667 8.81261077,5.89036 8.81261077,4.79164 C8.81261077,4.0984 9.08559707,3.28889333 9.53718612,2.71337333 C9.99893954,2.11605333 10.6843094,1.79632 11.5250491,1.79632 C12.3469121,1.79632 13.0090491,2.03176 13.5259806,2.49101333 L13.6929669,2.49101333 L14.0501724,0.699053333 Z" id="Fill-38"></path>
                                <path d="M18.4437998,3.09182133 L18.2681012,3.68042133 C17.9776902,3.199368 17.4839916,2.963928 16.7681286,2.963928 C15.188293,2.963928 14.0063204,4.20071467 14.0063204,5.850248 C14.0063204,7.105928 14.7323478,7.86311467 15.9143204,7.86311467 C16.1756902,7.86311467 16.3412245,7.84422133 16.805882,7.75411467 L17.3779916,6.556568 L17.2327861,6.46791467 C17.0294984,6.64522133 16.7376354,6.74259467 16.4196354,6.74259467 C15.8460738,6.74259467 15.4598272,6.321128 15.4598272,5.702008 C15.4598272,5.37791467 15.5847039,4.97679467 15.798156,4.66287467 C16.0696902,4.258848 16.3891423,4.08299467 16.8741286,4.08299467 C17.521745,4.08299467 17.9108957,4.47539467 17.9108957,5.12358133 C17.9108957,5.18171467 17.9007313,5.25002133 17.8905669,5.309608 C17.8804026,5.35902133 17.8615258,5.48691467 17.8237724,5.693288 L17.6785669,6.438848 C17.6204847,6.72515467 17.5914436,7.00855467 17.5914436,7.15534133 C17.5914436,7.30358133 17.600156,7.39078133 17.6785669,7.67563467 C17.6872793,7.725048 17.707608,7.77446133 17.7264847,7.86311467 L19.5473615,7.47943467 L19.5473615,7.31230133 C19.2003204,7.30358133 19.0739916,7.16551467 19.0739916,6.783288 C19.0739916,6.66411467 19.0827039,6.556568 19.111745,6.438848 L19.2003204,5.95634133 L19.7506491,3.09182133 L18.4437998,3.09182133 Z" id="Fill-40"></path>
                                <path d="M20.0873806,7.73434933 L21.5307231,7.73434933 L21.8893806,5.888616 C21.9765039,5.42936267 22.083956,5.05440267 22.2189971,4.80006933 C22.4135724,4.42656267 22.801271,4.170776 23.1875176,4.170776 C23.5563395,4.170776 23.779956,4.38732267 23.779956,4.73030933 C23.779956,4.84802933 23.7494628,5.025336 23.7204217,5.221536 L23.4590519,6.57604267 C23.3908053,6.88996267 23.3719286,7.04692267 23.3719286,7.214056 C23.3719286,7.39136267 23.3908053,7.49890933 23.488093,7.86224267 L25.3481752,7.480016 L25.3481752,7.31142933 C25.0098464,7.31142933 24.8835176,7.174816 24.8835176,6.81148267 C24.8835176,6.68358933 24.893682,6.56586933 24.9125587,6.437976 L25.0011341,5.95692267 L25.184093,4.96720267 C25.2421752,4.680896 25.2712163,4.436736 25.2712163,4.23036267 C25.2712163,3.45428267 24.6889423,2.963056 23.7886683,2.963056 C23.119271,2.963056 22.5776546,3.19994933 22.1609149,3.68972267 C22.1507505,3.34528267 22.1217094,3.150536 22.0345861,2.923816 L20.2906683,3.35690933 L20.281956,3.503696 L20.3211615,3.503696 C20.6391615,3.503696 20.7771067,3.63158933 20.7771067,3.90626933 C20.7771067,4.013816 20.7669423,4.15188267 20.7364491,4.33790933 L20.6609423,4.76082933 L20.0873806,7.73434933 Z" id="Fill-42"></path>
                                <path d="M29.2129642,4.760248 L27.1960601,4.760248 C27.3238409,4.289368 27.8160875,3.936208 28.3504436,3.936208 C28.9109368,3.936208 29.2129642,4.22106133 29.2129642,4.760248 L29.2129642,4.760248 Z M29.7444163,6.15399467 C29.2303889,6.63650133 28.8441423,6.81090133 28.2734847,6.81090133 C27.5169642,6.81090133 27.0523067,6.408328 27.0218135,5.72235467 L30.3934847,5.72235467 C30.5198135,5.231128 30.5488546,5.065448 30.5488546,4.760248 C30.5488546,3.670248 29.6863341,2.91451467 28.4361149,2.91451467 C26.8475669,2.91451467 25.656882,4.11206133 25.656882,5.71218133 C25.656882,7.02890133 26.557156,7.81370133 28.0585806,7.81370133 C28.6001971,7.81370133 28.9312656,7.75411467 29.5019231,7.576808 L29.8997861,6.203408 L29.7444163,6.15399467 Z" id="Fill-44"></path>
                                <path d="M34.1620026,6.547848 L34.0356738,6.478088 C33.7350984,6.674288 33.5230984,6.74259467 33.2123587,6.74259467 C32.5821669,6.74259467 32.2147971,6.369088 32.2147971,5.732528 C32.2147971,4.81983467 32.8537012,4.08299467 33.6392628,4.08299467 C34.2200847,4.08299467 34.6557012,4.50446133 34.6557012,5.065448 C34.6557012,5.24130133 34.625208,5.47674133 34.5787423,5.76014133 L34.4320847,6.517328 C34.3740026,6.80218133 34.3551258,6.96931467 34.3551258,7.14662133 C34.3551258,7.39223467 34.385619,7.54774133 34.491619,7.86311467 L36.3110436,7.47943467 L36.3110436,7.31230133 C35.9741669,7.30358133 35.8463861,7.16551467 35.8463861,6.783288 C35.8463861,6.66411467 35.8565505,6.556568 35.8783313,6.438848 L35.9640026,5.95634133 L36.6029067,2.610768 L36.7001943,2.08902133 C36.7379478,1.88410133 36.7582765,1.647208 36.7582765,1.54111467 C36.7582765,1.38270133 36.7292354,1.27515467 36.6319478,1.058608 L34.7428245,1.54983467 L34.7341121,1.70679467 C35.0826053,1.70679467 35.2176464,1.83323467 35.2176464,2.179128 C35.2176464,2.28522133 35.2089341,2.40294133 35.1900573,2.532288 L35.1116464,2.963928 L34.995482,3.61211467 C34.6557012,3.18919467 34.093756,2.963928 33.4243587,2.963928 C31.9229341,2.963928 30.7424135,4.258848 30.7424135,5.91855467 C30.7424135,7.08703467 31.5352354,7.86311467 32.7084957,7.86311467 C33.0671532,7.86311467 33.3285231,7.81370133 33.6000573,7.725048 L34.1620026,6.547848 Z" id="Fill-46"></path>
                                <path d="M39.9822738,4.760248 L37.9668217,4.760248 C38.0931505,4.289368 38.5868491,3.936208 39.1183012,3.936208 C39.6816984,3.936208 39.9822738,4.22106133 39.9822738,4.760248 L39.9822738,4.760248 Z M40.5151779,6.15399467 C40.0011505,6.63650133 39.6134519,6.81090133 39.0427943,6.81090133 C38.2862738,6.81090133 37.8216163,6.408328 37.7925752,5.72235467 L41.1642464,5.72235467 C41.2891231,5.231128 41.3181642,5.065448 41.3181642,4.760248 C41.3181642,3.670248 40.4570957,2.91451467 39.2068765,2.91451467 C37.6183286,2.91451467 36.4276436,4.11206133 36.4276436,5.71218133 C36.4276436,7.02890133 37.3279176,7.81370133 38.8293423,7.81370133 C39.3709587,7.81370133 39.7005752,7.75411467 40.2726847,7.576808 L40.6705478,6.203408 L40.5151779,6.15399467 Z" id="Fill-48"></path>
                                <path d="M41.2789587,7.73434933 L42.7223012,7.73434933 L43.0809587,5.888616 C43.16663,5.42936267 43.2755341,5.05440267 43.4105752,4.80006933 C43.6051505,4.42656267 43.9928491,4.170776 44.3790957,4.170776 C44.7464656,4.170776 44.970082,4.38732267 44.970082,4.73030933 C44.970082,4.84802933 44.9410409,5.025336 44.9119998,5.221536 L44.65063,6.57604267 C44.5823834,6.88996267 44.5635067,7.04692267 44.5635067,7.214056 C44.5635067,7.39136267 44.5823834,7.49890933 44.679671,7.86224267 L46.5412053,7.480016 L46.5412053,7.31142933 C46.2014245,7.31142933 46.0736436,7.174816 46.0736436,6.81148267 C46.0736436,6.68358933 46.0852601,6.56586933 46.1041368,6.437976 L46.1912601,5.95692267 L46.374219,4.96720267 C46.4323012,4.680896 46.4627943,4.436736 46.4627943,4.23036267 C46.4627943,3.45428267 45.8805204,2.963056 44.9802464,2.963056 C44.3108491,2.963056 43.7692327,3.19994933 43.352493,3.68972267 C43.3423286,3.34528267 43.3132875,3.150536 43.2261642,2.923816 L41.4822464,3.35690933 L41.472082,3.503696 L41.5112875,3.503696 C41.8307395,3.503696 41.9672327,3.63158933 41.9672327,3.90626933 C41.9672327,4.013816 41.9585204,4.15188267 41.9280272,4.33790933 L41.8510683,4.76082933 L41.2789587,7.73434933 Z" id="Fill-50"></path>
                                <path d="M46.9390683,6.17666667 C47.2149587,6.17666667 47.434219,6.40338667 47.434219,6.68242667 C47.434219,6.96582667 47.2149587,7.19109333 46.9376163,7.19109333 C46.6631779,7.19109333 46.4381094,6.96582667 46.4381094,6.68242667 C46.4381094,6.40338667 46.6631779,6.17666667 46.9376163,6.17666667 L46.9390683,6.17666667 Z M46.9361642,6.27694667 C46.7270683,6.27694667 46.5571779,6.46006667 46.5571779,6.68533333 C46.5571779,6.91205333 46.7270683,7.08936 46.9376163,7.08936 C47.1481642,7.09226667 47.3180546,6.91205333 47.3180546,6.68533333 C47.3180546,6.46006667 47.1481642,6.27694667 46.9376163,6.27694667 L46.9361642,6.27694667 Z M46.850493,6.97890667 L46.7328765,6.97890667 L46.7328765,6.41501333 C46.7778902,6.4092 46.825808,6.39902667 46.9100272,6.39902667 C47.0073149,6.39902667 47.062493,6.41501333 47.1016984,6.44553333 C47.1321916,6.46878667 47.1510683,6.50802667 47.1510683,6.56616 C47.1510683,6.63301333 47.1031505,6.68097333 47.0436163,6.69696 L47.0436163,6.70132 C47.0929861,6.71004 47.1234793,6.75509333 47.1321916,6.83938667 C47.143808,6.92513333 47.1539724,6.96001333 47.1626847,6.97890667 L47.0421642,6.97890667 C47.0290957,6.95856 47.0203834,6.90769333 47.0087669,6.83212 C47.0000546,6.77108 46.9652053,6.74637333 46.9027669,6.74637333 L46.850493,6.74637333 L46.850493,6.97890667 Z M46.850493,6.65336 L46.905671,6.65336 C46.9753697,6.65336 47.0290957,6.63010667 47.0290957,6.57197333 C47.0290957,6.52546667 46.9942464,6.48913333 46.9143834,6.48913333 C46.8867943,6.48913333 46.8664656,6.48913333 46.850493,6.49204 L46.850493,6.65336 Z" id="Fill-52"></path>
                                <path d="M63.9347889,76.7846867 C63.9347889,75.4141933 65.0310902,74.4026733 66.3277752,74.4026733 C67.6113916,74.4026733 68.7105971,75.4141933 68.7105971,76.7846867 C68.7105971,78.16826 67.6113916,79.1783267 66.3277752,79.1783267 C65.0310902,79.1783267 63.9347889,78.16826 63.9347889,76.7846867 L63.9347889,76.7846867 Z M66.3277752,78.7801133 C67.3935834,78.7801133 68.2357752,77.9342733 68.2357752,76.7846867 C68.2357752,75.6539933 67.3935834,74.8008867 66.3277752,74.8008867 C65.2488984,74.8008867 64.4081587,75.6539933 64.4081587,76.7846867 C64.4081587,77.9342733 65.2488984,78.7801133 66.3277752,78.7801133 L66.3277752,78.7801133 Z M65.8297204,78.16826 L65.4187889,78.16826 L65.4187889,75.4141933 L66.4541039,75.4141933 C67.0959121,75.4141933 67.4139121,75.6539933 67.4139121,76.1960867 C67.4139121,76.6887667 67.1075286,76.90386 66.7082135,76.9547267 L67.4807067,78.16826 L67.0204053,78.16826 L66.3030902,76.9721667 L65.8297204,76.9721667 L65.8297204,78.16826 Z M66.3219669,76.62046 C66.6719121,76.62046 66.9826519,76.5943 66.9826519,76.1728333 C66.9826519,75.8313 66.6777204,75.7673533 66.3902135,75.7673533 L65.8297204,75.7673533 L65.8297204,76.62046 L66.3219669,76.62046 Z" id="Fill-54"></path>
                            </g>
                        </g>
                    </g>
                </g>
            </g>
        </g>
    </g>
</svg>