<?xml version="1.0" encoding="UTF-8" standalone="no"?>
<svg width="283px" height="249px" viewBox="0 0 283 249" version="1.1" xmlns="http://www.w3.org/2000/svg" xmlns:xlink="http://www.w3.org/1999/xlink">
    <!-- Generator: Sketch 41 (35326) - http://www.bohemiancoding.com/sketch -->
    <title>Group 2</title>
    <desc>Created with Sketch.</desc>
    <defs>
        <polygon id="path-1" points="79.037811 80.8822039 0 80.8822039 0 0.570000937 79.037811 0.570000937"></polygon>
    </defs>
    <g id="Products" stroke="none" stroke-width="1" fill="none" fill-rule="evenodd">
        <g id="Tablet-Portrait" transform="translate(-47.000000, -859.000000)">
            <g id="Product-Line" transform="translate(0.000000, 504.000000)">
                <g id="Group-2" transform="translate(45.000000, 355.000000)">
                    <g id="10x" transform="translate(0.000000, 122.000000)">
                        <text id="than-yogurt-cultures" font-family="Circular-Black, Circular" font-size="20" font-weight="700" fill="#FFFFFF">
                            <tspan x="2" y="122">than yogurt cultures.†</tspan>
                        </text>
                        <text id="more-effectively" font-family="IntroRust-Base, Intro Rust" font-size="26.4" font-weight="normal" line-spacing="25.2" fill="#B7DEBF">
                            <tspan x="111" y="69">more</tspan>
                            <tspan x="111" y="94.2">effectively</tspan>
                        </text>
                        <text font-family="IntroRust-Base, Intro Rust" font-size="61.2" font-weight="normal" line-spacing="32.4" letter-spacing="-2.51999989" fill="#B7DEBF">
                            <tspan x="0" y="125.958363">10</tspan>
                            <tspan x="73.3572002" y="124" font-family="Circular-Black, Circular" font-weight="700">x</tspan>
                        </text>
                        <text id="Our-probiotic-cultur" font-family="Circular-Black, Circular" font-size="20" font-weight="700" fill="#FFFFFF">
                            <tspan x="2" y="20">Our probiotic culture survives</tspan>
                        </text>
                    </g>
                    <g id="Ganeden/Yogurts" transform="translate(4.000000, 0.000000)">
                        <g id="Yogurts" transform="translate(133.500000, 0.000000)" fill="#F9B1A6">
                            <path d="M18.8627362,72.6968856 C21.3847468,73.9936356 21.507675,74.1176231 21.507675,75.3523794 L21.507675,87.7050606 C21.507675,90.2371356 20.5168851,90.9162231 19.0440128,90.9162231 L12.5050261,90.9162231 L5.96547287,90.9162231 C4.49260053,90.9162231 3.50181064,90.2371356 3.50181064,87.7050606 L3.50181064,75.3523794 C3.50181064,74.1176231 3.62473883,73.9936356 6.14674947,72.6968856 L18.8627362,72.6968856 Z" id="Fill-2"></path>
                            <path d="M18.0275043,71.4727081 L6.98209468,71.4727081 C6.55326223,71.4727081 6.13292713,71.4835144 5.73695106,71.5028519 C5.33870904,71.5221894 4.96369309,71.5506269 4.63059734,71.5858894 C4.29353617,71.6217206 3.99782872,71.6643769 3.76443511,71.7132894 C3.52707606,71.7627706 3.35316383,71.8173706 3.26592447,71.8765206 L0.252201064,73.9052519 C0.0952835106,74.0110394 0.069225,74.1145519 0.159863298,74.2112394 C0.252767553,74.3096331 0.468033511,74.4006331 0.789232979,74.4791206 C1.11609734,74.5581769 1.55059468,74.6235831 2.07176489,74.6696519 C2.5986,74.7157206 3.20927553,74.7418831 3.87829947,74.7418831 L21.130733,74.7418831 C21.8003234,74.7418831 22.4109989,74.7157206 22.937834,74.6696519 C23.4590043,74.6235831 23.8935016,74.5581769 24.220366,74.4791206 C24.5415654,74.4006331 24.7562649,74.3096331 24.8497356,74.2112394 C24.9403739,74.1145519 24.9143154,74.0110394 24.7568314,73.9052519 L21.7436745,71.8765206 C21.6564351,71.8173706 21.4825229,71.7627706 21.2451638,71.7132894 C21.0117702,71.6643769 20.7160628,71.6217206 20.3790016,71.5858894 C20.0459059,71.5506269 19.6708899,71.5221894 19.2726479,71.5028519 C18.8766718,71.4835144 18.4563367,71.4727081 18.0275043,71.4727081" id="Fill-4"></path>
                            <path d="M46.3388864,72.6968856 C48.8608971,73.9936356 48.9838253,74.1176231 48.9838253,75.3523794 L48.9838253,87.7050606 C48.9838253,90.2371356 47.9930354,90.9162231 46.520163,90.9162231 L39.9811763,90.9162231 L33.4416231,90.9162231 C31.9687508,90.9162231 30.9779609,90.2371356 30.9779609,87.7050606 L30.9779609,75.3523794 C30.9779609,74.1176231 31.1008891,73.9936356 33.6228997,72.6968856 L46.3388864,72.6968856 Z" id="Fill-6"></path>
                            <path d="M45.5036545,71.4727081 L34.4582449,71.4727081 C34.0294125,71.4727081 33.6090774,71.4835144 33.2131013,71.5028519 C32.8148593,71.5221894 32.4398434,71.5506269 32.1067476,71.5858894 C31.7696864,71.6217206 31.473979,71.6643769 31.2405854,71.7132894 C31.0032263,71.7627706 30.8293141,71.8173706 30.7420747,71.8765206 L27.7283513,73.9052519 C27.5714338,74.0110394 27.5453753,74.1145519 27.6360136,74.2112394 C27.7289178,74.3096331 27.9441838,74.4006331 28.2653832,74.4791206 C28.5922476,74.5581769 29.0267449,74.6235831 29.5479152,74.6696519 C30.0747503,74.7157206 30.6854258,74.7418831 31.3544497,74.7418831 L48.6068832,74.7418831 C49.2764737,74.7418831 49.8871492,74.7157206 50.4139843,74.6696519 C50.9351545,74.6235831 51.3696519,74.5581769 51.6965162,74.4791206 C52.0177157,74.4006331 52.2324152,74.3096331 52.3258859,74.2112394 C52.4165242,74.1145519 52.3904657,74.0110394 52.2329816,73.9052519 L49.2198247,71.8765206 C49.1325854,71.8173706 48.9586731,71.7627706 48.7213141,71.7132894 C48.4879205,71.6643769 48.192213,71.6217206 47.8551519,71.5858894 C47.5220561,71.5506269 47.1470402,71.5221894 46.7487981,71.5028519 C46.3528221,71.4835144 45.932487,71.4727081 45.5036545,71.4727081" id="Fill-8"></path>
                            <path d="M32.8424473,48.7647387 C35.364458,50.0614887 35.4873862,50.1854762 35.4873862,51.4202325 L35.4873862,63.7729137 C35.4873862,66.3049887 34.4965963,66.9840762 33.0237239,66.9840762 L26.4847372,66.9840762 L19.945184,66.9840762 C18.4723117,66.9840762 17.4815218,66.3049887 17.4815218,63.7729137 L17.4815218,51.4202325 C17.4815218,50.1854762 17.60445,50.0614887 20.1264606,48.7647387 L32.8424473,48.7647387 Z" id="Fill-10"></path>
                            <path d="M32.0072721,47.5405613 L20.9618625,47.5405613 C20.5330301,47.5405613 20.1126949,47.5513675 19.7167189,47.570705 C19.3184769,47.5900425 18.9434609,47.61848 18.6103652,47.6537425 C18.273304,47.6895738 17.9775965,47.73223 17.7442029,47.7811425 C17.5068439,47.8306238 17.3329316,47.8852238 17.2456923,47.9443738 L14.2319689,49.973105 C14.0750513,50.0788925 14.0489928,50.182405 14.1396311,50.2790925 C14.2325354,50.3774863 14.4478013,50.4684863 14.7690008,50.5469738 C15.0958652,50.62603 15.5303625,50.6914363 16.0515327,50.737505 C16.5783678,50.7835738 17.1890434,50.8097363 17.8580673,50.8097363 L35.1105008,50.8097363 C35.7800912,50.8097363 36.3907668,50.7835738 36.9176019,50.737505 C37.4387721,50.6914363 37.8732694,50.62603 38.2001338,50.5469738 C38.5213332,50.4684863 38.7360327,50.3774863 38.8295035,50.2790925 C38.9201418,50.182405 38.8940832,50.0788925 38.7365992,49.973105 L35.7234423,47.9443738 C35.6362029,47.8852238 35.4622907,47.8306238 35.2249316,47.7811425 C34.991538,47.73223 34.6958306,47.6895738 34.3587694,47.6537425 C34.0256737,47.61848 33.6506577,47.5900425 33.2524157,47.570705 C32.8564396,47.5513675 32.4361045,47.5405613 32.0072721,47.5405613" id="Fill-12"></path>
                            <path d="M46.0972221,24.8325919 C48.6192327,26.1293419 48.7421609,26.2533294 48.7421609,27.4880856 L48.7421609,39.8407669 C48.7421609,42.3728419 47.751371,43.0519294 46.2784987,43.0519294 L39.739512,43.0519294 L33.1999588,43.0519294 C31.7270864,43.0519294 30.7362965,42.3728419 30.7362965,39.8407669 L30.7362965,27.4880856 C30.7362965,26.2533294 30.8592247,26.1293419 33.3812354,24.8325919 L46.0972221,24.8325919 Z" id="Fill-14"></path>
                            <path d="M45.2620468,23.6084144 L34.2166372,23.6084144 C33.7878048,23.6084144 33.3674697,23.6192206 32.9714936,23.6385581 C32.5732516,23.6578956 32.1982356,23.6863331 31.8651399,23.7215956 C31.5280787,23.7574269 31.2323713,23.8000831 30.9989777,23.8489956 C30.7616186,23.8984769 30.5877064,23.9530769 30.500467,24.0122269 L27.4867436,26.0409581 C27.3298261,26.1467456 27.3037676,26.2502581 27.3944059,26.3469456 C27.4873101,26.4453394 27.7025761,26.5363394 28.0237755,26.6148269 C28.3506399,26.6938831 28.7851372,26.7592894 29.3063074,26.8053581 C29.8331426,26.8514269 30.4438181,26.8775894 31.112842,26.8775894 L48.3652755,26.8775894 C49.034866,26.8775894 49.6455415,26.8514269 50.1723766,26.8053581 C50.6935468,26.7592894 51.1280441,26.6938831 51.4549085,26.6148269 C51.776108,26.5363394 51.9908074,26.4453394 52.0842782,26.3469456 C52.1749165,26.2502581 52.148858,26.1467456 51.9913739,26.0409581 L48.978217,24.0122269 C48.8909777,23.9530769 48.7170654,23.8984769 48.4797064,23.8489956 C48.2463128,23.8000831 47.9506053,23.7574269 47.6135441,23.7215956 C47.2804484,23.6863331 46.9054324,23.6578956 46.5071904,23.6385581 C46.1112144,23.6192206 45.6908793,23.6084144 45.2620468,23.6084144" id="Fill-16"></path>
                            <path d="M60.3185976,1.2241775 C62.8406082,2.5209275 62.9635364,2.644915 62.9635364,3.87967125 L62.9635364,16.2323525 C62.9635364,18.7644275 61.9727465,19.443515 60.4998742,19.443515 L53.9608875,19.443515 L47.4213343,19.443515 C45.948462,19.443515 44.9576721,18.7644275 44.9576721,16.2323525 L44.9576721,3.87967125 C44.9576721,2.644915 45.0806003,2.5209275 47.6026109,1.2241775 L60.3185976,1.2241775 Z" id="Fill-18"></path>
                            <path d="M59.4834223,-5.68750002e-05 L48.4380128,-5.68750002e-05 C48.0091803,-5.68750002e-05 47.5888452,0.010749375 47.1928691,0.030086875 C46.7946271,0.049424375 46.4196112,0.077861875 46.0865154,0.113124375 C45.7494543,0.148955625 45.4537468,0.191611875 45.2203532,0.240524375 C44.9829941,0.290005625 44.8090819,0.344605625 44.7218426,0.403755625 L41.7081191,2.43248687 C41.5512016,2.53827437 41.5251431,2.64178687 41.6157814,2.73847437 C41.7086856,2.83686812 41.9239516,2.92786812 42.2451511,3.00635562 C42.5720154,3.08541187 43.0065128,3.15081812 43.527683,3.19688687 C44.0545181,3.24295562 44.6651936,3.26911812 45.3342176,3.26911812 L62.5866511,3.26911812 C63.2562415,3.26911812 63.866917,3.24295562 64.3937521,3.19688687 C64.9149223,3.15081812 65.3494197,3.08541187 65.676284,3.00635562 C65.9974835,2.92786812 66.212183,2.83686812 66.3056537,2.73847437 C66.396292,2.64178687 66.3702335,2.53827437 66.2127495,2.43248687 L63.1995926,0.403755625 C63.1123532,0.344605625 62.938441,0.290005625 62.7010819,0.240524375 C62.4676883,0.191611875 62.1719809,0.148955625 61.8349197,0.113124375 C61.5018239,0.077861875 61.126808,0.049424375 60.728566,0.030086875 C60.3325899,0.010749375 59.9122548,-5.68750002e-05 59.4834223,-5.68750002e-05" id="Fill-20"></path>
                            <path d="M73.8150367,72.6968856 C76.3370473,73.9936356 76.4599755,74.1176231 76.4599755,75.3523794 L76.4599755,87.7050606 C76.4599755,90.2371356 75.4691856,90.9162231 73.9963133,90.9162231 L67.4573266,90.9162231 L60.9177734,90.9162231 C59.4449011,90.9162231 58.4541112,90.2371356 58.4541112,87.7050606 L58.4541112,75.3523794 C58.4541112,74.1176231 58.5770394,73.9936356 61.09905,72.6968856 L73.8150367,72.6968856 Z" id="Fill-23"></path>
                            <path d="M72.9798048,71.4727081 L61.9343952,71.4727081 C61.5055628,71.4727081 61.0852277,71.4835144 60.6892516,71.5028519 C60.2910096,71.5221894 59.9159936,71.5506269 59.5828979,71.5858894 C59.2458367,71.6217206 58.9501293,71.6643769 58.7167356,71.7132894 C58.4793766,71.7627706 58.3054644,71.8173706 58.218225,71.8765206 L55.2045016,73.9052519 C55.047584,74.0110394 55.0215255,74.1145519 55.1121638,74.2112394 C55.2050681,74.3096331 55.420334,74.4006331 55.7415335,74.4791206 C56.0683979,74.5581769 56.5028952,74.6235831 57.0240654,74.6696519 C57.5509005,74.7157206 58.1615761,74.7418831 58.8306,74.7418831 L76.0830335,74.7418831 C76.7526239,74.7418831 77.3632995,74.7157206 77.8901346,74.6696519 C78.4113048,74.6235831 78.8458021,74.5581769 79.1726665,74.4791206 C79.493866,74.4006331 79.7085654,74.3096331 79.8020362,74.2112394 C79.8926745,74.1145519 79.866616,74.0110394 79.7091319,73.9052519 L76.695975,71.8765206 C76.6087356,71.8173706 76.4348234,71.7627706 76.1974644,71.7132894 C75.9640707,71.6643769 75.6683633,71.6217206 75.3313021,71.5858894 C74.9982064,71.5506269 74.6231904,71.5221894 74.2249484,71.5028519 C73.8289723,71.4835144 73.4086372,71.4727081 72.9798048,71.4727081" id="Fill-25"></path>
                            <path d="M60.3185976,48.7647387 C62.8406082,50.0614887 62.9635364,50.1854762 62.9635364,51.4202325 L62.9635364,63.7729137 C62.9635364,66.3049887 61.9727465,66.9840762 60.4998742,66.9840762 L53.9608875,66.9840762 L47.4213343,66.9840762 C45.948462,66.9840762 44.9576721,66.3049887 44.9576721,63.7729137 L44.9576721,51.4202325 C44.9576721,50.1854762 45.0806003,50.0614887 47.6026109,48.7647387 L60.3185976,48.7647387 Z" id="Fill-27"></path>
                            <path d="M59.4834223,47.5405613 L48.4380128,47.5405613 C48.0091803,47.5405613 47.5888452,47.5513675 47.1928691,47.570705 C46.7946271,47.5900425 46.4196112,47.61848 46.0865154,47.6537425 C45.7494543,47.6895738 45.4537468,47.73223 45.2203532,47.7811425 C44.9829941,47.8306238 44.8090819,47.8852238 44.7218426,47.9443738 L41.7081191,49.973105 C41.5512016,50.0788925 41.5251431,50.182405 41.6157814,50.2790925 C41.7086856,50.3774863 41.9239516,50.4684863 42.2451511,50.5469738 C42.5720154,50.62603 43.0065128,50.6914363 43.527683,50.737505 C44.0545181,50.7835738 44.6651936,50.8097363 45.3342176,50.8097363 L62.5866511,50.8097363 C63.2562415,50.8097363 63.866917,50.7835738 64.3937521,50.737505 C64.9149223,50.6914363 65.3494197,50.62603 65.676284,50.5469738 C65.9974835,50.4684863 66.212183,50.3774863 66.3056537,50.2790925 C66.396292,50.182405 66.3702335,50.0788925 66.2127495,49.973105 L63.1995926,47.9443738 C63.1123532,47.8852238 62.938441,47.8306238 62.7010819,47.7811425 C62.4676883,47.73223 62.1719809,47.6895738 61.8349197,47.6537425 C61.5018239,47.61848 61.126808,47.5900425 60.728566,47.570705 C60.3325899,47.5513675 59.9122548,47.5405613 59.4834223,47.5405613" id="Fill-29"></path>
                            <path d="M73.573429,24.8325919 C76.0954396,26.1293419 76.2183678,26.2533294 76.2183678,27.4880856 L76.2183678,39.8407669 C76.2183678,42.3728419 75.2275779,43.0519294 73.7547056,43.0519294 L67.2157189,43.0519294 L60.6761657,43.0519294 C59.2032934,43.0519294 58.2125035,42.3728419 58.2125035,39.8407669 L58.2125035,27.4880856 C58.2125035,26.2533294 58.3354316,26.1293419 60.8574423,24.8325919 L73.573429,24.8325919 Z" id="Fill-31"></path>
                            <path d="M72.7381971,23.6084144 L61.6927875,23.6084144 C61.2639551,23.6084144 60.8436199,23.6192206 60.4476439,23.6385581 C60.0494019,23.6578956 59.6743859,23.6863331 59.3412902,23.7215956 C59.004229,23.7574269 58.7085215,23.8000831 58.4751279,23.8489956 C58.2377689,23.8984769 58.0638566,23.9530769 57.9766173,24.0122269 L54.9628939,26.0409581 C54.8059763,26.1467456 54.7799178,26.2502581 54.8705561,26.3469456 C54.9634604,26.4453394 55.1787263,26.5363394 55.4999258,26.6148269 C55.8267902,26.6938831 56.2612875,26.7592894 56.7824577,26.8053581 C57.3092928,26.8514269 57.9199684,26.8775894 58.5889923,26.8775894 L75.8414258,26.8775894 C76.5110162,26.8775894 77.1216918,26.8514269 77.6485269,26.8053581 C78.1696971,26.7592894 78.6041944,26.6938831 78.9310588,26.6148269 C79.2522582,26.5363394 79.4669577,26.4453394 79.5604285,26.3469456 C79.6510668,26.2502581 79.6250082,26.1467456 79.4675242,26.0409581 L76.4543673,24.0122269 C76.3671279,23.9530769 76.1932157,23.8984769 75.9558566,23.8489956 C75.722463,23.8000831 75.4267556,23.7574269 75.0896944,23.7215956 C74.7565987,23.6863331 74.3815827,23.6578956 73.9833407,23.6385581 C73.5873646,23.6192206 73.1670295,23.6084144 72.7381971,23.6084144" id="Fill-33"></path>
                            <path d="M100.360841,72.6968856 C102.882852,73.9936356 103.00578,74.1176231 103.00578,75.3523794 L103.00578,87.7050606 C103.00578,90.2371356 102.01499,90.9162231 100.542118,90.9162231 L94.0031314,90.9162231 L87.4635782,90.9162231 C85.9907059,90.9162231 84.999916,90.2371356 84.999916,87.7050606 L84.999916,75.3523794 C84.999916,74.1176231 85.1228441,73.9936356 87.6448548,72.6968856 L100.360841,72.6968856 Z" id="Fill-35"></path>
                            <path d="M99.5256096,71.4727081 L88.4802,71.4727081 C88.0513676,71.4727081 87.6310324,71.4835144 87.2350564,71.5028519 C86.8368144,71.5221894 86.4617984,71.5506269 86.1287027,71.5858894 C85.7916415,71.6217206 85.495934,71.6643769 85.2625404,71.7132894 C85.0251814,71.7627706 84.8512691,71.8173706 84.7640298,71.8765206 L81.7503064,73.9052519 C81.5933888,74.0110394 81.5673303,74.1145519 81.6579686,74.2112394 C81.7508729,74.3096331 81.9661388,74.4006331 82.2873383,74.4791206 C82.6142027,74.5581769 83.0487,74.6235831 83.5698702,74.6696519 C84.0967053,74.7157206 84.7073809,74.7418831 85.3764048,74.7418831 L102.628838,74.7418831 C103.298429,74.7418831 103.909104,74.7157206 104.435939,74.6696519 C104.95711,74.6235831 105.391607,74.5581769 105.718471,74.4791206 C106.039671,74.4006331 106.25437,74.3096331 106.347841,74.2112394 C106.438479,74.1145519 106.412421,74.0110394 106.254937,73.9052519 L103.24178,71.8765206 C103.15454,71.8173706 102.980628,71.7627706 102.743269,71.7132894 C102.509876,71.6643769 102.214168,71.6217206 101.877107,71.5858894 C101.544011,71.5506269 101.168995,71.5221894 100.770753,71.5028519 C100.374777,71.4835144 99.954442,71.4727081 99.5256096,71.4727081" id="Fill-37"></path>
                            <path d="M87.3114758,48.7647387 C89.8334864,50.0614887 89.9564146,50.1854762 89.9564146,51.4202325 L89.9564146,63.7729137 C89.9564146,66.3049887 88.9656247,66.9840762 87.4927524,66.9840762 L80.9537657,66.9840762 L74.4142125,66.9840762 C72.9413402,66.9840762 71.9505503,66.3049887 71.9505503,63.7729137 L71.9505503,51.4202325 C71.9505503,50.1854762 72.0734785,50.0614887 74.5954891,48.7647387 L87.3114758,48.7647387 Z" id="Fill-40"></path>
                            <path d="M86.4762439,47.5405613 L75.4308343,47.5405613 C75.0020019,47.5405613 74.5816668,47.5513675 74.1856907,47.570705 C73.7874487,47.5900425 73.4124327,47.61848 73.079337,47.6537425 C72.7422758,47.6895738 72.4465684,47.73223 72.2131747,47.7811425 C71.9758157,47.8306238 71.8019035,47.8852238 71.7146641,47.9443738 L68.7009407,49.973105 C68.5440231,50.0788925 68.5179646,50.182405 68.6086029,50.2790925 C68.7015072,50.3774863 68.9167731,50.4684863 69.2379726,50.5469738 C69.564837,50.62603 69.9993343,50.6914363 70.5205045,50.737505 C71.0473396,50.7835738 71.6580152,50.8097363 72.3270391,50.8097363 L89.5794726,50.8097363 C90.249063,50.8097363 90.8597386,50.7835738 91.3865737,50.737505 C91.9077439,50.6914363 92.3422412,50.62603 92.6691056,50.5469738 C92.9903051,50.4684863 93.2050045,50.3774863 93.2984753,50.2790925 C93.3891136,50.182405 93.3630551,50.0788925 93.205571,49.973105 L90.1924141,47.9443738 C90.1051747,47.8852238 89.9312625,47.8306238 89.6939035,47.7811425 C89.4605098,47.73223 89.1648024,47.6895738 88.8277412,47.6537425 C88.4946455,47.61848 88.1196295,47.5900425 87.7213875,47.570705 C87.3254114,47.5513675 86.9050763,47.5405613 86.4762439,47.5405613" id="Fill-42"></path>
                        </g>
                        <polygon id="Fill-1" fill="#B7DEBF" points="102.75 31.6677744 115.48875 42.9765926 102.75 54.344824 105.4965 57.3914438 121.566 43.0939149 105.4965 28.8550471"></polygon>
                        <g id="Ganeden-Logo" transform="translate(0.000000, 3.008264)">
                            <g id="Group-24" transform="translate(0.000000, 0.523220)">
                                <path d="M54.5876404,10.0510347 C54.6769418,10.0422907 54.7444623,9.98436156 54.7934692,9.8805263 C54.842476,9.77450504 54.842476,9.68487881 54.7945582,9.60946162 C54.7455514,9.53404443 54.6366473,9.45534823 54.4689349,9.37446603 L53.675024,8.99191506 L53.4082089,9.5624625 L54.2021199,9.94501347 C54.3709212,10.0258957 54.4994281,10.0608718 54.5876404,10.0510347" id="Fill-1" fill="#FEFEFE"></path>
                                <path d="M54.7875884,8.92436749 C54.8561979,8.95169256 54.911739,8.9659016 54.9563897,8.9680876 C55.0021295,8.97027361 55.0380678,8.96043658 55.068561,8.93857653 C55.095787,8.91999548 55.121924,8.88392639 55.1447938,8.83583427 C55.1665747,8.78992815 55.175287,8.74730105 55.1741979,8.71123196 C55.1741979,8.71123196 55.1556842,8.64018678 55.1251911,8.60630369 C55.0946979,8.57242061 55.0489582,8.53853752 54.9857938,8.50137543 C54.9226295,8.46530634 54.8409514,8.42377223 54.7418486,8.37568011 L54.1058486,8.06854634 L53.9021979,8.50574744 L54.5371089,8.81178821 C54.6373007,8.85988033 54.7200678,8.89704242 54.7875884,8.92436749" id="Fill-3" fill="#FEFEFE"></path>
                                <path d="M48.3219514,7.40607737 C48.4733281,7.29787009 48.5746089,7.13391968 48.6279719,6.91750513 C48.6802459,6.69890458 48.6660884,6.5065361 48.5811432,6.33930668 C48.4994651,6.17207726 48.3241295,6.05512596 48.0594925,5.98845279 L47.4213144,5.82887439 L47.0608418,7.30880012 L47.6990199,7.46837852 C47.9636568,7.53505169 48.1705747,7.51428464 48.3219514,7.40607737" id="Fill-5" fill="#FEFEFE"></path>
                                <path d="M25.0234418,9.15018186 C25.1029418,9.22013404 25.1922432,9.26822616 25.2891678,9.29773723 C25.3860925,9.32615531 25.4873733,9.33380633 25.5951884,9.32615531 C25.7030034,9.31741128 25.8086404,9.29008621 25.9131884,9.2441801 C26.0188253,9.19827398 26.1113938,9.13815883 26.1908938,9.06492765 C26.2714829,8.99278947 26.3335582,8.91081426 26.3792979,8.82118803 C26.4261267,8.7293758 26.4522637,8.63100555 26.4577089,8.52279828 C26.4620651,8.41677701 26.4413733,8.30638374 26.3934555,8.19380445 C26.3455377,8.08122517 26.2812842,7.98941294 26.2006952,7.91946076 C26.1201062,7.85060159 26.0318938,7.80141646 25.9360582,7.77299839 C25.8380445,7.74458032 25.7356747,7.7358363 25.6289486,7.74458032 C25.5222226,7.75332434 25.4154966,7.78064941 25.3120377,7.82655553 C25.2053116,7.87246164 25.1138322,7.93148379 25.0332432,8.00471498 C24.9537432,8.07794616 24.8905788,8.15882836 24.844839,8.24954759 C24.7969212,8.34135982 24.7718733,8.43973007 24.7675171,8.54684434 C24.7620719,8.65395861 24.7827637,8.76435189 24.8306815,8.87693117 C24.8785993,8.98951046 24.9428527,9.08132269 25.0234418,9.15018186" id="Fill-7" fill="#FEFEFE"></path>
                                <path d="M39.4404945,5.44151421 C39.5929603,5.44042121 39.6964192,5.40872413 39.7519603,5.34970198 C39.8085904,5.29177284 39.8369055,5.22291366 39.8347274,5.14640347 C39.8336384,5.06989328 39.8031452,5.00212711 39.7465151,4.94529096 C39.6887959,4.88845482 39.5831589,4.86222275 39.4306932,4.86331576 L38.5583712,4.8786178 L38.5670836,5.45681625 L39.4404945,5.44151421 Z" id="Fill-9" fill="#FEFEFE"></path>
                                <g id="Group-13">
                                    <mask id="mask-2" fill="white">
                                        <use xlink:href="#path-1"></use>
                                    </mask>
                                    <g id="Clip-12"></g>
                                    <path d="M39.5197767,0.570000937 C17.692126,0.570000937 -0.000435616438,18.5488033 -0.000435616438,40.7269221 C-0.000435616438,62.902855 17.692126,80.8827504 39.5197767,80.8827504 C61.3452493,80.8827504 79.037811,62.902855 79.037811,40.7269221 C79.037811,18.5488033 61.3452493,0.570000937 39.5197767,0.570000937 L39.5197767,0.570000937 Z M56.6133658,11.8344873 C56.672174,11.8639984 56.7135575,11.8749284 56.7331603,11.8694634 C56.7560301,11.8650914 56.7723658,11.8530684 56.7854342,11.8323013 L57.2678795,11.0453393 L57.1796671,9.29106992 C57.1731329,9.19160667 57.1687767,9.12930551 57.1655096,9.10416645 C57.1600644,9.07902738 57.1469959,9.05935333 57.1273932,9.0451443 L57.1600644,8.99268017 L58.1260438,9.60476171 L58.0944616,9.65831884 C58.0683247,9.6419238 58.0410986,9.62990077 58.0127836,9.62006375 C57.9877356,9.61131972 57.9659548,9.61897074 57.9507082,9.6419238 C57.944174,9.65503983 57.9419959,9.70203895 57.9430849,9.78620017 C57.944174,9.87036138 57.9474411,9.96654562 57.9507082,10.0769389 C57.9550644,10.1873322 57.9594205,10.2988185 57.9659548,10.4157698 C57.972489,10.530535 57.9757562,10.6278123 57.9768452,10.7076015 C57.9953589,10.6977645 58.0312973,10.6813694 58.0846603,10.6606024 C58.1380233,10.6387423 58.2011877,10.6136033 58.2697973,10.5819062 C58.3394959,10.5534881 58.4146397,10.520698 58.4930507,10.4879079 C58.5714616,10.4551179 58.6444274,10.4256068 58.7086808,10.3950027 C58.7740233,10.3665846 58.8284753,10.3403526 58.8753041,10.3173995 C58.9210438,10.2955394 58.9460918,10.2813304 58.9493589,10.2758654 C58.9646055,10.2507263 58.9635164,10.2299593 58.9439137,10.2091922 C58.926489,10.1895182 58.9057973,10.1731231 58.8872836,10.1600071 L58.9188658,10.107543 L59.7541603,10.6354633 L59.7204,10.6901134 C59.6975301,10.6748114 59.6724822,10.6715324 59.6463452,10.6769974 C59.6212973,10.6824624 59.5940712,10.6912064 59.5668452,10.7032295 L57.9801123,11.3787052 L57.4453932,12.2498284 C57.4323247,12.2705954 57.4279685,12.2924555 57.4345027,12.3132225 C57.4388589,12.3361756 57.467174,12.3667797 57.5194479,12.4083138 L57.4867767,12.4618709 L56.5796055,11.8869515 L56.6133658,11.8344873 Z M52.3661055,9.60694771 C52.4281808,9.62880777 52.4706534,9.63645879 52.4902562,9.62880777 C52.5109479,9.62006375 52.5261945,9.60585471 52.5370849,9.58508766 L53.5705849,7.36957107 C53.5814753,7.34661802 53.5825644,7.32475796 53.5749411,7.30399091 C53.5684068,7.28322386 53.5357356,7.25480579 53.4801945,7.2198297 L53.5074205,7.16299355 L55.2890918,8.02209372 C55.4175986,8.08439488 55.5275918,8.15325405 55.6223384,8.22867124 C55.7170849,8.30627444 55.7911397,8.38824964 55.8445027,8.47896887 C55.8978658,8.5685951 55.9261808,8.66696534 55.931626,8.77080061 C55.9359822,8.87682187 55.9109342,8.98721515 55.8564822,9.10525945 C55.7889616,9.2462568 55.6942151,9.34134804 55.5689753,9.38834716 C55.4437356,9.43534628 55.3097836,9.44081129 55.1649411,9.40583521 L55.1605849,9.41567223 C55.2988932,9.53699554 55.3969068,9.66706287 55.4557151,9.80915322 C55.5145233,9.95015058 55.5014548,10.108636 55.4186877,10.2867954 C55.375126,10.3818867 55.3141397,10.4627689 55.2389959,10.531628 C55.162763,10.5993942 55.0723726,10.6463933 54.9656466,10.6737184 C54.8600096,10.6999505 54.738037,10.7032295 54.6008178,10.6835554 C54.4625096,10.6627884 54.3111329,10.6136033 54.1445096,10.533814 L52.3388795,9.66378386 L52.3661055,9.60694771 Z M46.0344205,7.62642672 C46.099763,7.63407774 46.1433247,7.63407774 46.1607493,7.62205471 C46.1803521,7.61112468 46.1912425,7.59363664 46.1977767,7.56959058 L46.7782356,5.18793758 C46.7836808,5.16389152 46.7804137,5.14312446 46.7695233,5.12345041 C46.7586329,5.10377636 46.7216055,5.08300931 46.6584411,5.06005625 L46.6736877,4.9999411 L48.3420986,5.41856116 C48.5740644,5.4764903 48.7657356,5.56065152 48.9203795,5.6721378 C49.0739342,5.78362408 49.1915507,5.9136914 49.2732288,6.06124678 C49.3538178,6.21098815 49.4017356,6.37493857 49.4169822,6.55091201 C49.4333178,6.72907146 49.4169822,6.91269592 49.3712425,7.1039714 C49.3287699,7.27775884 49.2590712,7.43843025 49.1610575,7.58489262 C49.0630438,7.73135499 48.9388932,7.85377129 48.7896945,7.94776953 C48.6404959,8.04176777 48.4695164,8.10406893 48.2756671,8.13576601 C48.0807288,8.16637008 47.8672767,8.15106804 47.6320438,8.0920459 L46.020263,7.68763488 L46.0344205,7.62642672 Z M42.0049685,7.0635303 C42.0714,7.0635303 42.1127836,7.05697229 42.1302082,7.04276325 C42.1487219,7.02964722 42.1574342,7.00997317 42.1596123,6.98592711 L42.4405849,4.55071697 C42.4449411,4.52557791 42.4384068,4.50481085 42.4253384,4.48622981 C42.4111808,4.46874176 42.3719753,4.45234672 42.3077219,4.43813769 L42.3153452,4.37583653 L44.8822151,4.6807843 C44.9094411,4.68406331 44.9312219,4.67750529 44.9464685,4.66001725 C44.9628041,4.6425292 44.9780507,4.6042741 44.9911192,4.54525196 L45.0531945,4.55290298 L44.9486466,5.46228127 L44.8865712,5.45572325 C44.8865712,5.3956081 44.880037,5.355167 44.8702356,5.33330694 C44.8571671,5.31253989 44.8386534,5.30160986 44.8114274,5.29723785 L43.1593521,5.10159036 L43.1092562,5.53551245 L44.0665233,5.64918474 C44.1187973,5.65574275 44.1558247,5.64809174 44.1808726,5.62951069 C44.2059205,5.60874364 44.2233452,5.58141857 44.2342356,5.54753548 L44.296311,5.5551865 L44.2015644,6.37165956 L44.1405781,6.36400854 C44.1384,6.32903245 44.1253315,6.29842837 44.1068178,6.27219631 C44.0872151,6.24705725 44.0512767,6.23175521 44.0000918,6.22519719 L43.0428247,6.1115249 L42.9872836,6.59681813 L44.6382699,6.79246562 C44.6665849,6.79683763 44.6883658,6.78918661 44.7036123,6.77279157 C44.7199479,6.75421052 44.7351945,6.71267642 44.7493521,6.64818926 L44.8114274,6.65474727 L44.7079685,7.54991653 L44.6458932,7.54226551 C44.6448041,7.49526639 44.6371808,7.46575532 44.6252014,7.45373229 C44.6132219,7.44170926 44.5925301,7.43405824 44.5653041,7.43077923 L41.9984342,7.12583146 L42.0049685,7.0635303 Z M39.5241329,4.27418727 C39.9074753,4.26762926 40.1873589,4.33320942 40.3616055,4.47311377 C40.5369411,4.61301813 40.6273315,4.83161868 40.6316877,5.12891543 C40.6360438,5.37156204 40.5685233,5.56174452 40.4313041,5.70055587 C40.2940849,5.84046022 40.1176603,5.94101647 39.9052973,6.00441063 L40.5293178,6.86788281 C40.5728795,6.93018397 40.6229753,6.96078804 40.6806945,6.95969504 L40.6817836,7.0230892 L39.6047219,7.04057725 L39.6036329,6.97718309 C39.6787767,6.97281107 39.7168932,6.94111399 39.7158041,6.88099884 C39.7158041,6.88099884 39.7016466,6.84930176 39.6722425,6.80776766 C39.6439274,6.76623355 39.6090781,6.71595543 39.5666055,6.65584028 C39.5230438,6.59791113 39.4773041,6.53451697 39.4261192,6.4667508 C39.3749342,6.39898463 39.3259274,6.33449747 39.2780096,6.27110331 C39.2300918,6.20880215 39.1887082,6.15305901 39.1538589,6.10496689 C39.1179205,6.05578176 39.0950507,6.02408468 39.0841603,6.00659664 L38.5755781,6.01315466 L38.5897356,6.89957989 C38.5897356,6.92362595 38.5984479,6.944393 38.6136945,6.95969504 C38.6311192,6.97499708 38.6714137,6.98592711 38.7367562,6.99248512 L38.7378452,7.05478628 L37.6705849,7.07227433 L37.6705849,7.00997317 C37.7359274,7.00122915 37.7762219,6.98920612 37.7925575,6.97390408 C37.8067151,6.95750904 37.8143384,6.93783499 37.8143384,6.93783499 L37.7751329,4.45999774 C37.7740438,4.43595168 37.7675096,4.41627763 37.7500849,4.39988259 C37.7348384,4.38458055 37.6934548,4.37365052 37.6281123,4.36818551 L37.6281123,4.30479135 L39.5241329,4.27418727 Z M35.8213932,4.43048667 C35.8486192,4.42611466 35.8682219,4.41409163 35.8802014,4.39332457 C35.8900027,4.37255752 35.8954479,4.33102342 35.8954479,4.27090826 L35.9553452,4.26325725 L36.0751397,5.17263554 L36.0130644,5.18137956 C35.9989068,5.12235741 35.9836603,5.08410231 35.9673247,5.06661427 C35.950989,5.05021923 35.9302973,5.04366121 35.9019822,5.04694022 L34.254263,5.26991278 L34.3108932,5.70164887 L35.2659822,5.57267455 C35.3171671,5.56611653 35.3520164,5.54972149 35.3716192,5.52348942 C35.3901329,5.49725736 35.4010233,5.46665328 35.4042904,5.43167719 L35.4652767,5.42293317 L35.5720027,6.23722022 L35.5099274,6.24377824 C35.4979479,6.21098815 35.4816123,6.18475609 35.4554753,6.16398904 C35.4304274,6.14540799 35.3912219,6.13884997 35.341126,6.14540799 L34.386037,6.27438231 L34.4492014,6.75967554 L36.0969205,6.53670298 C36.1252356,6.53451697 36.1437493,6.52140094 36.1546397,6.50063388 C36.1655301,6.47986683 36.1709753,6.43614672 36.1687973,6.36838055 L36.2297836,6.36072953 L36.3474,7.25480579 L36.2864137,7.2624568 C36.2744342,7.21764369 36.2591877,7.19141163 36.2439411,7.1826676 C36.2297836,7.17392358 36.2069137,7.17064457 36.1807767,7.17610959 L33.618263,7.52149846 L33.6095507,7.4591973 C33.6727151,7.44389526 33.7119205,7.42531421 33.7260781,7.40782617 C33.7380575,7.39033813 33.7435027,7.37066408 33.7402356,7.34552501 L33.4222356,4.91359388 C33.4200575,4.88954782 33.4080781,4.87096678 33.3917425,4.85566474 C33.3732288,4.84254871 33.3318452,4.83708369 33.2665027,4.8392697 L33.2577904,4.77587554 L35.8213932,4.43048667 Z M28.4366055,5.96287653 L28.4540301,6.02299168 C28.4257151,6.03829372 28.4028452,6.05250275 28.3843315,6.06671179 C28.3679959,6.08092083 28.3614616,6.10059488 28.3690849,6.12791994 C28.3723521,6.13884997 28.3908658,6.17164006 28.4257151,6.22629019 C28.4605644,6.28312634 28.5063041,6.35417152 28.5618452,6.43942573 C28.6173863,6.52686595 28.6783726,6.62086419 28.7458932,6.72360645 C28.8134137,6.82744171 28.8809342,6.93018397 28.9473658,7.03292623 C29.0148863,7.13566848 29.0791397,7.23294573 29.1368589,7.32585096 C29.1967562,7.4187562 29.245763,7.49635939 29.2838795,7.55866055 L29.2936808,7.55538154 C29.2969479,7.48542937 29.299126,7.39689614 29.3013041,7.28759587 C29.3056603,7.1804816 29.3089274,7.06462331 29.3132836,6.94111399 C29.3165507,6.81869769 29.3209068,6.69518837 29.325263,6.57058606 C29.3285301,6.44489074 29.3317973,6.33121846 29.3339753,6.2284762 C29.3372425,6.12573394 29.3383315,6.04157273 29.3383315,5.97489956 C29.3383315,5.90713339 29.3361534,5.86887829 29.3361534,5.86887829 C29.325263,5.8306232 29.3089274,5.81641416 29.2817014,5.81532116 C29.2533863,5.81313515 29.2294274,5.81313515 29.2076466,5.81204215 L29.191311,5.75083399 L30.3794548,5.41746815 L30.3957904,5.47867631 C30.3740096,5.49179234 30.3565849,5.50490837 30.3424274,5.51911741 C30.3282699,5.53223344 30.3250027,5.55081449 30.331537,5.57923256 C30.332626,5.58251157 30.3500507,5.61311565 30.383811,5.6732308 C30.4186603,5.73334595 30.4622219,5.80767014 30.5144959,5.89838937 C30.5678589,5.9891086 30.6277562,6.08857185 30.6941877,6.20005813 C30.7595301,6.3104514 30.8226945,6.41975168 30.8836808,6.52358694 C30.9446671,6.6274222 31.0012973,6.72688545 31.0546603,6.81651168 C31.1080233,6.90723091 31.1483178,6.97718309 31.1766329,7.02855421 L31.1875233,7.02527521 C31.1853452,6.9826481 31.1875233,6.91269592 31.1907904,6.81323267 C31.1940575,6.71595543 31.1995027,6.60665515 31.206037,6.48423884 C31.2125712,6.36291554 31.2180164,6.23722022 31.2245507,6.10605989 C31.2299959,5.97599256 31.2365301,5.85466926 31.2419753,5.74427598 C31.2474205,5.6327897 31.2517767,5.53879146 31.2539548,5.46228127 C31.2561329,5.38467807 31.2561329,5.34095796 31.2528658,5.33112094 C31.2441534,5.30160986 31.2278178,5.28302882 31.2038589,5.27974981 C31.1799,5.2753778 31.152674,5.27428479 31.1254479,5.2753778 L31.1080233,5.21307664 L31.9465849,4.97917405 L31.9640096,5.0392892 C31.9389616,5.05021923 31.921537,5.06552127 31.9139137,5.08628832 C31.9073795,5.10596237 31.9041123,5.13110143 31.9041123,5.1595195 C31.9041123,5.1595195 31.9030233,5.21635565 31.8986671,5.29505185 C31.896489,5.37484105 31.8899548,5.4743043 31.8834205,5.5945346 C31.8757973,5.7147649 31.869263,5.85139025 31.8605507,6.00441063 C31.8518384,6.15743102 31.842037,6.31373041 31.8300575,6.47112281 C31.8202562,6.62851521 31.8104548,6.7837216 31.8039205,6.93455598 C31.7962973,7.08429736 31.788674,7.2220157 31.7832288,7.34224601 C31.7756055,7.46247631 31.7712493,7.55975355 31.7679822,7.63407774 C31.7647151,7.70949493 31.7647151,7.75102904 31.7658041,7.75758705 C31.7745164,7.78819113 31.789763,7.80349317 31.8137219,7.80458617 C31.8376808,7.80567917 31.8616397,7.80458617 31.8855986,7.80021416 L31.9030233,7.86251532 L30.862989,8.15325405 L30.8466534,8.0920459 C30.9109068,8.06253482 30.9381329,8.02974474 30.9272425,7.99367565 C30.9163521,7.95214154 30.8771466,7.87344534 30.808537,7.75540105 C30.7421055,7.63844975 30.6615164,7.50182441 30.5667699,7.34661802 C30.4731123,7.19031862 30.3718315,7.02527521 30.2651055,6.84930176 C30.1583795,6.67332832 30.0581877,6.5082849 29.9677973,6.35198551 L29.9558178,6.35417152 C29.9569068,6.51484292 29.9536397,6.70065339 29.9460164,6.91160292 C29.9394822,7.12364545 29.9318589,7.32585096 29.9231466,7.52040545 C29.9155233,7.71605295 29.9100781,7.88437537 29.9057219,8.02865174 C29.9024548,8.17074209 29.9024548,8.25490331 29.908989,8.27785636 C29.9220575,8.32485548 29.9645301,8.33797152 30.0385849,8.31829747 L30.0538315,8.37950562 L28.9767699,8.68117438 L28.9593452,8.62105923 C28.9843932,8.60685019 29.006174,8.59264116 29.0225096,8.57843212 C29.0410233,8.56422309 29.0464685,8.54017702 29.0366671,8.50520094 C29.0366671,8.50520094 29.0137973,8.46585284 28.9724137,8.40355168 C28.9332082,8.34125052 28.8809342,8.26146132 28.8134137,8.16199807 C28.7480712,8.06253482 28.6729274,7.94886253 28.5890712,7.82098121 C28.5073932,7.69309989 28.4213589,7.56303256 28.3342356,7.43187223 C28.2460233,7.2996189 28.1589,7.16955157 28.0750438,7.03948424 C27.9890096,6.91160292 27.9127767,6.79574463 27.8463452,6.69300237 C27.7777356,6.58916711 27.7221945,6.50391289 27.6797219,6.43614672 C27.6350712,6.36838055 27.6111123,6.32903245 27.6056671,6.32028843 C27.5860644,6.28640534 27.5631945,6.27110331 27.5403247,6.27875433 L27.5229,6.21754617 L28.4366055,5.96287653 Z M24.157763,8.02537273 C24.2470644,7.8570503 24.3679479,7.70512292 24.5225918,7.57068358 C24.6794137,7.43515124 24.8580164,7.32366496 25.0605781,7.23403873 C25.2642288,7.14550551 25.4667904,7.08976237 25.6704411,7.06680931 C25.8730027,7.04604226 26.065763,7.06025129 26.2465438,7.11052942 C26.4284137,7.16080755 26.5928589,7.24934077 26.7398795,7.37612909 C26.887989,7.50182441 27.0066945,7.67233284 27.0959959,7.88437537 C27.1874753,8.09751091 27.2255918,8.30190242 27.2157904,8.49645691 C27.2049,8.69319741 27.1548041,8.87463587 27.0665918,9.04295829 C26.9783795,9.21237372 26.8553178,9.3621151 26.6974068,9.49218242 C26.541674,9.62115675 26.3608932,9.73045702 26.1572425,9.82008325 C25.9535918,9.90970948 25.7521192,9.96763862 25.5506466,9.99496369 C25.350263,10.0211958 25.1585918,10.0091727 24.977811,9.9578016 C24.7959411,9.90752347 24.6314959,9.82008325 24.4833863,9.69329493 C24.3374548,9.56650661 24.2176603,9.39709118 24.1272699,9.18395565 C24.0368795,8.97191311 23.997674,8.7675216 24.0085644,8.5718741 C24.0194548,8.37731961 24.0695507,8.19478815 24.157763,8.02537273 L24.157763,8.02537273 Z M21.4907014,9.07356237 C21.6300986,8.99049416 21.7651397,8.93693702 21.8958247,8.91398397 C22.0275986,8.88993791 22.1473932,8.89103091 22.2606534,8.91835598 C22.3717356,8.94458804 22.4719274,8.99268017 22.5612288,9.06372534 C22.6505301,9.13477052 22.7245849,9.22002474 22.7823041,9.31948799 C22.8400233,9.42004424 22.8781397,9.52606551 22.8955644,9.63864479 C22.9140781,9.75341008 22.9064548,9.86598937 22.8748726,9.97528964 C22.8432904,10.0878689 22.7844822,10.1949832 22.7017151,10.2999115 C22.6178589,10.4059327 22.5056877,10.498838 22.3673795,10.5829992 L21.5625781,11.0661064 L21.9916603,11.8038833 C22.0036397,11.8246503 22.0199753,11.8388593 22.0428452,11.8432313 C22.063537,11.8497894 22.1038315,11.8388593 22.1626397,11.8104413 L22.195311,11.8650914 L21.2783384,12.4148718 L21.2467562,12.3613147 C21.3001192,12.3208736 21.3284342,12.2902695 21.3338795,12.2684094 C21.3404137,12.2476424 21.3360575,12.2257823 21.3240781,12.2039223 L20.0978178,10.0933339 C20.0836603,10.0725669 20.0673247,10.0594509 20.0466329,10.0539858 C20.0259411,10.0485208 19.9856466,10.0594509 19.9246603,10.0878689 L19.8930781,10.0321258 L21.4907014,9.07356237 Z M61.5020712,59.9069345 C51.2585507,72.3059577 33.0639411,73.9203228 20.8612356,63.5138436 C8.65853014,53.1062713 7.06961918,34.6170367 17.3120507,22.2180135 C27.5533932,9.81789725 45.7490918,8.20243917 57.9517973,18.6111044 C70.1545027,29.0186766 71.7434137,47.5068182 61.5020712,59.9069345 L61.5020712,59.9069345 Z" id="Fill-11" fill="#FEFEFE" mask="url(#mask-2)"></path>
                                </g>
                                <path d="M21.9605137,10.1769487 C22.0868425,10.1026245 22.1652534,10.0261143 22.1990137,9.94851107 C22.232774,9.87200088 22.2218836,9.78346766 22.1652534,9.68837642 C22.1140685,9.5998432 22.047637,9.55393708 21.9670479,9.54956507 C21.8864589,9.54519306 21.783,9.58016915 21.6588493,9.65558634 L20.9803767,10.0632764 L21.2820411,10.5857317 L21.9605137,10.1769487 Z" id="Fill-14" fill="#FEFEFE"></path>
                                <path d="M19.447987,54.2380757 L21.4605349,54.2380757 C22.5855144,54.2380757 23.5188226,54.6031386 23.5188226,55.9092769 C23.5188226,57.2001132 22.6530349,57.5979662 21.5138979,57.5979662 L20.641576,57.5979662 L20.641576,59.7435306 L19.447987,59.7435306 L19.447987,54.2380757 Z M20.641576,56.5705436 L21.436576,56.5705436 C21.8580349,56.5705436 22.2784048,56.4229882 22.2784048,55.9092769 C22.2784048,55.3420085 21.7131925,55.2644053 21.2536171,55.2644053 L20.641576,55.2644053 L20.641576,56.5705436 Z" id="Fill-16" fill="#FEFEFE"></path>
                                <path d="M24.2684096,54.2380757 L26.3637247,54.2380757 C27.4734575,54.2380757 28.4078548,54.6271847 28.4078548,55.9092769 C28.4078548,56.6798439 28.0027315,57.2788094 27.2371356,57.4187137 L28.6147726,59.7435306 L27.1837726,59.7435306 L26.0511699,57.543316 L25.4619986,57.543316 L25.4619986,59.7435306 L24.2684096,59.7435306 L24.2684096,54.2380757 Z M25.4619986,56.5158934 L26.1666082,56.5158934 C26.6022247,56.5158934 27.167437,56.5016844 27.167437,55.9027189 C27.167437,55.3507525 26.6784575,55.2644053 26.2417521,55.2644053 L25.4619986,55.2644053 L25.4619986,56.5158934 Z" id="Fill-18" fill="#FEFEFE"></path>
                                <path d="M31.8592438,54.0988272 C33.5505247,54.0988272 34.7822301,55.225713 34.7822301,56.9909124 C34.7822301,58.7561119 33.5505247,59.8829977 31.8592438,59.8829977 C30.166874,59.8829977 28.9351685,58.7561119 28.9351685,56.9909124 C28.9351685,55.225713 30.166874,54.0988272 31.8592438,54.0988272 M31.8592438,58.7637629 C32.8764082,58.7637629 33.5429014,58.017242 33.5429014,56.9909124 C33.5429014,55.9645829 32.8764082,55.216969 31.8592438,55.216969 C30.8409904,55.216969 30.1755863,55.9645829 30.1755863,56.9909124 C30.1755863,58.017242 30.8409904,58.7637629 31.8592438,58.7637629" id="Fill-20" fill="#FEFEFE"></path>
                                <path d="M35.593239,54.2380757 L37.6134103,54.2380757 C38.5630541,54.2380757 39.5954651,54.4402812 39.5954651,55.6382122 C39.5954651,56.2524798 39.2208349,56.6721928 38.6610678,56.8514453 L38.6610678,56.8667473 C39.3733007,56.9596526 39.8481226,57.4963169 39.8481226,58.2122337 C39.8481226,59.3631656 38.7765062,59.7435306 37.8127048,59.7435306 L35.593239,59.7435306 L35.593239,54.2380757 Z M36.7868281,56.4393833 L37.6515267,56.4393833 C38.0196226,56.4393833 38.401876,56.2830839 38.401876,55.8404177 C38.401876,55.3813566 37.9738829,55.2644053 37.5981637,55.2644053 L36.7868281,55.2644053 L36.7868281,56.4393833 Z M36.7868281,58.717201 L37.8584445,58.717201 C38.2330747,58.717201 38.6534445,58.5532506 38.6534445,58.0723294 C38.6534445,57.5509671 38.0806089,57.4657128 37.6896432,57.4657128 L36.7868281,57.4657128 L36.7868281,58.717201 Z" id="Fill-22" fill="#FEFEFE"></path>
                            </g>
                            <polygon id="Fill-25" fill="#FEFEFE" points="40.5362877 60.266751 41.7309658 60.266751 41.7309658 54.7612961 40.5362877 54.7612961"></polygon>
                            <path d="M45.4488432,54.6220476 C47.140124,54.6220476 48.3718295,55.7489334 48.3718295,57.5141329 C48.3718295,59.2793323 47.140124,60.4062181 45.4488432,60.4062181 C43.7575623,60.4062181 42.5258568,59.2793323 42.5258568,57.5141329 C42.5258568,55.7489334 43.7575623,54.6220476 45.4488432,54.6220476 M45.4488432,59.2869833 C46.4670966,59.2869833 47.1325007,58.5404624 47.1325007,57.5141329 C47.1325007,56.4878033 46.4670966,55.7401894 45.4488432,55.7401894 C44.4316788,55.7401894 43.7662747,56.4878033 43.7662747,57.5141329 C43.7662747,58.5404624 44.4316788,59.2869833 45.4488432,59.2869833" id="Fill-26" fill="#FEFEFE"></path>
                            <polygon id="Fill-28" fill="#FEFEFE" points="50.231476 55.8346248 48.6850377 55.8346248 48.6850377 54.7612961 52.9715034 54.7612961 52.9715034 55.8346248 51.4250651 55.8346248 51.4250651 60.266751 50.231476 60.266751"></polygon>
                            <polygon id="Fill-29" fill="#FEFEFE" points="53.5601301 60.266751 54.7537192 60.266751 54.7537192 54.7612961 53.5601301 54.7612961"></polygon>
                            <g id="Group-56" transform="translate(19.285543, 16.918262)" fill="#FEFEFE">
                                <path d="M40.0980163,39.2733378 C39.8606053,38.9858781 39.5164684,38.8219276 39.0721396,38.8219276 C38.1693245,38.8219276 37.5039204,39.5695415 37.5039204,40.5947781 C37.5039204,41.6222007 38.1693245,42.3687216 39.0340231,42.3687216 C39.5164684,42.3687216 39.9063451,42.151214 40.1513793,41.7785001 L41.1456738,42.531579 C40.6948108,43.1862876 39.930304,43.4879564 39.1875779,43.4879564 C37.4962971,43.4879564 36.2635026,42.3610706 36.2635026,40.5947781 C36.2635026,38.8306717 37.4962971,37.7037858 39.1875779,37.7037858 C39.7919958,37.7037858 40.5565026,37.9125494 41.0160779,38.5115149 L40.0980163,39.2733378 Z" id="Fill-30"></path>
                                <path d="M31.1580779,18.2922755 L31.8409067,18.2922755 C32.6075916,18.2922755 33.4298177,18.1228601 33.4298177,17.1741337 C33.4298177,16.5653312 32.8863862,16.124851 32.2035574,16.124851 C31.5479547,16.124851 31.1025368,16.5358201 30.9762081,17.0604614 L28.6772423,16.5795402 C29.1085026,14.8372938 30.5177218,14.1705621 32.1893999,14.1705621 C33.9460231,14.1705621 35.5207766,15.0351273 35.5207766,16.9620912 C35.5207766,18.0660239 34.921804,18.9294961 33.8338519,19.1568407 L33.8338519,19.1994678 C35.0187286,19.3546742 35.6884889,20.3755388 35.6884889,21.5374007 C35.6884889,23.5485258 34.0712629,24.5387862 32.1338588,24.5387862 C30.3783245,24.5387862 28.9974204,23.7463593 28.5922971,21.9472767 L30.7954273,21.4226354 C30.9348245,22.1319942 31.3660848,22.5844973 32.2580094,22.5844973 C33.1651807,22.5844973 33.596441,22.04674 33.596441,21.2958471 C33.596441,20.1624032 32.5792766,20.1339851 31.6459684,20.1339851 L31.1580779,20.1339851 L31.1580779,18.2922755 Z" id="Fill-32"></path>
                                <path d="M39.9683115,14.1711086 C42.895654,14.1711086 43.6340238,16.9757537 43.6340238,19.3552207 C43.6340238,21.7346877 42.895654,24.5393327 39.9683115,24.5393327 C37.040969,24.5393327 36.3015101,21.7346877 36.3015101,19.3552207 C36.3015101,16.9757537 37.040969,14.1711086 39.9683115,14.1711086 M39.9683115,22.5850438 C41.4733663,22.5850438 41.5430649,20.4034103 41.5430649,19.3552207 C41.5430649,18.307031 41.4733663,16.1253975 39.9683115,16.1253975 C38.4632567,16.1253975 38.392469,18.307031 38.392469,19.3552207 C38.392469,20.4034103 38.4632567,22.5850438 39.9683115,22.5850438" id="Fill-34"></path>
                                <path d="M36.5368519,25.5078425 C34.9544752,27.5605017 33.1020163,28.4502059 31.1820368,28.4502059 C26.2650163,28.4502059 22.9989821,24.6181382 22.9989821,19.4504212 C22.9989821,14.6248141 26.2650163,10.7938394 31.1820368,10.7938394 C32.8330231,10.7938394 34.4491601,11.3064577 36.2003382,13.1886084 L39.5001327,10.7260732 C37.1434478,7.95421825 34.3816396,6.89291257 31.1493656,6.89291257 C25.779304,6.89291257 21.5287766,9.60465241 19.632756,14.0990797 C19.0424958,9.75002177 15.0282903,8.06461153 11.1120985,8.06461153 L0.178125888,8.06461153 L0.178125888,36.5657514 L10.2800711,36.5657514 C15.5891464,36.5657514 20.8982218,34.6344155 20.8982218,28.4338109 C20.8982218,28.0654689 20.8709958,27.706964 20.8208999,27.3572032 C23.0338314,30.4963071 26.707167,32.3511327 31.1493656,32.3511327 C34.6506327,32.3511327 37.8829067,31.0515525 40.0392081,28.0392369 L36.5368519,25.5078425 Z M5.16920123,12.4125765 L9.2890437,12.4125765 C13.0538588,12.4125765 14.7179136,13.6192515 14.7179136,16.0741357 C14.7179136,18.2087701 13.0538588,19.6569987 9.72574918,19.6569987 L5.16920123,19.6569987 L5.16920123,12.4125765 Z M9.76495465,32.2188794 L5.16920123,32.2188794 L5.16920123,24.0060567 L9.96316013,24.0060567 C14.0045916,24.0060567 15.9060574,25.0531533 15.9060574,28.0315859 C15.9060574,31.7762133 12.3405368,32.2188794 9.76495465,32.2188794 L9.76495465,32.2188794 Z M14.836619,21.5500795 L14.836619,21.4691973 C16.4091944,20.9882761 17.7116875,20.135734 18.573119,18.9421749 C18.5622286,19.2001236 18.5546053,19.4613513 18.5546053,19.7247649 C18.5546053,21.1216224 18.7342971,22.4332257 19.0729889,23.6442728 C18.0068177,22.5020849 16.5377012,21.744634 14.836619,21.5500795 L14.836619,21.5500795 Z" id="Fill-36"></path>
                                <path d="M10.5376293,0.525734325 L10.3884307,0.525734325 C10.3089307,0.589128485 10.2697252,0.605523526 10.1989375,0.605523526 C10.1444855,0.605523526 10.104191,0.597872507 9.85153342,0.533385344 C9.40938274,0.429550083 8.92040329,0.36506292 8.52617041,0.36506292 C7.79215671,0.36506292 7.17684849,0.566175427 6.64866356,0.973865455 C5.87435534,1.58266799 5.37012931,2.64178766 5.37012931,3.66811725 C5.37012931,5.02344066 6.3872937,5.92188893 7.91086219,5.92188893 C8.19401287,5.92188893 8.48696493,5.88909884 8.77882794,5.82570468 C9.22860192,5.74482248 9.45730055,5.66503328 9.99310876,5.41692165 L10.4352594,3.11505785 L8.80169781,3.11505785 L8.77882794,3.25933421 C8.99228,3.2921243 9.07831424,3.38721554 9.07831424,3.59707207 C9.07831424,3.66046623 9.05435534,3.79709157 9.02277315,3.96432099 L8.88773205,4.66274975 C8.58933479,4.85511824 8.27351287,4.94365146 7.88690329,4.94365146 C7.09734849,4.94365146 6.60945808,4.42994017 6.60945808,3.60363008 C6.60945808,3.08226777 6.81419781,2.47346523 7.15288959,2.04063614 C7.49920465,1.59141201 8.01323205,1.3509514 8.64378685,1.3509514 C9.26018411,1.3509514 9.75678685,1.52801785 10.1444855,1.87340672 L10.2697252,1.87340672 L10.5376293,0.525734325 Z" id="Fill-38"></path>
                                <path d="M13.8328499,2.32525406 L13.7010759,2.76792018 C13.4832677,2.40613626 13.1129937,2.22906982 12.5760964,2.22906982 C11.3912197,2.22906982 10.5047403,3.15921516 10.5047403,4.39977329 C10.5047403,5.34412767 11.0492608,5.9135821 11.9357403,5.9135821 C12.1317677,5.9135821 12.2559184,5.89937307 12.6044115,5.8316069 L13.0334937,4.93097263 L12.9245896,4.86429946 C12.7721238,4.9976458 12.5532266,5.07087698 12.3147266,5.07087698 C11.8845553,5.07087698 11.5948704,4.75390618 11.5948704,4.28828701 C11.5948704,4.04454739 11.6885279,3.74287863 11.848617,3.50679004 C12.0522677,3.20293527 12.2918567,3.07068194 12.6555964,3.07068194 C13.1413088,3.07068194 13.4331718,3.36579268 13.4331718,3.85327191 C13.4331718,3.89699202 13.4255485,3.94836315 13.4179252,3.99317626 C13.4103019,4.03033836 13.3961444,4.1265226 13.3678293,4.28172899 L13.2589252,4.8424394 C13.2153636,5.05776095 13.1935827,5.27089648 13.1935827,5.38128976 C13.1935827,5.49277604 13.200117,5.55835621 13.2589252,5.77258475 C13.2654594,5.80974684 13.280706,5.84690894 13.2948636,5.9135821 L14.6605211,5.62502938 L14.6605211,5.49933406 C14.4002403,5.49277604 14.3054937,5.38894078 14.3054937,5.10148106 C14.3054937,5.01185483 14.3120279,4.93097263 14.3338088,4.8424394 L14.4002403,4.47956249 L14.8129868,2.32525406 L13.8328499,2.32525406 Z" id="Fill-40"></path>
                                <path d="M15.0655355,5.81674206 L16.1480423,5.81674206 L16.4170355,4.42862856 C16.4823779,4.08323969 16.562967,3.80124498 16.6642478,3.6099695 C16.8101793,3.32906779 17.1009533,3.13669931 17.3906382,3.13669931 C17.6672547,3.13669931 17.834967,3.29955672 17.834967,3.55750537 C17.834967,3.64603859 17.8120971,3.77938493 17.7903163,3.9269403 L17.5942889,4.94561887 C17.543104,5.18170746 17.5289464,5.29975176 17.5289464,5.42544707 C17.5289464,5.55879341 17.543104,5.63967561 17.6160697,5.9129263 L19.0111314,5.62546658 L19.0111314,5.49867826 C18.7573848,5.49867826 18.6626382,5.395936 18.6626382,5.12268531 C18.6626382,5.02650107 18.6702615,4.93796785 18.684419,4.8417836 L18.7508505,4.47999969 L18.8880697,3.73566482 C18.9316314,3.52034327 18.9534122,3.33671881 18.9534122,3.18151242 C18.9534122,2.59784895 18.5167067,2.22841402 17.8415012,2.22841402 C17.3394533,2.22841402 16.933241,2.40657347 16.6206862,2.77491539 C16.6130629,2.51587374 16.5912821,2.36941137 16.5259396,2.19890294 L15.2180012,2.52461776 L15.211467,2.63501104 L15.2408711,2.63501104 C15.4793711,2.63501104 15.58283,2.73119528 15.58283,2.9377728 C15.58283,3.01865501 15.5752067,3.12249027 15.5523368,3.26239462 L15.4957067,3.58045842 L15.0655355,5.81674206 Z" id="Fill-42"></path>
                                <path d="M21.9097231,3.58002122 L20.3970451,3.58002122 C20.4928807,3.22588833 20.8620656,2.96028866 21.2628327,2.96028866 C21.6832026,2.96028866 21.9097231,3.1745172 21.9097231,3.58002122 L21.9097231,3.58002122 Z M22.3083122,4.62821087 C21.9227916,4.99108778 21.6331067,5.12224811 21.2051136,5.12224811 C20.6377231,5.12224811 20.28923,4.81948635 20.2663601,4.30358905 L22.7951136,4.30358905 C22.8898601,3.93415412 22.911641,3.8095518 22.911641,3.58002122 C22.911641,2.76026916 22.2647505,2.19190772 21.3270862,2.19190772 C20.1356752,2.19190772 19.2426615,3.09254199 19.2426615,4.29593803 C19.2426615,5.28619852 19.917867,5.87642001 21.0439355,5.87642001 C21.4501478,5.87642001 21.6984492,5.8316069 22.1264423,5.69826056 L22.4248396,4.66537296 L22.3083122,4.62821087 Z" id="Fill-44"></path>
                                <path d="M25.6215019,4.92441461 L25.5267553,4.87195048 C25.3013238,5.01950585 25.1423238,5.07087698 24.909269,5.07087698 C24.4366252,5.07087698 24.1610978,4.78997527 24.1610978,4.31124007 C24.1610978,3.62483434 24.6402759,3.07068194 25.2294471,3.07068194 C25.6650636,3.07068194 25.9917759,3.38765274 25.9917759,3.8095518 C25.9917759,3.94180513 25.968906,4.11887158 25.9340567,4.33200712 L25.8240636,4.90146155 C25.7805019,5.11569009 25.7663444,5.24138541 25.7663444,5.37473175 C25.7663444,5.55944921 25.7892142,5.67640051 25.8687142,5.9135821 L27.2332827,5.62502938 L27.2332827,5.49933406 C26.9806252,5.49277604 26.8847896,5.38894078 26.8847896,5.10148106 C26.8847896,5.01185483 26.8924129,4.93097263 26.9087485,4.8424394 L26.9730019,4.47956249 L27.45218,1.96347015 L27.5251458,1.57108216 C27.5534608,1.41696877 27.5687074,1.23880932 27.5687074,1.15902012 C27.5687074,1.03988282 27.5469266,0.959000617 27.4739608,0.796143207 L26.0571184,1.16557814 L26.0505841,1.28362244 C26.311954,1.28362244 26.4132348,1.37871367 26.4132348,1.63884833 C26.4132348,1.71863753 26.4067005,1.80717075 26.392543,1.904448 L26.3337348,2.22906982 L26.2466115,2.71654905 C25.9917759,2.39848525 25.570317,2.22906982 25.068269,2.22906982 C23.9422005,2.22906982 23.0568101,3.20293527 23.0568101,4.45114442 C23.0568101,5.32991863 23.6514266,5.9135821 24.5313718,5.9135821 C24.8003649,5.9135821 24.9963923,5.87642001 25.200043,5.80974684 L25.6215019,4.92441461 Z" id="Fill-46"></path>
                                <path d="M29.9867053,3.58002122 L28.4751163,3.58002122 C28.5698629,3.22588833 28.9401368,2.96028866 29.3387259,2.96028866 C29.7612738,2.96028866 29.9867053,3.1745172 29.9867053,3.58002122 L29.9867053,3.58002122 Z M30.3863834,4.62821087 C30.0008629,4.99108778 29.7100889,5.12224811 29.2820958,5.12224811 C28.7147053,5.12224811 28.3662122,4.81948635 28.3444314,4.30358905 L30.8731848,4.30358905 C30.9668423,3.93415412 30.9886231,3.8095518 30.9886231,3.58002122 C30.9886231,2.76026916 30.3428218,2.19190772 29.4051574,2.19190772 C28.2137464,2.19190772 27.3207327,3.09254199 27.3207327,4.29593803 C27.3207327,5.28619852 27.9959382,5.87642001 29.1220067,5.87642001 C29.528219,5.87642001 29.7754314,5.8316069 30.2045136,5.69826056 L30.5029108,4.66537296 L30.3863834,4.62821087 Z" id="Fill-48"></path>
                                <path d="M30.959219,5.81674206 L32.0417259,5.81674206 L32.310719,4.42862856 C32.3749725,4.08323969 32.4566505,3.80124498 32.5579314,3.6099695 C32.7038629,3.32906779 32.9946368,3.13669931 33.2843218,3.13669931 C33.5598492,3.13669931 33.7275615,3.29955672 33.7275615,3.55750537 C33.7275615,3.64603859 33.7057807,3.77938493 33.6839999,3.9269403 L33.4879725,4.94561887 C33.4367875,5.18170746 33.42263,5.29975176 33.42263,5.42544707 C33.42263,5.55879341 33.4367875,5.63967561 33.5097533,5.9129263 L34.905904,5.62546658 L34.905904,5.49867826 C34.6510684,5.49867826 34.5552327,5.395936 34.5552327,5.12268531 C34.5552327,5.02650107 34.5639451,4.93796785 34.5781026,4.8417836 L34.6434451,4.47999969 L34.7806642,3.73566482 C34.8242259,3.52034327 34.8470958,3.33671881 34.8470958,3.18151242 C34.8470958,2.59784895 34.4103903,2.22841402 33.7351848,2.22841402 C33.2331368,2.22841402 32.8269245,2.40657347 32.5143697,2.77491539 C32.5067464,2.51587374 32.4849656,2.36941137 32.4196231,2.19890294 L31.1116848,2.52461776 L31.1040615,2.63501104 L31.1334656,2.63501104 C31.3730547,2.63501104 31.4754245,2.73119528 31.4754245,2.9377728 C31.4754245,3.01865501 31.4688903,3.12249027 31.4460204,3.26239462 L31.3883012,3.58045842 L30.959219,5.81674206 Z" id="Fill-50"></path>
                                <path d="M35.2043012,4.64526171 C35.411219,4.64526171 35.5756642,4.81577014 35.5756642,5.02562667 C35.5756642,5.2387622 35.411219,5.40817763 35.2032122,5.40817763 C34.9973834,5.40817763 34.8285821,5.2387622 34.8285821,5.02562667 C34.8285821,4.81577014 34.9973834,4.64526171 35.2032122,4.64526171 L35.2043012,4.64526171 Z M35.2021231,4.7206789 C35.0453012,4.7206789 34.9178834,4.85839725 34.9178834,5.02781267 C34.9178834,5.1983211 35.0453012,5.33166744 35.2032122,5.33166744 C35.3611231,5.33385344 35.488541,5.1983211 35.488541,5.02781267 C35.488541,4.85839725 35.3611231,4.7206789 35.2032122,4.7206789 L35.2021231,4.7206789 Z M35.1378697,5.24859923 L35.0496574,5.24859923 L35.0496574,4.82451416 C35.0834177,4.82014215 35.119356,4.81249113 35.1825204,4.81249113 C35.2554862,4.81249113 35.2968697,4.82451416 35.3262738,4.84746722 C35.3491437,4.86495526 35.3633012,4.89446634 35.3633012,4.93818645 C35.3633012,4.98846457 35.3273629,5.02453366 35.2827122,5.03655669 L35.2827122,5.0398357 C35.3197396,5.04639372 35.3426094,5.0802768 35.3491437,5.14367096 C35.357856,5.20815813 35.3654793,5.23439019 35.3720136,5.24859923 L35.2816231,5.24859923 C35.2718218,5.23329719 35.2652875,5.19504209 35.2565752,5.13820595 C35.250041,5.09229983 35.223904,5.07371879 35.1770752,5.07371879 L35.1378697,5.07371879 L35.1378697,5.24859923 Z M35.1378697,5.00376661 L35.1792533,5.00376661 C35.2315273,5.00376661 35.2718218,4.98627857 35.2718218,4.94255846 C35.2718218,4.90758237 35.2456848,4.8802573 35.1857875,4.8802573 C35.1650958,4.8802573 35.1498492,4.8802573 35.1378697,4.88244331 L35.1378697,5.00376661 Z" id="Fill-52"></path>
                                <path d="M47.9510916,57.747161 C47.9510916,56.7164594 48.7733177,55.9557295 49.7458314,55.9557295 C50.7085437,55.9557295 51.5329478,56.7164594 51.5329478,57.747161 C51.5329478,58.7876997 50.7085437,59.5473366 49.7458314,59.5473366 C48.7733177,59.5473366 47.9510916,58.7876997 47.9510916,57.747161 L47.9510916,57.747161 Z M49.7458314,59.2478538 C50.5451875,59.2478538 51.1768314,58.6117262 51.1768314,57.747161 C51.1768314,56.8968049 50.5451875,56.2552123 49.7458314,56.2552123 C48.9366738,56.2552123 48.306119,56.8968049 48.306119,57.747161 C48.306119,58.6117262 48.9366738,59.2478538 49.7458314,59.2478538 L49.7458314,59.2478538 Z M49.3722903,58.7876997 L49.0640916,58.7876997 L49.0640916,56.7164594 L49.8405779,56.7164594 C50.3219341,56.7164594 50.5604341,56.8968049 50.5604341,57.3044949 C50.5604341,57.6750229 50.3306464,57.8367873 50.0311601,57.8750424 L50.61053,58.7876997 L50.265304,58.7876997 L49.7273177,57.8881584 L49.3722903,57.8881584 L49.3722903,58.7876997 Z M49.7414752,57.6236517 C50.0039341,57.6236517 50.2369889,57.6039777 50.2369889,57.2870069 C50.2369889,57.0301512 50.0082903,56.9820591 49.7926601,56.9820591 L49.3722903,56.9820591 L49.3722903,57.6236517 L49.7414752,57.6236517 Z" id="Fill-54"></path>
                            </g>
                        </g>
                    </g>
                </g>
            </g>
        </g>
    </g>
</svg>